<?xml version="1.0" encoding="UTF-8"?>
<svg id="Layer_1" data-name="Layer 1" xmlns="http://www.w3.org/2000/svg" viewBox="0 0 38.76 27.47">
  <defs>
    <style>
      .cls-1 {
        fill: #38b5a9;
        stroke-width: 0px;
      }
    </style>
  </defs>
  <path class="cls-1" d="M9.56,22.39h0c-.46,0-.9-.13-1.28-.39-.51-.34-.86-.86-.98-1.47-.12-.61,0-1.22.34-1.73l.56-.84c.43-.64,1.15-1.02,1.92-1.02.46,0,.9.13,1.28.39.51.34.86.86.98,1.47.12.61,0,1.22-.34,1.73l-.56.84c-.43.64-1.15,1.02-1.92,1.02ZM10.13,18.29c-.32,0-.62.16-.8.42l-.56.84c-.14.21-.19.47-.14.72.05.25.19.47.4.61.43.29,1.05.16,1.33-.26l.56-.84c.14-.21.19-.47.14-.72-.05-.25-.19-.47-.41-.61-.16-.11-.34-.16-.53-.16Z"/>
  <path class="cls-1" d="M29.86,17.14c-.18,0-.36-.07-.5-.22-.25-.27-.24-.7.04-.95l4.25-3.91s.05-.04.08-.06l3.6-2.43c-.19-.81-.75-2.69-2.12-4.72-1.34-1.99-2.62-2.92-3.19-3.26l-3.67,2.36c-.31.2-.73.11-.93-.2-.2-.31-.11-.73.2-.93L31.64.23c.19-.12.43-.14.63-.05.08.04,2.07.92,4.07,3.91,1.97,2.94,2.4,5.57,2.41,5.68.04.26-.07.52-.29.66l-3.93,2.65-4.21,3.88c-.13.12-.29.18-.46.18Z"/>
  <path class="cls-1" d="M12.05,24.58h0c-.46,0-.9-.13-1.28-.39-.51-.34-.86-.86-.98-1.47-.12-.61,0-1.22.34-1.73l1.08-1.62c.43-.64,1.15-1.02,1.92-1.02.46,0,.9.13,1.28.39,1.06.71,1.34,2.14.63,3.2l-1.08,1.62c-.43.64-1.15,1.02-1.92,1.02ZM13.14,19.69c-.32,0-.62.16-.8.42l-1.08,1.62c-.14.21-.19.47-.14.72.05.25.19.47.4.61.43.29,1.05.16,1.33-.26l1.08-1.62c.29-.44.18-1.04-.26-1.33-.16-.11-.34-.16-.53-.16Z"/>
  <path class="cls-1" d="M14.76,26.39h0c-.46,0-.9-.13-1.28-.39-1.06-.71-1.34-2.14-.63-3.2l1.19-1.77c.43-.64,1.15-1.02,1.92-1.02.46,0,.9.13,1.28.39,1.06.71,1.34,2.14.63,3.2l-1.19,1.77c-.43.64-1.15,1.02-1.92,1.02ZM15.96,21.36c-.32,0-.62.16-.8.42l-1.19,1.77c-.29.44-.18,1.04.26,1.33.16.1.34.16.53.16h0c.32,0,.62-.16.8-.42l1.19-1.77c.29-.44.18-1.04-.26-1.33-.16-.1-.34-.16-.53-.16Z"/>
  <path class="cls-1" d="M18.02,27.47h0c-.46,0-.9-.13-1.28-.39-1.06-.71-1.34-2.14-.63-3.2l.86-1.29c.43-.64,1.15-1.02,1.92-1.02.46,0,.9.13,1.28.39,1.06.71,1.34,2.14.63,3.2l-.86,1.29c-.43.64-1.15,1.02-1.92,1.02ZM18.89,22.92c-.32,0-.62.16-.8.42l-.86,1.29c-.29.44-.18,1.04.26,1.33.16.1.34.16.53.16h0c.32,0,.62-.16.8-.42l.86-1.29c.29-.44.18-1.04-.26-1.33-.16-.11-.34-.16-.53-.16Z"/>
  <path class="cls-1" d="M34.11,13.22c-.22,0-.44-.11-.57-.31-.06-.09-.09-.19-.1-.29,0-.03-.02-.08-.03-.13-.12-.58-.64-2.72-2.21-5.06-1.56-2.33-3.05-3.22-3.46-3.44-.03-.02-.12-.06-.15-.09-.29-.23-.35-.65-.12-.95.22-.28.61-.34.9-.15.61.33,2.27,1.38,3.95,3.88,1.71,2.54,2.28,4.9,2.42,5.56.02.09.03.13.03.16.07.28-.05.57-.29.72-.11.07-.24.11-.37.11Z"/>
  <g>
    <g>
      <path class="cls-1" d="M29.2,20.73c-.58,0-1.15-.21-1.6-.64l-4.32-4.08c-.27-.26-.28-.68-.03-.95.26-.27.68-.28.95-.03l4.32,4.09c.38.37.99.36,1.36-.02.18-.18.27-.43.26-.68s-.11-.5-.29-.67l-7.52-7.29c-.87-.84-2.23-.96-3.23-.28l-2.77,1.87c-.51.34-1.13.47-1.73.35-.66-.13-1.22-.53-1.56-1.12-.6-1.04-.25-2.41.79-3.11l6.32-4.26c.77-.52,1.67-.82,2.59-.88l5.2-.33c.37-.03.69.26.71.63.02.37-.26.69-.63.71l-5.2.33c-.69.04-1.35.27-1.92.65l-6.32,4.26c-.45.3-.62.89-.37,1.32.14.25.37.41.65.47.18.03.45.04.72-.14l2.76-1.87c1.53-1.03,3.6-.85,4.92.43l7.52,7.28c.44.42.69,1,.7,1.61.01.62-.22,1.2-.64,1.64-.45.47-1.06.71-1.66.71Z"/>
      <path class="cls-1" d="M19.3,5.86c-.13,0-.26-.04-.37-.11l-1.09-.73c-.57-.38-1.24-.61-1.92-.65l-5.21-.33c-.37-.03-.65-.35-.62-.72.03-.37.35-.65.72-.62h.18s5.01.33,5.01.33c.92.06,1.82.36,2.59.87l1.09.73c.31.21.39.63.18.94-.13.19-.34.3-.56.3Z"/>
      <path class="cls-1" d="M8.84,18.74c-.2,0-.41-.09-.54-.27l-4.15-5.48c-.09-.12-.17-.3-.17-.45,0-.37.3-.68.67-.68.23,0,.44.12.56.3,0,0,0,0,0,0l4.15,5.48c.22.3.17.72-.13.94-.12.09-.26.14-.41.14Z"/>
      <path class="cls-1" d="M27.22,23.4c-.58,0-1.15-.21-1.6-.64l-3.38-3.24c-.27-.26-.28-.68-.02-.95.26-.27.69-.28.95-.02l3.38,3.24c.38.37.99.35,1.36-.03.37-.38.35-.99-.03-1.36l-5.06-4.84c-.27-.26-.28-.68-.02-.95.26-.27.69-.28.95-.02l5.06,4.84c.92.88.95,2.35.07,3.26-.45.47-1.06.71-1.66.71Z"/>
      <path class="cls-1" d="M24.72,25.53c-.57,0-1.15-.21-1.6-.64l-1.14-1.18c-.26-.27-.25-.69.02-.95.27-.26.69-.25.95.02l1.12,1.16c.36.35.97.34,1.34-.04.18-.18.27-.43.27-.68,0-.26-.11-.5-.29-.67-.27-.26-.28-.68-.02-.95.26-.27.69-.28.95-.02.44.43.69,1,.71,1.62.01.62-.22,1.2-.64,1.64-.45.47-1.06.71-1.66.71Z"/>
      <path class="cls-1" d="M22.03,27.47c-.59,0-1.16-.23-1.59-.64l-.94-1.03c-.25-.28-.23-.7.05-.95.28-.25.7-.23.95.05l.91,1c.18.17.47.26.76.22.21-.03.41-.13.56-.29.17-.18.27-.42.26-.68,0-.26-.11-.5-.29-.67-.27-.26-.28-.68-.02-.95.26-.27.68-.28.95-.02.44.43.69,1,.71,1.62.01.62-.22,1.2-.64,1.64-.36.37-.84.61-1.35.68-.11.01-.21.02-.31.02Z"/>
    </g>
    <path class="cls-1" d="M4.65,13.23c-.13,0-.27-.04-.39-.12L.29,10.29c-.21-.15-.32-.4-.28-.65.02-.11.44-2.74,2.41-5.68C4.42.98,6.41.09,6.49.06c.21-.09.45-.07.64.06l4,2.68c.31.21.39.63.18.94-.21.31-.63.39-.94.18l-3.66-2.46c-.57.35-1.86,1.29-3.18,3.25-1.37,2.04-1.93,3.93-2.12,4.73l3.62,2.55c.3.21.38.64.16.94-.13.19-.34.29-.55.29Z"/>
    <path class="cls-1" d="M4.65,13.23c-.13,0-.26-.04-.38-.12h0c-.22-.16-.33-.43-.28-.7l.03-.16c.14-.67.71-3.02,2.42-5.57,1.74-2.59,3.47-3.63,3.95-3.89.3-.22.7-.15.92.15.22.3.14.74-.15.96-.04.03-.14.08-.19.11-.37.2-1.85,1.1-3.41,3.42-1.57,2.34-2.09,4.48-2.22,5.08l-.02.12c-.01.11-.05.21-.11.31-.13.19-.34.29-.55.29Z"/>
  </g>
</svg>