<?xml version="1.0" encoding="UTF-8"?>
<svg id="Layer_1" data-name="Layer 1" xmlns="http://www.w3.org/2000/svg" viewBox="0 0 32.61 36.97">
  <defs>
    <style>
      .cls-1 {
        fill: #38b5a9;
        stroke-width: 0px;
      }
    </style>
  </defs>
  <path class="cls-1" d="M23.21,6.89c1.92,0,3.48,1.56,3.48,3.48s-1.56,3.48-3.48,3.48-3.48-1.56-3.48-3.48,1.56-3.48,3.48-3.48Z"/>
  <path class="cls-1" d="M32.56,35l-.13-.5-.51-1.89-.52-1.96-1.46-5.57c-.06-.21-.16-.4-.28-.56.02,0,.03,0,.05,0,.75,0,1.35-.6,1.35-1.35s-.6-1.35-1.35-1.35c-2.04,0-3.35-.84-4.03-5.13-.02-.1-.04-.19-.08-.28-.17-1.25-1.32-2.09-2.39-2.35,0,0-.37-.11-.76-.1-.37,0-.79.1-.79.1h-.01c-1.17.29-2.42,1.24-2.42,2.67v4.2c-.13,0-.26,0-.39,0l-.63-4.48c-.08-.61-.64-1.03-1.24-.95-.61.08-1.03.64-.95,1.24l.45,3.21.11.8c-1.03-.2-1.95-.6-2.6-1.42-.5-.65-.49-1.24-.48-1.86.01-.8.03-1.63-1.16-2.45-.36-.25-.67-.43-.95-.6-.99-.59-1.44-.86-1.69-2.46-.16-1.05-.19-2.08-.1-3.32h.12v-1.09h.24c.44,0,.8-.36.8-.8v-3.85c0-.44-.36-.8-.8-.8h-.63c0-.06.01-.12.01-.19,0-.05,0-.1,0-.14h.17c.58,0,1.05-.47,1.05-1.05h-.36c0,.38-.31.69-.69.69h-.24c-.08-.23-.22-.37-.4-.37s-.32.14-.4.37h-2.67V0h-1.07v1.42H1.05c-.38,0-.69-.31-.69-.69h-.36c0,.58.47,1.05,1.05,1.05h3.68v30.73l-.02.04h-.71c-1.15,0-2.13.72-2.53,1.73-.43.13-.75.53-.75,1,0,.58.47,1.05,1.05,1.05s1.05-.47,1.05-1.05c0-.28-.11-.53-.29-.72.27-.54.82-.92,1.47-.92h2.44c.65,0,1.2.38,1.47.92-.18.19-.29.44-.29.72,0,.58.47,1.05,1.05,1.05s1.05-.47,1.05-1.05c0-.47-.32-.87-.75-1-.4-1.01-1.38-1.73-2.53-1.73h-.64V1.77h2.6s0,.09,0,.14c0,.07,0,.13.01.19h-.63c-.44,0-.8.36-.8.8v3.85c0,.44.36.8.8.8h.22v.48h.61v-.48h.52v1.09h.11c-.09,1.25-.06,2.3.11,3.37.27,1.78.84,2.12,1.86,2.73.27.16.58.35.93.59,1.02.7,1.01,1.36.99,2.13,0,.63-.02,1.34.56,2.09.75.94,1.8,1.38,2.95,1.58l.74,5.31c-.6,1-.94,2.17-.94,3.41,0,3.67,2.99,6.66,6.66,6.66,2.43,0,4.56-1.31,5.72-3.25h0s.02-.05.03-.07l.71,2.62c.23.82,1.08,1.3,1.9,1.08.83-.22,1.33-1.08,1.1-1.91ZM8.98,2.11h-.21c0-.06-.01-.12-.01-.19,0-.05,0-.1.01-.14h.22s.01.09.01.14c0,.07,0,.13-.01.19ZM24.85,22.44c.69.62,1.48,1.15,2.36,1.59h-2.36v-1.59ZM19.24,21.31v2.39l-.34-2.38c.11,0,.22,0,.34,0ZM23.1,34.27c-2.42,0-4.39-1.97-4.39-4.39,0-.55.11-1.07.29-1.56.08.01.16.02.24.02h7.97c.18.48.29,1,.29,1.54,0,2.42-1.97,4.39-4.39,4.39Z"/>
</svg>