<?xml version="1.0" encoding="UTF-8"?>
<svg id="Layer_1" data-name="Layer 1" xmlns="http://www.w3.org/2000/svg" viewBox="0 0 38.24 29.03">
  <defs>
    <style>
      .cls-1 {
        fill: #38b5a9;
        stroke-width: 0px;
      }
    </style>
  </defs>
  <path class="cls-1" d="M18.07,5.89h2.1c1.04,0,1.9-.85,1.9-1.9V1.9c0-1.04-.85-1.9-1.9-1.9h-2.1c-1.04,0-1.9.85-1.9,1.9v2.1c0,1.04.85,1.9,1.9,1.9ZM17.3,2.49h1.36v-1.36h.92v1.36h1.36v.92h-1.36v1.36h-.92v-1.36h-1.36v-.92Z"/>
  <path class="cls-1" d="M35.87,9.56h-7.77v18.73h-.95V7.19c0-1.31-1.07-2.38-2.38-2.38h-2.37c-.33.91-1.21,1.56-2.23,1.56h-2.1c-1.02,0-1.9-.65-2.23-1.56h-2.37c-1.31,0-2.38,1.07-2.38,2.38v21.11h-.95V9.56H2.38c-1.31,0-2.38,1.07-2.38,2.38v17.09h38.24V11.94c0-1.31-1.07-2.38-2.38-2.38ZM2.47,12.19h5.21v3.4H2.47v-3.4ZM2.47,17.6h5.21v3.4H2.47v-3.4ZM2.47,23.01h5.21v3.4H2.47v-3.4ZM22.48,10.55h3.07v3.07h-3.07v-3.07ZM22.48,15.46h3.07v3.07h-3.07v-3.07ZM17.58,10.55h3.07v3.07h-3.07v-3.07ZM17.58,15.46h3.07v3.07h-3.07v-3.07ZM12.69,10.55h3.07v3.07h-3.07v-3.07ZM12.69,15.46h3.07v3.07h-3.07v-3.07ZM15.36,28.29v-6.85c0-.31.26-.57.57-.57h6.39c.31,0,.57.26.57.57v6.85h-7.53ZM30.56,12.19h5.21v3.4h-5.21v-3.4ZM30.56,17.6h5.21v3.4h-5.21v-3.4ZM30.56,23.01h5.21v3.4h-5.21v-3.4Z"/>
</svg>