<?xml version="1.0" encoding="UTF-8"?>
<svg id="Layer_1" data-name="Layer 1" xmlns="http://www.w3.org/2000/svg" xmlns:xlink="http://www.w3.org/1999/xlink" viewBox="0 0 36.63 43.55">
  <defs>
    <style>
      .cls-1 {
        fill: #22303b;
      }

      .cls-1, .cls-2, .cls-3, .cls-4, .cls-5, .cls-6, .cls-7, .cls-8, .cls-9, .cls-10, .cls-11, .cls-12, .cls-13 {
        stroke-width: 0px;
      }

      .cls-2 {
        fill: #fab574;
      }

      .cls-3 {
        fill: #40a0a3;
      }

      .cls-4 {
        fill: #fdc994;
      }

      .cls-14 {
        stroke: #58575a;
        stroke-linecap: round;
        stroke-linejoin: round;
      }

      .cls-14, .cls-5 {
        fill: none;
      }

      .cls-6 {
        fill: #d1ccd0;
      }

      .cls-7 {
        fill: #38b5a9;
      }

      .cls-8 {
        fill: #fff;
      }

      .cls-9 {
        fill: #faf7f6;
      }

      .cls-10 {
        fill: #ece5e2;
      }

      .cls-15 {
        clip-path: url(#clippath);
      }

      .cls-11 {
        fill: #868487;
      }

      .cls-12 {
        fill: #232628;
      }

      .cls-13 {
        fill: #bcb8bc;
      }
    </style>
    <clipPath id="clippath">
      <path class="cls-5" d="M18.31,0c10.11,0,18.31,8.2,18.31,18.31s-8.2,18.31-18.31,18.31S0,28.43,0,18.31"/>
    </clipPath>
  </defs>
  <g class="cls-15">
    <path class="cls-9" d="M23.11,21.72s1.35.58,2.8,1.54c0,0-1.16,1.75-1.83,7.98-.29,2.74-.28,6.57-.39,11.14,0,0-.73,1.18-5.38,1.18s-5.38-1.18-5.38-1.18c-.12-4.69-.09-8.32-.4-11.09-.67-6.06-1.83-8.02-1.83-8.02,1.45-.96,2.8-1.54,2.8-1.54h9.6Z"/>
    <polygon class="cls-8" points="15.51 24.78 13.85 27.74 17.47 31.47 15.51 24.78"/>
    <polygon class="cls-8" points="14.06 21.72 12.84 26.12 15.91 26.95 14.06 21.72"/>
    <path class="cls-9" d="M23.69,42.38c.12-4.69.09-8.36.39-11.14.67-6.06,1.83-7.98,1.83-7.98-1.45-.96-2.8-1.54-2.8-1.54h-4.8v21.83c4.64,0,5.38-1.18,5.38-1.18Z"/>
    <polygon class="cls-8" points="21.07 24.78 22.73 27.74 19.11 31.47 21.07 24.78"/>
    <polygon class="cls-8" points="22.52 21.72 23.74 26.12 20.67 26.95 22.52 21.72"/>
    <polygon class="cls-7" points="22.13 22.82 18.27 33.8 14.49 22.82 18.27 21.28 22.13 22.82"/>
    <path class="cls-3" d="M19.66,21.83l-1.37,1.45-1.38-1.45-2.42.99.41,1.2,1.21,1.59,1.27-1.33c.03.49.44.87.93.87s.88-.36.93-.83l1.23,1.28,1.26-1.65.4-1.13-2.46-.98Z"/>
    <polygon class="cls-10" points="17.42 31.31 18.27 33.8 19.22 31.09 18.64 23.91 17.98 23.91 17.42 31.31"/>
    <g>
      <path class="cls-8" d="M22.53,40.7l-2.33.49c-.35.07-.69-.18-.69-.51v-2.55l3.46-.72v2.79c0,.25-.18.46-.44.51Z"/>
      <polygon class="cls-8" points="23.27 37.72 19.22 38.57 19.22 37.72 23.27 36.88 23.27 37.72"/>
    </g>
    <g>
      <path class="cls-8" d="M14.08,40.7l2.33.49c.35.07.69-.18.69-.51v-2.55l-3.46-.72v2.79c0,.25.18.46.44.51Z"/>
      <polygon class="cls-8" points="13.35 37.72 17.4 38.57 17.4 37.72 13.35 36.88 13.35 37.72"/>
    </g>
    <path class="cls-14" d="M23.86,23.73c-.09-3-2.57-5.42-5.59-5.42h0c-3.07,0-5.59,2.51-5.59,5.59v2.55"/>
    <polygon class="cls-4" points="21.7 22.01 18.31 23.75 14.84 22.01 15.98 15.49 20.57 15.49 21.7 22.01"/>
    <polygon class="cls-2" points="18.29 22.54 15.34 19.15 14.84 22.01 18.31 23.75 21.7 22.01 21.2 19.15 18.29 22.54"/>
    <path class="cls-10" d="M19.25,23.75c0,.52-.42.94-.94.94s-.94-.42-.94-.94.42-.94.94-.94.94.42.94.94Z"/>
    <path class="cls-2" d="M20.57,15.49h-4.59l-.55,3.15c.45.51.87.97,1.11,1.18.46.38,1.54.36,1.54.36,0,0,1.09.03,1.54-.36.3-.25.87-.89,1.42-1.54l-.49-2.79Z"/>
    <g>
      <path class="cls-2" d="M14.05,11.74c.2,1.01-.17,1.93-.82,2.05-.65.13-1.41-.96-1.61-1.97-.2-1.01.24-1.55.89-1.68.65-.13,1.34.58,1.54,1.59Z"/>
      <path class="cls-2" d="M22.66,11.74c-.2,1.01.17,1.93.82,2.05.65.13,1.41-.96,1.61-1.97.2-1.01-.24-1.55-.89-1.68-.65-.13-1.34.58-1.54,1.59Z"/>
      <path class="cls-4" d="M18.31,4.29c3.09,0,5.56,2.97,5.56,6.63,0,0-.44,3.16-1.17,4.83,0,0-2.15,2.67-2.84,3.25-.46.38-1.54.36-1.54.36h0s-1.09.03-1.54-.36c-.69-.58-2.84-3.25-2.84-3.25-.73-1.67-1.17-4.83-1.17-4.83,0-3.66,2.46-6.63,5.56-6.63Z"/>
      <path class="cls-1" d="M14,5.74c-2.44,3.54-.94,7.03-.94,7.03,0,0,.24-3.29,2.72-4.89l-1.78-2.14Z"/>
      <path class="cls-12" d="M23.55,12.77s-.24-3.29-2.72-4.89c0,0-5.75,3.61-10.03.4,0,0,1.43-.5,2.61-2.47,1.7-2.85,6.76-3.61,9.2-.07s.94,7.03.94,7.03Z"/>
    </g>
    <polygon class="cls-7" points="15.26 19.62 18.31 22.84 16.12 25.14 13.51 21.72 15.26 19.62"/>
    <polygon class="cls-7" points="21.33 19.62 18.27 22.84 20.47 25.14 23.07 21.72 21.33 19.62"/>
    <g>
      <path class="cls-14" d="M23.94,27.76l.66-1.4c.49-1.04.04-2.28-1-2.77-1.04-.49-2.28-.04-2.77,1l-.49,1.04"/>
      <g>
        <path class="cls-13" d="M19.87,26.32h0c-.1-.06-.12-.19-.06-.29l.36-.55c.06-.1.19-.12.29-.06h0c.1.06.12.19.06.29l-.36.55c-.06.1-.19.12-.29.06Z"/>
        <path class="cls-11" d="M20.34,25.6l.32.21c.15.1.19.3.09.44h0c-.1.15-.3.19-.44.09l-.32-.21.35-.54Z"/>
      </g>
      <g>
        <path class="cls-13" d="M24.07,27.56h0c.1.06.12.19.06.29l-.36.55c-.06.1-.19.12-.29.06h0c-.1-.06-.12-.19-.06-.29l.36-.55c.06-.1.19-.12.29-.06Z"/>
        <path class="cls-11" d="M23.6,28.28l-.32-.21c-.15-.1-.19-.3-.09-.44h0c.1-.15.3-.19.44-.09l.32.21-.35.54Z"/>
      </g>
    </g>
    <path class="cls-6" d="M18.31,35.87c-1.93,0-3.79-.3-5.54-.85.07,2.1.09,4.54.16,7.36,0,0,.73,1.18,5.38,1.18s5.38-1.18,5.38-1.18c.07-2.75.09-5.22.16-7.36-1.75.55-3.61.85-5.54.85Z"/>
  </g>
</svg>