<?xml version="1.0" encoding="UTF-8"?>
<svg id="Layer_1" data-name="Layer 1" xmlns="http://www.w3.org/2000/svg" viewBox="0 0 38.97 35.86">
  <defs>
    <style>
      .cls-1 {
        fill: #38b5a9;
        stroke-width: 0px;
      }
    </style>
  </defs>
  <path class="cls-1" d="M15.8,30.36c-.37,0-.66-.3-.66-.66v-3.47c0-.37.3-.66.66-.66s.66.3.66.66v3.47c0,.37-.3.66-.66.66Z"/>
  <path class="cls-1" d="M13.64,31.75c-.11,0-.22-.03-.32-.08-.75-.41-1.21-1.18-1.21-2.03v-2.64c0-4.06,3.3-7.37,7.37-7.37s7.37,3.3,7.37,7.37v2.64c0,.82-.44,1.58-1.15,2-.32.18-.72.08-.91-.24-.18-.32-.08-.72.24-.91.3-.18.49-.5.49-.85v-2.64c0-3.33-2.71-6.04-6.04-6.04s-6.04,2.71-6.04,6.04v2.64c0,.36.2.69.52.87.32.17.44.58.27.9-.12.22-.35.35-.58.35Z"/>
  <path class="cls-1" d="M23.17,30.36c-.37,0-.66-.3-.66-.66v-3.47c0-.37.3-.66.66-.66s.66.3.66.66v3.47c0,.37-.3.66-.66.66Z"/>
  <path class="cls-1" d="M19.49,18.96c-2.18,0-3.94-1.77-3.94-3.94s1.77-3.94,3.94-3.94,3.95,1.77,3.95,3.94-1.77,3.94-3.95,3.94ZM19.49,12.39c-1.44,0-2.62,1.17-2.62,2.62s1.17,2.62,2.62,2.62,2.62-1.17,2.62-2.62-1.18-2.62-2.62-2.62Z"/>
  <path class="cls-1" d="M20.7,35.86c-.24,0-.48-.03-.71-.1l-5.16-1.49c-1.36-.39-2.15-1.82-1.76-3.18.39-1.36,1.82-2.15,3.18-1.76l5.16,1.49c1.36.39,2.15,1.82,1.76,3.18-.19.66-.62,1.2-1.23,1.54-.39.21-.81.32-1.24.32ZM15.54,30.56c-.54,0-1.04.35-1.19.9-.19.66.19,1.35.85,1.54l5.16,1.49c.32.09.65.05.94-.11.29-.16.5-.42.59-.74.19-.66-.19-1.35-.85-1.54l-5.16-1.49c-.11-.03-.23-.05-.34-.05Z"/>
  <path class="cls-1" d="M18.27,35.86c-.98,0-1.89-.57-2.32-1.51-.11-.24-.07-.51.1-.71.17-.2.44-.28.69-.2l2.94.85c.28.08.48.34.48.64s-.2.56-.48.64l-.68.2c-.24.07-.48.1-.72.1Z"/>
  <path class="cls-1" d="M22.42,34.74c-.19,0-.37-.08-.5-.23-.17-.2-.21-.47-.1-.71.03-.06.05-.11.07-.17.19-.66-.19-1.35-.85-1.54l-1.74-.5c-.28-.08-.48-.34-.48-.64s.2-.56.48-.64l3.42-.99c1.36-.39,2.79.4,3.18,1.76.39,1.36-.4,2.79-1.76,3.18l-1.54.44c-.06.02-.12.03-.18.03ZM21.82,30.98c.85.41,1.39,1.25,1.44,2.17l.52-.15c.32-.09.58-.3.74-.59.16-.29.2-.63.11-.94-.19-.66-.88-1.04-1.54-.85l-1.28.37Z"/>
  <path class="cls-1" d="M25.14,35.86h-11.31c-.37,0-.66-.3-.66-.66s.3-.66.66-.66h11.31c.37,0,.66.3.66.66s-.3.66-.66.66Z"/>
  <path class="cls-1" d="M22.56,7.38s-.07,0-.1,0c-.36-.06-.61-.4-.55-.76.52-3.35-1.65-4.82-2.42-5.22-.76.41-2.94,1.89-2.42,5.22.06.36-.19.7-.55.76-.36.05-.7-.19-.76-.55C14.98,1.84,19.19.07,19.24.05c.16-.06.34-.06.5,0,.04.02,4.26,1.79,3.48,6.77-.05.33-.33.56-.65.56Z"/>
  <path class="cls-1" d="M19.49,7.03c-.37,0-.66-.3-.66-.66v-1.97c0-.37.3-.66.66-.66s.66.3.66.66v1.97c0,.37-.3.66-.66.66Z"/>
  <path class="cls-1" d="M30.23,12.41c-.18,0-.37-.08-.5-.23-.24-.28-.21-.69.06-.94,2.53-2.21,1.82-4.75,1.5-5.55-.85-.17-3.47-.44-5.21,2.44-.19.31-.6.41-.91.22-.31-.19-.41-.6-.22-.91,2.61-4.32,6.98-2.97,7.02-2.95.16.05.3.17.38.32.02.04,2.11,4.11-1.69,7.43-.13.11-.28.16-.44.16Z"/>
  <path class="cls-1" d="M28.1,10.17c-.15,0-.3-.05-.43-.15-.28-.24-.32-.65-.08-.93l1.26-1.51c.24-.28.65-.32.93-.08.28.24.32.65.08.93l-1.26,1.51c-.13.16-.32.24-.51.24Z"/>
  <path class="cls-1" d="M32.87,21.2c-.36,0-.66-.29-.66-.65,0-.37.28-.67.65-.68,3.36-.07,4.45-2.47,4.72-3.29-.54-.68-2.38-2.57-5.56-1.48-.35.12-.72-.07-.84-.41-.12-.35.07-.72.41-.84,4.77-1.63,7.25,2.21,7.28,2.25.09.15.12.32.09.49,0,.04-1.02,4.5-6.07,4.6h-.01Z"/>
  <path class="cls-1" d="M32.69,18.11c-.32,0-.6-.23-.65-.55-.06-.36.18-.7.54-.77l1.94-.34c.37-.06.7.18.77.54.06.36-.18.7-.54.77l-1.94.34s-.08.01-.12.01Z"/>
  <path class="cls-1" d="M32.85,31c-1.19,0-2.58-.37-4.01-1.52-.29-.23-.33-.65-.1-.93.23-.28.65-.33.93-.1,2.64,2.13,5,.98,5.73.52.03-.86-.17-3.49-3.31-4.71-.34-.13-.51-.52-.38-.86.13-.34.52-.51.86-.38,4.71,1.82,4.13,6.36,4.13,6.4-.02.17-.11.33-.25.43-.02.02-1.51,1.14-3.6,1.14Z"/>
  <path class="cls-1" d="M32.8,28.13c-.11,0-.23-.03-.33-.09l-1.7-.98c-.32-.18-.43-.59-.24-.91.18-.32.59-.43.91-.24l1.7.98c.32.18.43.59.24.91-.12.21-.35.33-.58.33Z"/>
  <path class="cls-1" d="M6.12,31c-2.09,0-3.57-1.13-3.6-1.14-.14-.11-.23-.26-.25-.43,0-.05-.58-4.58,4.13-6.4.34-.13.73.04.86.38.13.34-.04.73-.38.86-3.14,1.21-3.34,3.84-3.31,4.71.74.45,3.11,1.6,5.73-.51.29-.23.7-.18.93.1.23.29.18.7-.1.93-1.43,1.15-2.82,1.52-4.01,1.52Z"/>
  <path class="cls-1" d="M6.17,28.13c-.23,0-.45-.12-.58-.33-.18-.32-.07-.72.24-.91l1.7-.98c.32-.18.72-.07.91.24.18.32.07.72-.24.91l-1.7.98c-.1.06-.22.09-.33.09Z"/>
  <path class="cls-1" d="M6.1,21.2C1.04,21.1.02,16.64.01,16.6c-.04-.17,0-.34.09-.49.02-.04,2.5-3.88,7.28-2.25.35.12.53.49.41.84-.12.35-.49.53-.84.41-3.21-1.1-5.03.79-5.56,1.47.27.82,1.35,3.22,4.72,3.29.37,0,.66.31.65.68,0,.36-.3.65-.66.65Z"/>
  <path class="cls-1" d="M6.28,18.11s-.08,0-.12-.01l-1.94-.34c-.36-.06-.6-.41-.54-.77.06-.36.41-.6.77-.54l1.94.34c.36.06.6.41.54.77-.06.32-.34.55-.65.55Z"/>
  <path class="cls-1" d="M8.74,12.41c-.15,0-.31-.05-.44-.16-3.8-3.32-1.71-7.39-1.69-7.43.08-.15.22-.27.38-.32.04-.01,4.41-1.37,7.02,2.95.19.31.09.72-.22.91-.31.19-.72.09-.91-.22-1.74-2.88-4.36-2.62-5.21-2.44-.32.8-1.03,3.34,1.5,5.55.28.24.3.66.06.94-.13.15-.31.23-.5.23Z"/>
  <path class="cls-1" d="M10.87,10.17c-.19,0-.38-.08-.51-.24l-1.26-1.51c-.24-.28-.2-.7.08-.93.28-.24.7-.2.93.08l1.26,1.51c.24.28.2.7-.08.93-.12.1-.28.15-.43.15Z"/>
  <path class="cls-1" d="M31.09,27.14c-.11,0-.23-.03-.33-.09-.32-.18-.42-.59-.24-.91,1.12-1.93,1.71-4.13,1.71-6.37,0-7.03-5.72-12.75-12.75-12.75s-12.75,5.72-12.75,12.75c0,2.24.59,4.44,1.71,6.37.18.32.08.72-.24.91-.32.18-.72.08-.91-.24-1.24-2.13-1.89-4.56-1.89-7.03,0-7.76,6.31-14.07,14.07-14.07s14.07,6.31,14.07,14.07c0,2.47-.65,4.9-1.89,7.03-.12.21-.35.33-.57.33Z"/>
</svg>