<?xml version="1.0" encoding="UTF-8"?>
<svg id="Layer_1" data-name="Layer 1" xmlns="http://www.w3.org/2000/svg" viewBox="0 0 35.36 31.61">
  <defs>
    <style>
      .cls-1 {
        fill: #38b5a9;
      }

      .cls-1, .cls-2 {
        stroke-width: 0px;
      }

      .cls-2 {
        fill: #fff;
      }
    </style>
  </defs>
  <path class="cls-1" d="M14.02,0c-4.14,0-7.51,3.37-7.51,7.51s3.37,7.51,7.51,7.51,7.51-3.37,7.51-7.51S18.16,0,14.02,0ZM16.29,10.44c-.39.26-.85.42-1.38.5v.61c0,.2-.16.36-.36.36h-.66c-.2,0-.36-.16-.36-.36v-.61c-.6-.1-1.14-.32-1.61-.69-.3-.22-.53-.46-.71-.7-.05-.06-.08-.12-.08-.19,0-.11.05-.2.17-.26l.67-.4h0s.13-.06.2-.06c.12,0,.22.05.29.14.33.36.69.61,1.06.74v-1.55c-.87-.13-1.49-.46-1.88-.98-.23-.3-.35-.65-.36-1.05-.01-.8.42-1.41,1.31-1.81.28-.13.58-.21.93-.26v-.68c0-.2.16-.36.36-.36h.66c.2,0,.36.16.36.36v.7c.73.13,1.32.45,1.79.98.07.06.1.13.1.21,0,.1-.05.18-.15.24l-.74.46h0s-.13.07-.22.07c-.12,0-.22-.04-.31-.11-.14-.12-.3-.22-.45-.3v1.24c.89.12,1.54.44,1.96.93.26.31.38.69.37,1.14-.01.72-.33,1.28-.95,1.68Z"/>
  <path class="cls-2" d="M13.89,11.91h.66c.2,0,.36-.16.36-.36v-.61c.53-.08.99-.24,1.38-.5.62-.41.93-.97.95-1.68,0-.45-.11-.83-.37-1.14-.42-.5-1.07-.81-1.96-.93v-1.24c.16.07.31.17.45.3.09.07.19.11.31.11.09,0,.22-.07.22-.07h0s.74-.47.74-.47c.1-.06.15-.15.15-.24,0-.08-.03-.15-.1-.21-.46-.53-1.06-.85-1.79-.98v-.7c0-.2-.16-.36-.36-.36h-.66c-.2,0-.36.16-.36.36v.68c-.34.05-.65.13-.93.26-.89.4-1.33,1.01-1.31,1.81,0,.4.13.75.36,1.05.39.52,1.01.84,1.88.98v1.55c-.37-.13-.73-.38-1.06-.74-.07-.1-.17-.14-.29-.14-.07,0-.2.06-.2.06h0s-.67.4-.67.4c-.12.07-.17.16-.17.26,0,.07.03.13.08.19.18.24.41.48.71.7.48.37,1.01.6,1.61.69v.61c0,.2.16.36.36.36ZM14.91,8.13c.36.11.54.32.53.63,0,.28-.13.5-.39.66-.05.03-.1.05-.15.08v-1.36ZM13.1,5.94c0-.22.13-.4.39-.52l.05-.02v1.1c-.29-.11-.43-.3-.44-.56Z"/>
  <path class="cls-1" d="M13.1,5.94c0,.27.15.45.44.56v-1.1l-.05.02c-.26.12-.39.3-.39.52Z"/>
  <path class="cls-1" d="M14.91,9.5c.05-.02.1-.05.15-.08.26-.16.39-.38.39-.66,0-.31-.18-.51-.53-.63v1.36Z"/>
  <path class="cls-1" d="M35.35,20.21v-.03c-2.54,0-4.11-1.56-5.99-2.87-1.36-.95-2.89-1.78-5.1-1.78-.99,0-1.83,0-2.54.03h-5.19c-.76,0-1.38.62-1.38,1.38s.62,1.38,1.38,1.38h4.88c.98.16,1.74,1.01,1.74,2.04,0,.78-.44,1.45-1.07,1.8-.15.04-.9.24-1.9.5-.64.15-1.25.32-1.82.48l-.12.03c-2.14.57-4.45,1.17-4.87,1.27-.28.01-.53,0-.75-.05l-7.68-4.98-1.39-1.01h0c-.07-.04-.14-.08-.21-.12-.1-.05-.21-.1-.32-.13-.09-.03-.18-.05-.27-.06-.1-.01-.2-.02-.3-.02-.14,0-.27.01-.4.04-1.13.1-2.03,1.04-2.03,2.2,0,.61.25,1.16.66,1.56h0s.01,0,.01,0c.16.16.34.29.54.4l.53.39,12.04,8.73h0s.1.04.15.06c.27.09.56.16.86.16.18,0,.35-.02.52-.05l.06-.02c4.08-1.04,12.51-3.18,16.45-4.15.1-.04.19-.07.28-.1,1.01-.25,2.38-.55,3.24-.55v-.58h.01s-.01-.79-.01-.79v-5.15Z"/>
</svg>