<?xml version="1.0" encoding="UTF-8"?>
<svg xmlns="http://www.w3.org/2000/svg" xmlns:xlink="http://www.w3.org/1999/xlink" viewBox="0 0 518.07 49.21">
  <defs>
    <style>
      .cls-1 {
        fill: #213469;
        opacity: .08;
      }

      .cls-1, .cls-2, .cls-3, .cls-4, .cls-5, .cls-6, .cls-7, .cls-8, .cls-9, .cls-10, .cls-11, .cls-12, .cls-13, .cls-14, .cls-15, .cls-16, .cls-17, .cls-18, .cls-19, .cls-20, .cls-21, .cls-22 {
        stroke-width: 0px;
      }

      .cls-2 {
        fill: #22303b;
      }

      .cls-3 {
        fill: #fab574;
      }

      .cls-4 {
        fill: #40a0a3;
      }

      .cls-5 {
        fill: #ebdfda;
      }

      .cls-5, .cls-8, .cls-9, .cls-23 {
        mix-blend-mode: multiply;
      }

      .cls-6 {
        fill: #fdc994;
      }

      .cls-24 {
        isolation: isolate;
      }

      .cls-8 {
        fill: #dfcdcc;
      }

      .cls-9 {
        fill: #b5cad5;
      }

      .cls-10, .cls-25 {
        fill: none;
      }

      .cls-25 {
        stroke: #58575a;
        stroke-linecap: round;
        stroke-linejoin: round;
        stroke-width: 2px;
      }

      .cls-11 {
        fill: #f0f6f8;
      }

      .cls-26 {
        mix-blend-mode: soft-light;
        opacity: .5;
      }

      .cls-12 {
        fill: #d1ccd0;
      }

      .cls-13 {
        fill: #38b5a9;
      }

      .cls-14 {
        fill: #fff;
      }

      .cls-15 {
        fill: #faf7f6;
      }

      .cls-16 {
        fill: #ece5e2;
      }

      .cls-27 {
        clip-path: url(#clippath);
      }

      .cls-17 {
        fill: #868487;
      }

      .cls-18 {
        fill: #fbb688;
      }

      .cls-19 {
        fill: #232628;
      }

      .cls-20 {
        fill: #a59f9d;
      }

      .cls-21 {
        fill: #d5906b;
      }

      .cls-22 {
        fill: #bcb8bc;
      }
    </style>
    <clipPath id="clippath">
      <path class="cls-10" d="M258.99,0c11.43,0,20.69,9.26,20.69,20.69s-9.26,20.69-20.69,20.69-20.69-9.26-20.69-20.69"/>
    </clipPath>
  </defs>
  <g class="cls-24">
    <g id="Layer_1" data-name="Layer 1">
      <polygon class="cls-11" points="27.89 29.15 25.73 31.31 22.33 27.9 20.77 26.35 22.93 24.19 24.55 25.81 27.89 29.15"/>
      <path class="cls-1" d="M24.55,25.81c-.68,1.14-1.57,1.76-2.22,2.09l-1.56-1.56,2.16-2.16,1.62,1.62Z"/>
      <path class="cls-13" d="M13.21,30.23c7.29,0,13.21-5.91,13.21-13.21S20.5,3.81,13.21,3.81,0,9.73,0,17.02s5.91,13.21,13.21,13.21Z"/>
      <path class="cls-14" d="M13.21,28.25c6.2,0,11.23-5.03,11.23-11.23s-5.03-11.23-11.23-11.23S1.98,10.82,1.98,17.02s5.03,11.23,11.23,11.23Z"/>
      <path class="cls-1" d="M24.33,18.56c-.23,1.67-.84,3.28-1.77,4.68-.94,1.41-2.18,2.59-3.63,3.45-1.46.86-3.09,1.38-4.77,1.52-1.68.14-3.38-.1-4.96-.7-1.58-.6-3-1.56-4.16-2.79-1.16-1.23-2.03-2.71-2.53-4.32-.51-1.61-.65-3.32-.41-4.99.24-1.67.86-3.27,1.81-4.67-.07.51-.11,1.02-.11,1.54,0,2.41.77,4.75,2.2,6.68,1.43,1.93,3.44,3.36,5.74,4.06,2.3.7,4.77.65,7.03-.15,2.27-.8,4.22-2.31,5.56-4.31Z"/>
      <path class="cls-13" d="M24.38,30.09l2.51-2.51c.24-.24.55-.37.89-.37s.65.13.89.37l7.07,7.07c.56.56.87,1.31.87,2.1s-.31,1.55-.87,2.1l-.07.07c-.56.56-1.31.87-2.1.87s-1.55-.31-2.1-.87l-7.07-7.07c-.12-.12-.21-.25-.27-.41-.06-.15-.1-.32-.1-.48,0-.16.03-.33.1-.48.06-.15.16-.29.27-.41Z"/>
      <path class="cls-13" d="M35.73,38.86l-.07.07c-.56.56-1.32.87-2.1.87s-1.55-.31-2.1-.87l-7.07-7.07c-.12-.12-.21-.25-.27-.41-.06-.15-.1-.32-.1-.48s.03-.33.1-.48c.06-.15.16-.29.27-.41l.69-.69c1.74,2.64,6.23,7.99,10.61,5.2l.05.05c.56.56.87,1.31.87,2.1,0,.79-.31,1.55-.87,2.1Z"/>
      <g>
        <path class="cls-18" d="M71.45,16.38c-.16-.83-.96-1.6-2.04-1.37-1.08.24-1.09,1.25-.92,2.08,0,.04.54,2.29.86,2.76.31.47.77,1.37,1.53,1.12.5-.17.8-1.07.92-1.72.12-.65-.34-2.87-.34-2.87Z"/>
        <path class="cls-18" d="M85.24,16.34c.16-.83.96-1.6,2.04-1.37,1.08.24,1.19,1.28,1.03,2.11,0,.04-.59,2.12-.86,2.76-.22.53-.83,1.45-1.62,1.13-.49-.2-.82-1.11-.94-1.76-.12-.65.34-2.87.34-2.87Z"/>
        <path class="cls-13" d="M61.49,41.77h33.63s-.66-8.25-1.77-9.49c-1.1-1.24-9.51-4-9.51-4l-10.99-.03s-8.85,2.59-9.45,4.03c-.6,1.45-1.92,9.49-1.92,9.49Z"/>
        <path class="cls-9" d="M77.24,28.26h-4.39s-8.85,2.58-9.45,4.02c-.6,1.45-1.92,9.49-1.92,9.49h4.44s1.31-8.05,1.91-9.49c.58-1.39,8.77-3.83,9.41-4.02Z"/>
        <path class="cls-21" d="M74.04,27.7s2.77,2.27,4.32,2.27,4.32-2.27,4.32-2.27c0,0-1.17-1.36-.36-3.16.81-1.79-9.01-1.65-7.87,0,1.14,1.65-.41,3.16-.41,3.16Z"/>
        <path class="cls-8" d="M76.92,29.57c.21-.57.62-1.14,1.29-1.62.66-.48,1.06-.05,3.87-1.66-.08-.49-.05-1.08.25-1.73.81-1.79-9.01-1.65-7.87,0,1.14,1.65-.41,3.16-.41,3.16,0,0,1.48,1.21,2.88,1.86Z"/>
        <path class="cls-9" d="M73.49,27.54l-.64.7s1.91,4.73,3.58,5.33c.51.18,1.57-2.16,1.93-2.16.18,0,1.61,2.49,1.82,2.44,1.7-.39,3.66-5.57,3.66-5.57l-.72-.55-4.76,2.99-4.87-3.18Z"/>
        <path class="cls-18" d="M86.3,10.13c0-3.6-2.23-7.22-8.14-7.22s-8.05,3.96-8.05,7.56c0,.19-.02,9.99,1.13,12.24,1.15,2.25,4.31,4.54,7.13,4.56,3.08.01,5.86-1.97,7.15-4.56,1.3-2.59.79-12.58.79-12.58Z"/>
        <path class="cls-5" d="M72.38,10.94c.05.04.1.07.16.11.16.15-.65,1.96-.41,1.97,1.17.25,2.57-2.29,3.72-1.93,2.01.63,5.8,5.7,9.52,5.6.98-.94.94-6.56.94-6.56,0-3.6-2.23-7.22-8.14-7.22-4.9,0-7.2,2.72-7.85,5.7.91.39,1.68,1.15,2.07,2.33Z"/>
        <path class="cls-5" d="M80.68,24.68c-2.82-.01-5.98-2.31-7.13-4.56-1.15-2.25-1.13-12.05-1.13-12.24,0-1.25.27-2.54.85-3.7-2.25,1.46-3.17,3.94-3.17,6.28,0,.19-.02,9.99,1.13,12.24,1.15,2.25,4.31,4.54,7.13,4.56,2.92.01,5.55-1.76,6.92-4.14-1.31.97-2.91,1.57-4.61,1.56Z"/>
        <g>
          <path class="cls-5" d="M85.25,23.18s.03-.04.04-.06c-.07.05-.14.09-.2.14.06-.02.11-.05.16-.08Z"/>
          <path class="cls-5" d="M79.7,26.5c-2.82-.01-5.98-2.31-7.13-4.56-1.15-2.25-1.13-12.05-1.13-12.23,0-1.61.45-3.29,1.46-4.65.11-.29.23-.58.37-.86-2.25,1.46-3.17,3.94-3.17,6.28,0,.19-.02,9.99,1.13,12.24,1.15,2.25,4.31,4.54,7.13,4.56,1.6,0,3.11-.54,4.37-1.41-.94.41-1.97.65-3.04.65Z"/>
        </g>
        <path class="cls-7" d="M87.62,9.27c-.73-3.97-3.97-6.84-9.26-6.81-5.28.03-8.75,3.27-9.45,6.94-.3,1.57-.53,4.56-.4,6.34.89-.74,1.26-.83,1.7-.66.3,3.24,1,3.19,1,3.19,0,0,.06-2.2.21-3.65.14-1.45,2.52-1.72,3.71-4.23,3.77-.16,6.15,4.66,10.28,4.93-.41,2.39.5,3.34.5,3.34,0,0,.1-1.97.43-2.91.29-.82,1.16-.82,1.59-.46.21-1.48.11-3.83-.3-6.02Z"/>
        <g class="cls-26">
          <path class="cls-14" d="M87.62,9.27c-.73-3.97-3.97-6.84-9.26-6.81-4.64.03-7.87,2.53-9.07,5.62,1.49-2.54,4.46-4.45,8.51-4.48,5.3-.03,8.53,2.84,9.26,6.81.3,1.61.43,3.3.39,4.67.17.03.33.1.46.2.21-1.48.11-3.83-.3-6.02Z"/>
        </g>
        <g class="cls-23">
          <path class="cls-20" d="M75.13,8.51c-1.19,2.51-5.02,4.88-6.62,5.35,0-.08,0-.18-.01-.26-.03.79-.03,1.54.01,2.15.89-.74,1.26-.83,1.7-.66.3,3.24,1,3.19,1,3.19,0,0,.06-2.2.21-3.65.14-1.45,2.52-1.72,3.71-4.23,3.75-.16,6.13,4.62,10.23,4.92-3.02-1.05-6.46-6.97-10.23-6.8Z"/>
        </g>
        <path class="cls-14" d="M73.49,26.42l-.64,1.82s1.91,3.6,3.58,4.2c.51.18,1.57-2.16,1.93-2.16.18,0,1.61,2.49,1.82,2.44,1.7-.39,3.66-4.45,3.66-4.45l-.72-1.67-4.76,2.99-4.87-3.18Z"/>
      </g>
      <g>
        <path class="cls-13" d="M138.95,21.05v.88h2.73v-.88c-.45.07-.91.1-1.37.1s-.91-.03-1.36-.1Z"/>
        <path class="cls-13" d="M138.95,39.51c0,.77.61,1.37,1.36,1.37s1.37-.6,1.37-1.37v-.87h-2.73v.87Z"/>
        <path class="cls-13" d="M148.82,28.41c0,1.24-.82,2.3-1.96,2.61.16.36.24.75.24,1.14,0,.18-.02.36-.05.52h.73c.86,0,1.57-.7,1.57-1.57v-4.21c-.24.16-.5.28-.78.36.16.36.24.73.24,1.14Z"/>
        <path class="cls-13" d="M140.3,20.66c5.03,0,9.08-4.1,9.08-9.18s-4.06-9.18-9.08-9.18-9.08,4.11-9.08,9.18,4.07,9.18,9.08,9.18ZM140.3,5.03c3.54,0,6.38,2.89,6.38,6.45s-2.84,6.45-6.38,6.45-6.38-2.87-6.38-6.45,2.86-6.45,6.38-6.45Z"/>
        <path class="cls-13" d="M147.85,22.42h-11.96c-2.05,0-3.75,1.7-3.75,3.77v8.2c0,2.07,1.7,3.77,3.75,3.77h6.81c1.21,0,2.21-1,2.21-2.24,0-.59-.24-1.13-.61-1.52h.11c1.21,0,2.21-1.01,2.21-2.24,0-.59-.23-1.13-.6-1.53h.11c1.21,0,2.2-1,2.2-2.22,0-.59-.23-1.13-.6-1.53h.11c1.21,0,2.21-1,2.21-2.24s-1-2.22-2.21-2.22Z"/>
        <path class="cls-13" d="M128.86,22.42h-1.15c-1.54,0-2.8,1.27-2.8,2.82v10.09c0,1.55,1.26,2.82,2.8,2.82h1.15c1.54,0,2.8-1.27,2.8-2.82v-10.09c0-1.55-1.26-2.82-2.8-2.82Z"/>
        <path class="cls-13" d="M140.16,14.03c-.4,0-.74.15-1.02.42-.29.29-.42.64-.42,1.04s.13.75.42,1.03c.27.29.61.42,1.02.42s.74-.13,1.03-.42c.27-.28.42-.62.42-1.03s-.15-.75-.42-1.04c-.29-.28-.63-.42-1.03-.42Z"/>
        <path class="cls-13" d="M139.19,8.43c.24-.26.58-.39,1-.39.27,0,.52.1.73.29.19.2.29.44.29.75,0,.21-.05.39-.15.54-.08.15-.19.26-.29.33-.11.07-.29.16-.52.28-.23.11-.4.21-.53.29-.18.13-.32.26-.42.42-.08.15-.15.29-.16.42-.02.13-.02.33-.02.56v1.39h2.09v-.72c0-.26.03-.47.08-.62.05-.15.16-.26.36-.34,1.44-.62,2.15-1.47,2.15-2.55,0-.88-.36-1.62-1.07-2.19-.71-.59-1.55-.87-2.54-.87-.53,0-1,.08-1.42.24-.42.16-.76.36-.99.57-.23.23-.42.47-.58.72-.15.24-.24.46-.29.6-.06.15-.08.23-.08.28l1.86.9c.08-.34.26-.64.5-.91Z"/>
      </g>
      <path class="cls-13" d="M217.18,24.42l-7.64,3.76c-.38.19-.93.09-1.22-.21l-4.08-4.21c-.29-.3-.56-.21-.6.21l-.49,5.16c-.04.42.26.69.68.61l6.1-1.26c.41-.09,1.06-.02,1.45.15l.16.07c.39.17.92.57,1.18.9l.13.17c.26.33.45.94.42,1.36l-.02.29c-.03.42-.22,1.06-.43,1.43l-.11.19c-.21.37-.72.74-1.13.83l-3.7.84-12.74-2.79c-.41-.09-.43-.03-.04.13l8,3.3c.32.13.79.32,1.17.47.48.21.93.77.7,1.53-.23.76-1.15.79-1.56.7l-4.34-.99c-.41-.09-1.08-.09-1.49,0l-4.34.99c-.74.17-1.44-.34-1.55-.75-.11-.41-.08-1.17.53-1.41.34-.13.28-.32-.13-.41l-7.02-1.6c-.41-.09-.92-.47-1.13-.83l-.11-.19c-.21-.37-.4-1.01-.43-1.43l-.02-.29c-.03-.42.16-1.03.42-1.36l.13-.17c.26-.33.79-.74,1.18-.9l.16-.07c.39-.17,1.04-.24,1.45-.15l6.1,1.26c.41.09.72-.19.68-.61l-.49-5.16c-.04-.42-.31-.51-.61-.21l-4.08,4.21c-.29.3-.84.4-1.22.21l-7.64-3.76c-.38-.19-.72-.69-.57-1.07.19-.48.75-.51,1.15-.37l6.29,2.03c.4.14.64-.04.81-.25l3.03-4.48s1.27-1.82,3.06-2.6c.72-.3,1.51-.5,2.21-.63.91-.17,2.33-.23,3.13-.25.24,0,2.6.09,3.74.44,1.83.58,2.64,1.38,3.04,1.81.62.67,1.29,1.45,1.29,1.45l2.87,4.25c.24.35.75.52,1.15.37l6.27-2.26c.4-.14.77.07.83.47.06.4-.19.88-.57,1.07ZM198.42,6.6c-2.59,0-4.69,2.1-4.69,4.69s2.1,4.69,4.69,4.69,4.69-2.1,4.69-4.69-2.1-4.69-4.69-4.69Z"/>
      <g class="cls-27">
        <path class="cls-15" d="M264.42,24.55s1.52.65,3.16,1.74c0,0-1.31,1.97-2.07,9.02-.33,3.1-.31,7.43-.44,12.58,0,0-.83,1.33-6.07,1.33s-6.07-1.33-6.07-1.33c-.13-5.3-.1-9.4-.45-12.53-.75-6.84-2.06-9.07-2.06-9.07,1.64-1.08,3.16-1.74,3.16-1.74h10.85Z"/>
        <polygon class="cls-14" points="255.83 28 253.95 31.35 258.04 35.56 255.83 28"/>
        <polygon class="cls-14" points="254.19 24.55 252.81 29.51 256.28 30.45 254.19 24.55"/>
        <path class="cls-15" d="M265.07,47.89c.13-5.3.1-9.45.44-12.58.75-6.84,2.07-9.02,2.07-9.02-1.64-1.08-3.16-1.74-3.16-1.74h-5.42v24.67c5.25,0,6.07-1.33,6.07-1.33Z"/>
        <polygon class="cls-14" points="262.11 28 263.99 31.35 259.9 35.56 262.11 28"/>
        <polygon class="cls-14" points="263.75 24.55 265.13 29.51 261.66 30.45 263.75 24.55"/>
        <polygon class="cls-13" points="263.3 25.78 258.95 38.19 254.68 25.78 258.95 24.04 263.3 25.78"/>
        <path class="cls-4" d="M260.52,24.67l-1.55,1.63-1.56-1.64-2.74,1.12.47,1.35,1.37,1.8,1.43-1.5c.04.55.49.98,1.05.98s.99-.41,1.05-.94l1.38,1.45,1.42-1.87.45-1.28-2.78-1.11Z"/>
        <polygon class="cls-16" points="257.98 35.38 258.95 38.19 260.02 35.13 259.36 27.02 258.62 27.02 257.98 35.38"/>
        <g>
          <path class="cls-14" d="M263.76,45.99l-2.63.55c-.4.08-.78-.2-.78-.58v-2.88l3.91-.82v3.15c0,.28-.21.52-.5.58Z"/>
          <polygon class="cls-14" points="264.59 42.63 260.02 43.58 260.02 42.63 264.59 41.67 264.59 42.63"/>
        </g>
        <g>
          <path class="cls-14" d="M254.22,45.99l2.63.55c.4.08.78-.2.78-.58v-2.88l-3.91-.82v3.15c0,.28.21.52.5.58Z"/>
          <polygon class="cls-14" points="253.38 42.63 257.96 43.58 257.96 42.63 253.38 41.67 253.38 42.63"/>
        </g>
        <path class="cls-25" d="M265.26,26.82c-.1-3.39-2.9-6.13-6.31-6.13h0c-3.47,0-6.31,2.84-6.31,6.31v2.88"/>
        <polygon class="cls-6" points="262.82 24.87 258.99 26.84 255.07 24.87 256.35 17.5 261.54 17.5 262.82 24.87"/>
        <polygon class="cls-3" points="258.97 25.46 255.63 21.64 255.07 24.87 258.99 26.84 262.82 24.87 262.26 21.64 258.97 25.46"/>
        <path class="cls-16" d="M260.05,26.84c0,.58-.47,1.06-1.06,1.06s-1.06-.47-1.06-1.06.47-1.06,1.06-1.06,1.06.47,1.06,1.06Z"/>
        <path class="cls-3" d="M261.54,17.5h-5.18l-.62,3.56c.5.58.98,1.1,1.25,1.33.52.43,1.74.4,1.74.4,0,0,1.23.03,1.74-.4.34-.28.98-1.01,1.61-1.74l-.55-3.15Z"/>
        <g>
          <path class="cls-3" d="M254.18,13.26c.22,1.14-.19,2.18-.93,2.32-.73.14-1.6-1.09-1.82-2.22-.22-1.14.27-1.75,1.01-1.9.73-.14,1.51.66,1.74,1.8Z"/>
          <path class="cls-3" d="M263.9,13.26c-.22,1.14.19,2.18.93,2.32.73.14,1.6-1.09,1.82-2.22.22-1.14-.27-1.75-1.01-1.9-.73-.14-1.51.66-1.74,1.8Z"/>
          <path class="cls-6" d="M258.99,4.85c3.5,0,6.28,3.36,6.28,7.5,0,0-.5,3.57-1.32,5.45,0,0-2.43,3.02-3.21,3.67-.52.43-1.74.4-1.74.4h0s-1.23.03-1.74-.4c-.78-.65-3.21-3.67-3.21-3.67-.83-1.88-1.32-5.45-1.32-5.45,0-4.14,2.78-7.5,6.28-7.5Z"/>
          <path class="cls-2" d="M254.12,6.49c-2.75,4.01-1.06,7.95-1.06,7.95,0,0,.28-3.71,3.07-5.53l-2.01-2.42Z"/>
          <path class="cls-19" d="M264.91,14.43s-.28-3.71-3.07-5.53c0,0-6.5,4.08-11.34.45,0,0,1.62-.56,2.95-2.8,1.92-3.22,7.64-4.08,10.4-.08s1.06,7.95,1.06,7.95Z"/>
        </g>
        <polygon class="cls-13" points="255.54 22.17 258.99 25.81 256.51 28.41 253.57 24.55 255.54 22.17"/>
        <polygon class="cls-13" points="262.4 22.17 258.95 25.81 261.43 28.41 264.37 24.55 262.4 22.17"/>
        <g>
          <path class="cls-25" d="M265.36,31.37l.74-1.58c.55-1.17.04-2.58-1.13-3.13-1.17-.55-2.58-.04-3.13,1.13l-.55,1.18"/>
          <g>
            <path class="cls-22" d="M260.75,29.74h0c-.11-.07-.14-.22-.07-.33l.41-.62c.07-.11.22-.14.33-.07h0c.11.07.14.22.07.33l-.41.62c-.07.11-.22.14-.33.07Z"/>
            <path class="cls-17" d="M261.28,28.93l.37.24c.17.11.21.33.1.5h0c-.11.17-.33.21-.5.1l-.37-.24.4-.61Z"/>
          </g>
          <g>
            <path class="cls-22" d="M265.5,31.14h0c.11.07.14.22.07.33l-.41.62c-.07.11-.22.14-.33.07h0c-.11-.07-.14-.22-.07-.33l.41-.62c.07-.11.22-.14.33-.07Z"/>
            <path class="cls-17" d="M264.96,31.95l-.37-.24c-.17-.11-.21-.33-.1-.5h0c.11-.17.33-.21.5-.1l.37.24-.4.61Z"/>
          </g>
        </g>
        <path class="cls-12" d="M258.99,40.53c-2.18,0-4.28-.34-6.25-.96.08,2.37.1,5.13.18,8.32,0,0,.83,1.33,6.07,1.33s6.07-1.33,6.07-1.33c.08-3.1.1-5.9.18-8.32-1.97.63-4.07.96-6.26.96Z"/>
      </g>
      <g>
        <path class="cls-13" d="M317.4,18.51h2.07c1.03,0,1.88-.84,1.88-1.88v-2.07c0-1.03-.84-1.88-1.88-1.88h-2.07c-1.03,0-1.88.84-1.88,1.88v2.07c0,1.03.84,1.88,1.88,1.88ZM316.64,15.14h1.34v-1.34h.91v1.34h1.34v.91h-1.34v1.34h-.91v-1.34h-1.34v-.91Z"/>
        <path class="cls-13" d="M334.99,22.14h-7.68v18.52h-.94v-20.87c0-1.29-1.06-2.35-2.35-2.35h-2.34c-.33.9-1.19,1.54-2.2,1.54h-2.07c-1.01,0-1.87-.64-2.2-1.54h-2.34c-1.29,0-2.35,1.06-2.35,2.35v20.87h-.94v-18.52h-7.68c-1.29,0-2.35,1.06-2.35,2.35v16.9h37.81v-16.9c0-1.29-1.06-2.35-2.35-2.35ZM301.98,24.74h5.15v3.36h-5.15v-3.36ZM301.98,30.09h5.15v3.36h-5.15v-3.36ZM301.98,35.43h5.15v3.36h-5.15v-3.36ZM321.76,23.11h3.04v3.04h-3.04v-3.04ZM321.76,27.97h3.04v3.04h-3.04v-3.04ZM316.92,23.11h3.04v3.04h-3.04v-3.04ZM316.92,27.97h3.04v3.04h-3.04v-3.04ZM312.08,23.11h3.04v3.04h-3.04v-3.04ZM312.08,27.97h3.04v3.04h-3.04v-3.04ZM314.72,40.66v-6.77c0-.31.25-.56.56-.56h6.32c.31,0,.56.25.56.56v6.77h-7.45ZM329.75,24.74h5.15v3.36h-5.15v-3.36ZM329.75,30.09h5.15v3.36h-5.15v-3.36ZM329.75,35.43h5.15v3.36h-5.15v-3.36Z"/>
      </g>
      <g>
        <path class="cls-13" d="M385.27,10.48c1.94,0,3.52,1.57,3.52,3.52s-1.57,3.52-3.52,3.52-3.52-1.57-3.52-3.52,1.57-3.52,3.52-3.52Z"/>
        <path class="cls-13" d="M394.72,38.88l-.13-.5-.51-1.91-.53-1.98-1.47-5.62c-.06-.21-.16-.4-.28-.57.02,0,.03,0,.05,0,.75,0,1.36-.61,1.36-1.36s-.61-1.36-1.36-1.36c-2.06,0-3.38-.85-4.07-5.18-.02-.1-.04-.19-.08-.28-.17-1.26-1.33-2.11-2.42-2.37,0,0-.37-.11-.76-.1-.38,0-.8.1-.8.1h-.01c-1.18.29-2.44,1.25-2.44,2.7v4.24c-.13,0-.26,0-.39,0l-.64-4.53c-.08-.61-.65-1.04-1.25-.96-.61.08-1.04.64-.96,1.25l.45,3.24.11.81c-1.04-.2-1.97-.61-2.63-1.44-.5-.66-.49-1.25-.48-1.88.01-.81.03-1.65-1.17-2.47-.36-.25-.68-.44-.96-.61-1-.6-1.46-.87-1.7-2.49-.16-1.06-.19-2.1-.1-3.35h.13v-1.1h.24c.45,0,.81-.36.81-.81v-3.89c0-.45-.36-.81-.81-.81h-.64c0-.06.01-.13.01-.19,0-.05,0-.1,0-.14h.17c.58,0,1.06-.47,1.06-1.06h-.36c0,.38-.31.7-.7.7h-.24c-.08-.23-.23-.37-.4-.37s-.32.14-.4.37h-2.7v-1.43h-1.08v1.43h-3.72c-.38,0-.7-.31-.7-.7h-.36c0,.58.47,1.06,1.06,1.06h3.72v31.04l-.02.04h-.72c-1.16,0-2.15.72-2.56,1.74-.43.13-.75.53-.75,1.01,0,.59.47,1.06,1.06,1.06s1.06-.47,1.06-1.06c0-.28-.11-.53-.29-.72.27-.55.83-.93,1.48-.93h2.47c.65,0,1.21.38,1.48.93-.18.19-.29.44-.29.72,0,.59.47,1.06,1.06,1.06s1.06-.47,1.06-1.06c0-.48-.32-.88-.75-1.01-.4-1.02-1.4-1.74-2.56-1.74h-.65V5.32h2.63s0,.09,0,.14c0,.07,0,.13.01.19h-.64c-.45,0-.81.36-.81.81v3.89c0,.45.36.81.81.81h.22v.49h.61v-.49h.52v1.1h.11c-.09,1.27-.06,2.33.11,3.41.27,1.8.85,2.14,1.88,2.75.28.16.59.35.94.59,1.03.71,1.02,1.38,1,2.15,0,.63-.02,1.35.56,2.11.76.95,1.82,1.4,2.98,1.6l.75,5.37c-.6,1.01-.95,2.19-.95,3.45,0,3.71,3.02,6.73,6.73,6.73,2.45,0,4.6-1.32,5.78-3.28h0s.02-.05.03-.07l.71,2.64c.24.83,1.09,1.32,1.92,1.09.84-.23,1.34-1.09,1.11-1.93ZM370.89,5.65h-.21c0-.06-.01-.12-.01-.19,0-.05,0-.1.01-.14h.22s.01.09.01.14c0,.07,0,.14-.01.19ZM386.93,26.2c.7.62,1.49,1.16,2.38,1.61h-2.38v-1.61ZM381.26,25.05v2.41l-.34-2.41c.11,0,.23,0,.34,0ZM385.16,38.14c-2.44,0-4.43-1.99-4.43-4.43,0-.56.11-1.09.3-1.58.08.01.16.02.24.02h8.05c.18.49.29,1.01.29,1.56,0,2.45-1.99,4.43-4.44,4.43Z"/>
      </g>
      <g>
        <path class="cls-13" d="M434.59,35.84c-.37,0-.67-.3-.67-.67v-3.49c0-.37.3-.67.67-.67s.67.3.67.67v3.49c0,.37-.3.67-.67.67Z"/>
        <path class="cls-13" d="M432.42,37.25c-.11,0-.22-.03-.32-.08-.75-.41-1.22-1.19-1.22-2.05v-2.66c0-4.09,3.33-7.42,7.42-7.42s7.42,3.33,7.42,7.42v2.66c0,.82-.44,1.6-1.16,2.01-.32.19-.73.08-.91-.24-.19-.32-.08-.73.24-.91.3-.18.49-.51.49-.86v-2.66c0-3.36-2.73-6.09-6.09-6.09s-6.09,2.73-6.09,6.09v2.66c0,.36.2.7.52.87.32.18.44.58.27.91-.12.22-.35.35-.59.35Z"/>
        <path class="cls-13" d="M442.01,35.84c-.37,0-.67-.3-.67-.67v-3.49c0-.37.3-.67.67-.67s.67.3.67.67v3.49c0,.37-.3.67-.67.67Z"/>
        <path class="cls-13" d="M438.3,24.36c-2.19,0-3.97-1.78-3.97-3.97s1.78-3.97,3.97-3.97,3.97,1.78,3.97,3.97-1.78,3.97-3.97,3.97ZM438.3,17.74c-1.45,0-2.64,1.18-2.64,2.64s1.18,2.64,2.64,2.64,2.64-1.18,2.64-2.64-1.18-2.64-2.64-2.64Z"/>
        <path class="cls-13" d="M439.52,41.38c-.24,0-.48-.03-.72-.1l-5.2-1.5c-1.37-.39-2.16-1.83-1.77-3.2.39-1.37,1.83-2.16,3.2-1.77l5.2,1.5c1.37.39,2.16,1.83,1.77,3.2-.19.66-.63,1.21-1.23,1.55-.39.21-.82.32-1.25.32ZM434.32,36.05c-.54,0-1.05.36-1.2.9-.19.66.19,1.36.86,1.55l5.2,1.5c.32.09.66.05.95-.11.29-.16.5-.43.6-.75.19-.66-.19-1.36-.86-1.55l-5.2-1.5c-.11-.03-.23-.05-.34-.05Z"/>
        <path class="cls-13" d="M437.07,41.38c-.99,0-1.91-.57-2.34-1.52-.11-.24-.07-.52.1-.71.17-.2.44-.28.69-.21l2.96.85c.29.08.48.34.48.64s-.2.56-.48.64l-.69.2c-.24.07-.48.1-.72.1Z"/>
        <path class="cls-13" d="M441.26,40.26c-.19,0-.38-.08-.51-.23-.17-.2-.21-.48-.1-.71.03-.06.05-.11.07-.17.19-.66-.19-1.36-.86-1.55l-1.75-.5c-.29-.08-.48-.34-.48-.64s.2-.56.48-.64l3.45-.99c1.37-.39,2.81.4,3.2,1.77.39,1.37-.4,2.81-1.77,3.2l-1.55.45c-.06.02-.12.03-.18.03ZM440.65,36.47c.85.41,1.4,1.26,1.45,2.18l.52-.15c.32-.09.59-.3.75-.6.16-.29.2-.63.11-.95-.19-.66-.88-1.05-1.55-.86l-1.29.37Z"/>
        <path class="cls-13" d="M444,41.38h-11.4c-.37,0-.67-.3-.67-.67s.3-.67.67-.67h11.4c.37,0,.67.3.67.67s-.3.67-.67.67Z"/>
        <path class="cls-13" d="M441.4,12.7s-.07,0-.1,0c-.36-.06-.61-.4-.56-.76.53-3.38-1.67-4.85-2.43-5.26-.76.41-2.96,1.9-2.44,5.26.06.36-.19.71-.56.76-.37.05-.71-.19-.76-.56-.78-5.02,3.46-6.81,3.51-6.82.16-.07.34-.07.5,0,.04.02,4.29,1.8,3.51,6.82-.05.33-.34.57-.66.57Z"/>
        <path class="cls-13" d="M438.3,12.34c-.37,0-.67-.3-.67-.67v-1.98c0-.37.3-.67.67-.67s.67.3.67.67v1.98c0,.37-.3.67-.67.67Z"/>
        <path class="cls-13" d="M449.13,17.76c-.19,0-.37-.08-.5-.23-.24-.28-.21-.7.06-.94,2.55-2.23,1.84-4.78,1.51-5.6-.85-.18-3.49-.44-5.25,2.46-.19.32-.6.42-.92.23-.32-.19-.42-.6-.23-.92,2.63-4.35,7.03-2.99,7.07-2.97.17.05.3.17.38.32.02.04,2.13,4.14-1.7,7.48-.13.11-.28.16-.44.16Z"/>
        <path class="cls-13" d="M446.98,15.5c-.15,0-.3-.05-.43-.16-.28-.24-.32-.66-.08-.94l1.27-1.52c.24-.28.66-.32.94-.08.28.24.32.66.08.94l-1.27,1.52c-.13.16-.32.24-.51.24Z"/>
        <path class="cls-13" d="M451.79,26.61c-.36,0-.66-.29-.67-.65,0-.37.29-.67.65-.68,3.39-.07,4.48-2.48,4.76-3.31-.54-.68-2.39-2.58-5.6-1.49-.35.12-.73-.07-.85-.42-.12-.35.07-.73.42-.85,4.81-1.64,7.31,2.23,7.33,2.27.09.15.12.32.09.49,0,.05-1.03,4.54-6.11,4.64h-.01Z"/>
        <path class="cls-13" d="M451.6,23.5c-.32,0-.6-.23-.66-.55-.06-.36.18-.71.54-.77l1.95-.34c.37-.06.71.18.77.54.06.36-.18.71-.54.77l-1.95.34s-.08.01-.12.01Z"/>
        <path class="cls-13" d="M451.76,36.49c-1.2,0-2.6-.37-4.04-1.53-.29-.23-.33-.65-.1-.94.23-.29.65-.33.94-.1,2.66,2.14,5.04.98,5.77.52.03-.87-.17-3.52-3.34-4.74-.34-.13-.51-.52-.38-.86.13-.34.52-.51.86-.38,4.74,1.83,4.16,6.4,4.16,6.45-.02.17-.11.33-.25.43-.02.02-1.52,1.15-3.62,1.15Z"/>
        <path class="cls-13" d="M451.71,33.59c-.11,0-.23-.03-.33-.09l-1.71-.99c-.32-.18-.43-.59-.24-.91.18-.32.59-.43.91-.24l1.71.99c.32.18.43.59.24.91-.12.21-.35.33-.58.33Z"/>
        <path class="cls-13" d="M424.84,36.49c-2.11,0-3.6-1.14-3.62-1.15-.14-.11-.23-.26-.25-.44,0-.05-.58-4.62,4.16-6.45.34-.13.73.04.86.38.13.34-.04.73-.38.86-3.16,1.22-3.36,3.87-3.34,4.74.74.46,3.13,1.61,5.77-.52.29-.23.71-.19.94.1.23.29.19.71-.1.94-1.44,1.16-2.84,1.53-4.04,1.53Z"/>
        <path class="cls-13" d="M424.89,33.59c-.23,0-.46-.12-.58-.33-.18-.32-.08-.73.24-.91l1.72-.99c.32-.19.73-.07.91.24.18.32.08.73-.24.91l-1.72.99c-.11.06-.22.09-.33.09Z"/>
        <path class="cls-13" d="M424.81,26.61c-5.1-.1-6.12-4.59-6.13-4.64-.04-.17,0-.35.09-.49.02-.04,2.52-3.91,7.33-2.27.35.12.54.5.42.85-.12.35-.5.53-.85.42-3.23-1.1-5.07.8-5.6,1.48.27.82,1.36,3.25,4.76,3.32.37,0,.66.31.65.68,0,.36-.3.65-.67.65Z"/>
        <path class="cls-13" d="M425,23.5s-.08,0-.12-.01l-1.95-.34c-.36-.06-.61-.41-.54-.77.06-.36.41-.6.77-.54l1.95.34c.36.06.61.41.54.77-.06.32-.34.55-.66.55Z"/>
        <path class="cls-13" d="M427.47,17.76c-.16,0-.31-.05-.44-.16-3.83-3.34-1.72-7.44-1.7-7.48.08-.15.22-.27.38-.32.04-.01,4.44-1.38,7.07,2.97.19.32.09.73-.23.92-.32.19-.73.09-.92-.23-1.75-2.9-4.39-2.64-5.25-2.46-.32.81-1.04,3.36,1.51,5.6.28.24.31.66.06.94-.13.15-.32.23-.5.23Z"/>
        <path class="cls-13" d="M429.62,15.5c-.19,0-.38-.08-.51-.24l-1.27-1.52c-.24-.28-.2-.7.08-.94.28-.24.7-.2.94.08l1.27,1.52c.24.28.2.7-.08.94-.13.11-.28.16-.43.16Z"/>
        <path class="cls-13" d="M449.99,32.6c-.11,0-.23-.03-.33-.09-.32-.19-.43-.59-.24-.91,1.13-1.94,1.73-4.16,1.73-6.42,0-7.08-5.76-12.84-12.84-12.84s-12.84,5.76-12.84,12.84c0,2.25.6,4.47,1.73,6.42.19.32.08.73-.24.91-.32.19-.73.08-.91-.24-1.25-2.15-1.91-4.6-1.91-7.09,0-7.82,6.36-14.18,14.18-14.18s14.18,6.36,14.18,14.18c0,2.49-.66,4.94-1.91,7.09-.12.21-.35.33-.58.33Z"/>
      </g>
      <g>
        <path class="cls-13" d="M488.4,36.07h0c-.46,0-.91-.14-1.3-.39-.52-.35-.87-.88-.99-1.49-.12-.62,0-1.24.35-1.76l.57-.86c.44-.65,1.17-1.04,1.95-1.04.46,0,.91.14,1.3.39.52.35.87.88.99,1.49.12.62,0,1.24-.35,1.76l-.57.86c-.44.65-1.17,1.04-1.95,1.04ZM488.98,31.9c-.33,0-.63.16-.81.43l-.57.86c-.14.21-.2.47-.14.73.05.26.2.48.41.62.43.29,1.07.16,1.35-.27l.57-.86c.14-.21.2-.47.14-.73-.05-.26-.2-.48-.41-.62-.16-.11-.35-.16-.54-.16Z"/>
        <path class="cls-13" d="M509.02,30.73c-.18,0-.37-.07-.5-.22-.26-.28-.24-.71.04-.97l4.32-3.98s.05-.04.08-.06l3.66-2.47c-.2-.82-.76-2.74-2.15-4.8-1.36-2.03-2.67-2.97-3.24-3.31l-3.73,2.39c-.32.2-.74.11-.95-.21-.2-.32-.11-.74.21-.95l4.07-2.61c.19-.12.43-.14.64-.05.08.04,2.1.94,4.13,3.97,2.01,2.99,2.44,5.66,2.45,5.77.04.26-.07.52-.29.67l-4,2.7-4.28,3.94c-.13.12-.3.18-.46.18Z"/>
        <path class="cls-13" d="M490.92,38.3h0c-.46,0-.91-.14-1.3-.39-.52-.35-.87-.88-.99-1.49-.12-.62,0-1.24.35-1.76l1.1-1.65c.44-.65,1.17-1.04,1.95-1.04.46,0,.91.14,1.3.39,1.07.72,1.36,2.18.64,3.25l-1.1,1.65c-.44.65-1.17,1.04-1.95,1.04ZM492.03,33.33c-.33,0-.63.16-.81.43l-1.1,1.65c-.14.21-.2.47-.14.73.05.26.2.48.41.62.43.29,1.07.16,1.35-.27l1.1-1.65c.3-.45.18-1.05-.27-1.35-.16-.11-.35-.16-.54-.16Z"/>
        <path class="cls-13" d="M493.68,40.14h0c-.46,0-.91-.14-1.3-.39-1.07-.72-1.36-2.18-.64-3.25l1.21-1.8c.44-.65,1.17-1.04,1.95-1.04.46,0,.91.14,1.3.39,1.07.72,1.36,2.18.64,3.25l-1.21,1.8c-.44.65-1.17,1.04-1.95,1.04ZM494.89,35.03c-.33,0-.63.16-.81.43l-1.21,1.8c-.3.45-.18,1.05.27,1.35.16.11.35.16.54.16h0c.33,0,.63-.16.81-.43l1.21-1.8c.3-.45.18-1.05-.27-1.35-.16-.11-.35-.16-.54-.16Z"/>
        <path class="cls-13" d="M496.99,41.24h0c-.46,0-.91-.14-1.3-.39-1.07-.72-1.36-2.18-.64-3.25l.88-1.31c.44-.65,1.17-1.04,1.95-1.04.46,0,.91.14,1.3.39,1.07.72,1.36,2.18.64,3.25l-.88,1.31c-.44.65-1.17,1.04-1.95,1.04ZM497.87,36.62c-.33,0-.63.16-.81.43l-.88,1.31c-.3.45-.18,1.05.27,1.35.16.11.35.16.54.16h0c.33,0,.63-.16.81-.43l.88-1.31c.3-.45.18-1.05-.27-1.35-.16-.11-.35-.16-.54-.16Z"/>
        <path class="cls-13" d="M513.34,26.76c-.23,0-.45-.11-.58-.31-.06-.09-.09-.19-.11-.29,0-.04-.02-.08-.03-.14-.12-.59-.65-2.76-2.25-5.14-1.59-2.36-3.09-3.28-3.52-3.5-.04-.02-.12-.07-.15-.09-.3-.23-.35-.66-.12-.96.22-.28.62-.35.91-.16.62.33,2.31,1.41,4.01,3.94,1.74,2.59,2.32,4.98,2.46,5.65.02.09.03.14.03.16.07.28-.05.58-.3.73-.12.07-.24.11-.37.11Z"/>
        <g>
          <g>
            <path class="cls-13" d="M508.35,34.39c-.58,0-1.17-.22-1.62-.65l-4.39-4.15c-.27-.26-.29-.69-.03-.97.26-.28.69-.29.97-.03l4.39,4.15c.39.38,1.01.36,1.38-.02.18-.19.27-.43.27-.69s-.11-.5-.3-.68l-7.64-7.4c-.88-.86-2.26-.98-3.28-.29l-2.81,1.9c-.52.35-1.15.48-1.76.35-.68-.13-1.24-.54-1.58-1.13-.61-1.06-.26-2.45.8-3.16l6.42-4.33c.78-.53,1.69-.83,2.63-.89l5.29-.33c.38-.03.7.26.73.64.02.38-.26.7-.64.73l-5.28.33c-.7.04-1.37.27-1.95.66l-6.42,4.33c-.46.31-.63.91-.38,1.34.14.25.38.42.66.47.18.04.45.04.73-.15l2.81-1.9c1.55-1.05,3.66-.87,5,.44l7.64,7.4c.45.43.7,1.01.72,1.64.01.63-.22,1.22-.65,1.67-.46.48-1.08.72-1.69.72Z"/>
            <path class="cls-13" d="M498.29,19.27c-.13,0-.26-.04-.38-.12l-1.1-.74c-.58-.39-1.26-.62-1.95-.66l-5.29-.33c-.38-.03-.66-.35-.63-.73.03-.38.35-.66.73-.63h.18s5.1.33,5.1.33c.94.06,1.85.37,2.63.89l1.1.74c.31.21.4.64.19.95-.13.2-.35.3-.57.3Z"/>
            <path class="cls-13" d="M487.66,32.37c-.21,0-.41-.09-.55-.27l-4.22-5.57c-.09-.12-.17-.3-.17-.45,0-.38.31-.69.69-.69.24,0,.45.12.57.3,0,0,0,0,0,0l4.22,5.56c.23.3.17.73-.13.96-.12.09-.27.14-.41.14Z"/>
            <path class="cls-13" d="M506.34,37.11c-.58,0-1.17-.22-1.62-.65l-3.44-3.29c-.27-.26-.28-.7-.02-.97.26-.27.7-.28.97-.02l3.44,3.29c.39.37,1.01.36,1.38-.03.37-.39.36-1-.03-1.38l-5.14-4.92c-.27-.26-.28-.7-.02-.97.26-.27.7-.28.97-.02l5.14,4.92c.93.9.96,2.38.07,3.32-.46.48-1.08.72-1.69.72Z"/>
            <path class="cls-13" d="M503.8,39.27c-.58,0-1.17-.22-1.62-.65l-1.16-1.2c-.26-.27-.25-.71.02-.97.27-.26.71-.25.97.02l1.14,1.18c.37.35.99.34,1.36-.05.18-.19.27-.43.27-.69,0-.26-.11-.5-.3-.68-.27-.26-.28-.7-.02-.97.26-.27.7-.28.97-.02.45.43.71,1.02.72,1.64.01.63-.22,1.22-.65,1.67-.46.48-1.07.72-1.69.72Z"/>
            <path class="cls-13" d="M501.07,41.24c-.6,0-1.18-.23-1.62-.65l-.95-1.05c-.25-.28-.23-.71.05-.97.28-.25.71-.23.97.05l.92,1.02c.18.17.48.27.77.23.22-.03.42-.13.57-.29.18-.18.27-.43.27-.69,0-.26-.11-.51-.3-.68-.27-.26-.28-.7-.02-.97.26-.27.7-.28.97-.02.45.43.71,1.02.72,1.65.01.63-.22,1.22-.65,1.67-.37.38-.86.62-1.37.69-.11.01-.21.02-.32.02Z"/>
          </g>
          <path class="cls-13" d="M483.41,26.76c-.14,0-.27-.04-.39-.13l-4.04-2.85c-.21-.15-.32-.41-.28-.66.02-.11.45-2.78,2.45-5.77,2.03-3.03,4.05-3.93,4.13-3.97.21-.09.46-.07.66.06l4.07,2.73c.31.21.4.64.19.95-.21.31-.64.4-.95.19l-3.72-2.5c-.58.35-1.89,1.31-3.23,3.3-1.39,2.07-1.96,4-2.15,4.81l3.68,2.59c.31.22.38.65.16.95-.13.19-.35.29-.56.29Z"/>
          <path class="cls-13" d="M483.4,26.76c-.13,0-.27-.04-.39-.12h0c-.23-.16-.34-.44-.28-.71l.03-.16c.14-.68.72-3.07,2.46-5.66,1.76-2.63,3.52-3.69,4.02-3.95.3-.23.71-.15.94.15.23.3.15.75-.16.98-.04.03-.14.09-.19.11-.38.2-1.88,1.11-3.47,3.48-1.6,2.38-2.13,4.55-2.25,5.16l-.02.12c-.01.11-.05.21-.12.31-.13.19-.35.3-.56.3Z"/>
        </g>
      </g>
    </g>
  </g>
</svg>