<?xml version="1.0" encoding="UTF-8"?>
<svg id="Layer_1" data-name="Layer 1" xmlns="http://www.w3.org/2000/svg" viewBox="0 0 38.92 17.69">
  <defs>
    <style>
      .cls-1 {
        fill: #38b5a9;
      }

      .cls-1, .cls-2, .cls-3 {
        stroke-width: 0px;
      }

      .cls-2 {
        fill: #241f20;
      }

      .cls-3 {
        fill: #ebe959;
      }
    </style>
  </defs>
  <g>
    <circle class="cls-3" cx="21.08" cy="8.08" r="4.22" transform="translate(8.37 26.74) rotate(-76.72)"/>
    <path class="cls-2" d="M21.08,12.95c-2.69,0-4.87-2.19-4.87-4.87s2.19-4.87,4.87-4.87,4.87,2.19,4.87,4.87-2.19,4.87-4.87,4.87ZM21.08,4.52c-1.96,0-3.56,1.6-3.56,3.56s1.6,3.56,3.56,3.56,3.56-1.6,3.56-3.56-1.6-3.56-3.56-3.56Z"/>
  </g>
  <g>
    <polygon class="cls-1" points="38.26 17.04 27.9 3.73 17.53 17.04 38.26 17.04"/>
    <path class="cls-2" d="M38.26,17.69h-20.73c-.25,0-.48-.14-.59-.37-.11-.23-.08-.49.07-.69L27.38,3.33c.12-.16.32-.25.52-.25s.39.09.52.25l10.37,13.3c.15.2.18.47.07.69-.11.23-.34.37-.59.37ZM18.88,16.38h18.05l-9.02-11.58-9.02,11.58Z"/>
  </g>
  <g>
    <polygon class="cls-1" points="25.37 17.04 13.02 .66 .66 17.04 25.37 17.04"/>
    <path class="cls-2" d="M25.37,17.69H.66c-.25,0-.48-.14-.59-.36-.11-.22-.09-.49.06-.69L12.49.26c.12-.16.32-.26.52-.26s.4.1.52.26l12.36,16.38c.15.2.17.46.06.69-.11.22-.34.36-.59.36ZM1.97,16.38h22.09L13.02,1.74,1.97,16.38Z"/>
  </g>
</svg>