<?xml version="1.0" encoding="UTF-8"?>
<svg id="Layer_1" data-name="Layer 1" xmlns="http://www.w3.org/2000/svg" viewBox="0 0 36.33 32.29">
  <defs>
    <style>
      .cls-1 {
        fill: #38b5a9;
        stroke-width: 0px;
      }
    </style>
  </defs>
  <path class="cls-1" d="M8.63,25.92c-.36,0-.66-.29-.66-.66,0-.99.49-1.91,1.3-2.45.36-.24.56-.66.51-1.1-.06-.52-.49-.96-1.02-1.02-.33-.03-.66.06-.91.29-.24.22-.39.53-.39.86,0,.36-.29.66-.66.66s-.66-.29-.66-.66c0-.7.3-1.37.82-1.84.52-.47,1.23-.69,1.93-.61,1.14.12,2.05,1.04,2.18,2.18.1.93-.31,1.82-1.09,2.34-.45.3-.71.81-.71,1.36,0,.36-.29.66-.66.66Z"/>
  <path class="cls-1" d="M8.63,27.95c-.36,0-.66-.29-.66-.66v-.5c0-.36.29-.66.66-.66s.66.29.66.66v.5c0,.36-.29.66-.66.66Z"/>
  <path class="cls-1" d="M8.63,29.84c-3.41,0-6.18-2.77-6.18-6.18s2.77-6.18,6.18-6.18,6.18,2.77,6.18,6.18-2.77,6.18-6.18,6.18ZM8.63,18.8c-2.68,0-4.86,2.18-4.86,4.86s2.18,4.86,4.86,4.86,4.86-2.18,4.86-4.86-2.18-4.86-4.86-4.86Z"/>
  <path class="cls-1" d="M19.58,26.36h-5.83c-.22,0-.42-.11-.54-.29-.12-.18-.15-.41-.07-.61.23-.58.35-1.18.35-1.8,0-.5-.08-.99-.23-1.46-.06-.2-.03-.42.1-.59.12-.17.32-.27.53-.27h4.31c.29,0,.53-.24.53-.53V7h-1.51c-.44,0-.82-.24-1.01-.64-.19-.39-.14-.85.14-1.19l3.61-4.51c.34-.42.84-.66,1.38-.66h0c.54,0,1.04.24,1.38.66l3.61,4.51c.27.34.32.8.14,1.19-.19.39-.58.64-1.01.64h-1.51v5.71h5.39v-1.51c0-.44.24-.82.64-1.01.39-.19.85-.14,1.19.14l4.51,3.61c.42.34.66.84.66,1.38s-.24,1.04-.66,1.38l-4.51,3.61c-.34.27-.8.32-1.19.13-.39-.19-.64-.58-.64-1.01v-1.51h-5.39v4.09c0,2.41-1.96,4.36-4.36,4.36ZM14.65,25.05h4.93c1.68,0,3.05-1.37,3.05-3.05v-4.74c0-.36.29-.66.66-.66h6.7c.36,0,.66.29.66.66v1.77l4.2-3.36c.15-.12.17-.27.17-.36s-.02-.24-.17-.35h0l-4.2-3.36v1.77c0,.36-.29.66-.66.66h-6.7c-.36,0-.66-.29-.66-.66v-7.02c0-.36.29-.66.66-.66h1.77l-3.36-4.2c-.12-.15-.27-.17-.36-.17h0c-.08,0-.24.02-.35.17l-3.36,4.2h1.77c.36,0,.66.29.66.66v14.48c0,1.01-.83,1.84-1.84,1.84h-3.48c.05.33.08.67.08,1,0,.47-.05.93-.16,1.39Z"/>
  <path class="cls-1" d="M8.63,32.29c-4.76,0-8.63-3.87-8.63-8.63,0-2.79,1.36-5.42,3.64-7.04.3-.21.71-.14.92.15.21.3.14.71-.15.92-1.93,1.37-3.08,3.6-3.08,5.97,0,4.03,3.28,7.31,7.31,7.31,3.02,0,5.7-1.86,6.79-4.61h-1.66c-.22,0-.42-.11-.54-.29-.12-.18-.15-.41-.07-.61.23-.58.35-1.18.35-1.8,0-.5-.08-.99-.23-1.46-.06-.2-.03-.42.1-.59.12-.17.32-.27.53-.27h1.67c-.98-2.94-3.78-4.99-6.93-4.99-.36,0-.66-.29-.66-.66s.29-.66.66-.66c4.05,0,7.6,2.87,8.44,6.83.04.19,0,.4-.13.55-.12.15-.31.24-.51.24h-1.7c.05.33.08.67.08,1,0,.47-.05.93-.16,1.39h1.68c.2,0,.4.09.52.26.12.16.17.37.11.57-1,3.78-4.43,6.42-8.33,6.42Z"/>
</svg>