<?xml version="1.0" encoding="UTF-8"?>
<svg xmlns="http://www.w3.org/2000/svg" xmlns:xlink="http://www.w3.org/1999/xlink" viewBox="0 0 337.34 49.21">
  <defs>
    <style>
      .cls-1 {
        fill: #213469;
        opacity: .08;
      }

      .cls-1, .cls-2, .cls-3, .cls-4, .cls-5, .cls-6, .cls-7, .cls-8, .cls-9, .cls-10, .cls-11, .cls-12, .cls-13, .cls-14, .cls-15, .cls-16, .cls-17, .cls-18, .cls-19, .cls-20, .cls-21, .cls-22 {
        stroke-width: 0px;
      }

      .cls-2 {
        fill: #22303b;
      }

      .cls-3 {
        fill: #fab574;
      }

      .cls-4 {
        fill: #40a0a3;
      }

      .cls-5 {
        fill: #ebdfda;
      }

      .cls-5, .cls-8, .cls-9, .cls-23 {
        mix-blend-mode: multiply;
      }

      .cls-6 {
        fill: #fdc994;
      }

      .cls-24 {
        isolation: isolate;
      }

      .cls-8 {
        fill: #dfcdcc;
      }

      .cls-9 {
        fill: #b5cad5;
      }

      .cls-10, .cls-25 {
        fill: none;
      }

      .cls-25 {
        stroke: #58575a;
        stroke-linecap: round;
        stroke-linejoin: round;
        stroke-width: 2px;
      }

      .cls-11 {
        fill: #f0f6f8;
      }

      .cls-26 {
        mix-blend-mode: soft-light;
        opacity: .5;
      }

      .cls-12 {
        fill: #d1ccd0;
      }

      .cls-13 {
        fill: #38b5a9;
      }

      .cls-14 {
        fill: #fff;
      }

      .cls-15 {
        fill: #faf7f6;
      }

      .cls-16 {
        fill: #ece5e2;
      }

      .cls-27 {
        clip-path: url(#clippath);
      }

      .cls-17 {
        fill: #868487;
      }

      .cls-18 {
        fill: #fbb688;
      }

      .cls-19 {
        fill: #232628;
      }

      .cls-20 {
        fill: #a59f9d;
      }

      .cls-21 {
        fill: #d5906b;
      }

      .cls-22 {
        fill: #bcb8bc;
      }
    </style>
    <clipPath id="clippath">
      <path class="cls-10" d="M258.99,0c11.43,0,20.69,9.26,20.69,20.69s-9.26,20.69-20.69,20.69-20.69-9.26-20.69-20.69"/>
    </clipPath>
  </defs>
  <g class="cls-24">
    <g id="Layer_1" data-name="Layer 1">
      <polygon class="cls-11" points="27.89 29.15 25.73 31.31 22.33 27.9 20.77 26.35 22.93 24.19 24.55 25.81 27.89 29.15"/>
      <path class="cls-1" d="M24.55,25.81c-.68,1.14-1.57,1.76-2.22,2.09l-1.56-1.56,2.16-2.16,1.62,1.62Z"/>
      <path class="cls-13" d="M13.21,30.23c7.29,0,13.21-5.91,13.21-13.21S20.5,3.81,13.21,3.81,0,9.73,0,17.02s5.91,13.21,13.21,13.21Z"/>
      <path class="cls-14" d="M13.21,28.25c6.2,0,11.23-5.03,11.23-11.23s-5.03-11.23-11.23-11.23S1.98,10.82,1.98,17.02s5.03,11.23,11.23,11.23Z"/>
      <path class="cls-1" d="M24.33,18.56c-.23,1.67-.84,3.28-1.77,4.68-.94,1.41-2.18,2.59-3.63,3.45-1.46.86-3.09,1.38-4.77,1.52-1.68.14-3.38-.1-4.96-.7-1.58-.6-3-1.56-4.16-2.79-1.16-1.23-2.03-2.71-2.53-4.32-.51-1.61-.65-3.32-.41-4.99.24-1.67.86-3.27,1.81-4.67-.07.51-.11,1.02-.11,1.54,0,2.41.77,4.75,2.2,6.68,1.43,1.93,3.44,3.36,5.74,4.06,2.3.7,4.77.65,7.03-.15,2.27-.8,4.22-2.31,5.56-4.31Z"/>
      <path class="cls-13" d="M24.38,30.09l2.51-2.51c.24-.24.55-.37.89-.37s.65.13.89.37l7.07,7.07c.56.56.87,1.31.87,2.1s-.31,1.55-.87,2.1l-.07.07c-.56.56-1.31.87-2.1.87s-1.55-.31-2.1-.87l-7.07-7.07c-.12-.12-.21-.25-.27-.41-.06-.15-.1-.32-.1-.48,0-.16.03-.33.1-.48.06-.15.16-.29.27-.41Z"/>
      <path class="cls-13" d="M35.73,38.86l-.07.07c-.56.56-1.32.87-2.1.87s-1.55-.31-2.1-.87l-7.07-7.07c-.12-.12-.21-.25-.27-.41-.06-.15-.1-.32-.1-.48s.03-.33.1-.48c.06-.15.16-.29.27-.41l.69-.69c1.74,2.64,6.23,7.99,10.61,5.2l.05.05c.56.56.87,1.31.87,2.1,0,.79-.31,1.55-.87,2.1Z"/>
      <g>
        <path class="cls-18" d="M71.45,16.38c-.16-.83-.96-1.6-2.04-1.37-1.08.24-1.09,1.25-.92,2.08,0,.04.54,2.29.86,2.76.31.47.77,1.37,1.53,1.12.5-.17.8-1.07.92-1.72.12-.65-.34-2.87-.34-2.87Z"/>
        <path class="cls-18" d="M85.24,16.34c.16-.83.96-1.6,2.04-1.37,1.08.24,1.19,1.28,1.03,2.11,0,.04-.59,2.12-.86,2.76-.22.53-.83,1.45-1.62,1.13-.49-.2-.82-1.11-.94-1.76-.12-.65.34-2.87.34-2.87Z"/>
        <path class="cls-13" d="M61.49,41.77h33.63s-.66-8.25-1.77-9.49c-1.1-1.24-9.51-4-9.51-4l-10.99-.03s-8.85,2.59-9.45,4.03c-.6,1.45-1.92,9.49-1.92,9.49Z"/>
        <path class="cls-9" d="M77.24,28.26h-4.39s-8.85,2.58-9.45,4.02c-.6,1.45-1.92,9.49-1.92,9.49h4.44s1.31-8.05,1.91-9.49c.58-1.39,8.77-3.83,9.41-4.02Z"/>
        <path class="cls-21" d="M74.04,27.7s2.77,2.27,4.32,2.27,4.32-2.27,4.32-2.27c0,0-1.17-1.36-.36-3.16.81-1.79-9.01-1.65-7.87,0,1.14,1.65-.41,3.16-.41,3.16Z"/>
        <path class="cls-8" d="M76.92,29.57c.21-.57.62-1.14,1.29-1.62.66-.48,1.06-.05,3.87-1.66-.08-.49-.05-1.08.25-1.73.81-1.79-9.01-1.65-7.87,0,1.14,1.65-.41,3.16-.41,3.16,0,0,1.48,1.21,2.88,1.86Z"/>
        <path class="cls-9" d="M73.49,27.54l-.64.7s1.91,4.73,3.58,5.33c.51.18,1.57-2.16,1.93-2.16.18,0,1.61,2.49,1.82,2.44,1.7-.39,3.66-5.57,3.66-5.57l-.72-.55-4.76,2.99-4.87-3.18Z"/>
        <path class="cls-18" d="M86.3,10.13c0-3.6-2.23-7.22-8.14-7.22s-8.05,3.96-8.05,7.56c0,.19-.02,9.99,1.13,12.24,1.15,2.25,4.31,4.54,7.13,4.56,3.08.01,5.86-1.97,7.15-4.56,1.3-2.59.79-12.58.79-12.58Z"/>
        <path class="cls-5" d="M72.38,10.94c.05.04.1.07.16.11.16.15-.65,1.96-.41,1.97,1.17.25,2.57-2.29,3.72-1.93,2.01.63,5.8,5.7,9.52,5.6.98-.94.94-6.56.94-6.56,0-3.6-2.23-7.22-8.14-7.22-4.9,0-7.2,2.72-7.85,5.7.91.39,1.68,1.15,2.07,2.33Z"/>
        <path class="cls-5" d="M80.68,24.68c-2.82-.01-5.98-2.31-7.13-4.56-1.15-2.25-1.13-12.05-1.13-12.24,0-1.25.27-2.54.85-3.7-2.25,1.46-3.17,3.94-3.17,6.28,0,.19-.02,9.99,1.13,12.24,1.15,2.25,4.31,4.54,7.13,4.56,2.92.01,5.55-1.76,6.92-4.14-1.31.97-2.91,1.57-4.61,1.56Z"/>
        <g>
          <path class="cls-5" d="M85.25,23.18s.03-.04.04-.06c-.07.05-.14.09-.2.14.06-.02.11-.05.16-.08Z"/>
          <path class="cls-5" d="M79.7,26.5c-2.82-.01-5.98-2.31-7.13-4.56-1.15-2.25-1.13-12.05-1.13-12.23,0-1.61.45-3.29,1.46-4.65.11-.29.23-.58.37-.86-2.25,1.46-3.17,3.94-3.17,6.28,0,.19-.02,9.99,1.13,12.24,1.15,2.25,4.31,4.54,7.13,4.56,1.6,0,3.11-.54,4.37-1.41-.94.41-1.97.65-3.04.65Z"/>
        </g>
        <path class="cls-7" d="M87.62,9.27c-.73-3.97-3.97-6.84-9.26-6.81-5.28.03-8.75,3.27-9.45,6.94-.3,1.57-.53,4.56-.4,6.34.89-.74,1.26-.83,1.7-.66.3,3.24,1,3.19,1,3.19,0,0,.06-2.2.21-3.65.14-1.45,2.52-1.72,3.71-4.23,3.77-.16,6.15,4.66,10.28,4.93-.41,2.39.5,3.34.5,3.34,0,0,.1-1.97.43-2.91.29-.82,1.16-.82,1.59-.46.21-1.48.11-3.83-.3-6.02Z"/>
        <g class="cls-26">
          <path class="cls-14" d="M87.62,9.27c-.73-3.97-3.97-6.84-9.26-6.81-4.64.03-7.87,2.53-9.07,5.62,1.49-2.54,4.46-4.45,8.51-4.48,5.3-.03,8.53,2.84,9.26,6.81.3,1.61.43,3.3.39,4.67.17.03.33.1.46.2.21-1.48.11-3.83-.3-6.02Z"/>
        </g>
        <g class="cls-23">
          <path class="cls-20" d="M75.13,8.51c-1.19,2.51-5.02,4.88-6.62,5.35,0-.08,0-.18-.01-.26-.03.79-.03,1.54.01,2.15.89-.74,1.26-.83,1.7-.66.3,3.24,1,3.19,1,3.19,0,0,.06-2.2.21-3.65.14-1.45,2.52-1.72,3.71-4.23,3.75-.16,6.13,4.62,10.23,4.92-3.02-1.05-6.46-6.97-10.23-6.8Z"/>
        </g>
        <path class="cls-14" d="M73.49,26.42l-.64,1.82s1.91,3.6,3.58,4.2c.51.18,1.57-2.16,1.93-2.16.18,0,1.61,2.49,1.82,2.44,1.7-.39,3.66-4.45,3.66-4.45l-.72-1.67-4.76,2.99-4.87-3.18Z"/>
      </g>
      <g>
        <path class="cls-13" d="M138.95,21.05v.88h2.73v-.88c-.45.07-.91.1-1.37.1s-.91-.03-1.36-.1Z"/>
        <path class="cls-13" d="M138.95,39.51c0,.77.61,1.37,1.36,1.37s1.37-.6,1.37-1.37v-.87h-2.73v.87Z"/>
        <path class="cls-13" d="M148.82,28.41c0,1.24-.82,2.3-1.96,2.61.16.36.24.75.24,1.14,0,.18-.02.36-.05.52h.73c.86,0,1.57-.7,1.57-1.57v-4.21c-.24.16-.5.28-.78.36.16.36.24.73.24,1.14Z"/>
        <path class="cls-13" d="M140.3,20.66c5.03,0,9.08-4.1,9.08-9.18s-4.06-9.18-9.08-9.18-9.08,4.11-9.08,9.18,4.07,9.18,9.08,9.18ZM140.3,5.03c3.54,0,6.38,2.89,6.38,6.45s-2.84,6.45-6.38,6.45-6.38-2.87-6.38-6.45,2.86-6.45,6.38-6.45Z"/>
        <path class="cls-13" d="M147.85,22.42h-11.96c-2.05,0-3.75,1.7-3.75,3.77v8.2c0,2.07,1.7,3.77,3.75,3.77h6.81c1.21,0,2.21-1,2.21-2.24,0-.59-.24-1.13-.61-1.52h.11c1.21,0,2.21-1.01,2.21-2.24,0-.59-.23-1.13-.6-1.53h.11c1.21,0,2.2-1,2.2-2.22,0-.59-.23-1.13-.6-1.53h.11c1.21,0,2.21-1,2.21-2.24s-1-2.22-2.21-2.22Z"/>
        <path class="cls-13" d="M128.86,22.42h-1.15c-1.54,0-2.8,1.27-2.8,2.82v10.09c0,1.55,1.26,2.82,2.8,2.82h1.15c1.54,0,2.8-1.27,2.8-2.82v-10.09c0-1.55-1.26-2.82-2.8-2.82Z"/>
        <path class="cls-13" d="M140.16,14.03c-.4,0-.74.15-1.02.42-.29.29-.42.64-.42,1.04s.13.75.42,1.03c.27.29.61.42,1.02.42s.74-.13,1.03-.42c.27-.28.42-.62.42-1.03s-.15-.75-.42-1.04c-.29-.28-.63-.42-1.03-.42Z"/>
        <path class="cls-13" d="M139.19,8.43c.24-.26.58-.39,1-.39.27,0,.52.1.73.29.19.2.29.44.29.75,0,.21-.05.39-.15.54-.08.15-.19.26-.29.33-.11.07-.29.16-.52.28-.23.11-.4.21-.53.29-.18.13-.32.26-.42.42-.08.15-.15.29-.16.42-.02.13-.02.33-.02.56v1.39h2.09v-.72c0-.26.03-.47.08-.62.05-.15.16-.26.36-.34,1.44-.62,2.15-1.47,2.15-2.55,0-.88-.36-1.62-1.07-2.19-.71-.59-1.55-.87-2.54-.87-.53,0-1,.08-1.42.24-.42.16-.76.36-.99.57-.23.23-.42.47-.58.72-.15.24-.24.46-.29.6-.06.15-.08.23-.08.28l1.86.9c.08-.34.26-.64.5-.91Z"/>
      </g>
      <path class="cls-13" d="M217.18,24.42l-7.64,3.76c-.38.19-.93.09-1.22-.21l-4.08-4.21c-.29-.3-.56-.21-.6.21l-.49,5.16c-.04.42.26.69.68.61l6.1-1.26c.41-.09,1.06-.02,1.45.15l.16.07c.39.17.92.57,1.18.9l.13.17c.26.33.45.94.42,1.36l-.02.29c-.03.42-.22,1.06-.43,1.43l-.11.19c-.21.37-.72.74-1.13.83l-3.7.84-12.74-2.79c-.41-.09-.43-.03-.04.13l8,3.3c.32.13.79.32,1.17.47.48.21.93.77.7,1.53-.23.76-1.15.79-1.56.7l-4.34-.99c-.41-.09-1.08-.09-1.49,0l-4.34.99c-.74.17-1.44-.34-1.55-.75-.11-.41-.08-1.17.53-1.41.34-.13.28-.32-.13-.41l-7.02-1.6c-.41-.09-.92-.47-1.13-.83l-.11-.19c-.21-.37-.4-1.01-.43-1.43l-.02-.29c-.03-.42.16-1.03.42-1.36l.13-.17c.26-.33.79-.74,1.18-.9l.16-.07c.39-.17,1.04-.24,1.45-.15l6.1,1.26c.41.09.72-.19.68-.61l-.49-5.16c-.04-.42-.31-.51-.61-.21l-4.08,4.21c-.29.3-.84.4-1.22.21l-7.64-3.76c-.38-.19-.72-.69-.57-1.07.19-.48.75-.51,1.15-.37l6.29,2.03c.4.14.64-.04.81-.25l3.03-4.48s1.27-1.82,3.06-2.6c.72-.3,1.51-.5,2.21-.63.91-.17,2.33-.23,3.13-.25.24,0,2.6.09,3.74.44,1.83.58,2.64,1.38,3.04,1.81.62.67,1.29,1.45,1.29,1.45l2.87,4.25c.24.35.75.52,1.15.37l6.27-2.26c.4-.14.77.07.83.47.06.4-.19.88-.57,1.07ZM198.42,6.6c-2.59,0-4.69,2.1-4.69,4.69s2.1,4.69,4.69,4.69,4.69-2.1,4.69-4.69-2.1-4.69-4.69-4.69Z"/>
      <g class="cls-27">
        <path class="cls-15" d="M264.42,24.55s1.52.65,3.16,1.74c0,0-1.31,1.97-2.07,9.02-.33,3.1-.31,7.43-.44,12.58,0,0-.83,1.33-6.07,1.33s-6.07-1.33-6.07-1.33c-.13-5.3-.1-9.4-.45-12.53-.75-6.84-2.06-9.07-2.06-9.07,1.64-1.08,3.16-1.74,3.16-1.74h10.85Z"/>
        <polygon class="cls-14" points="255.83 28 253.95 31.35 258.04 35.56 255.83 28"/>
        <polygon class="cls-14" points="254.19 24.55 252.81 29.51 256.28 30.45 254.19 24.55"/>
        <path class="cls-15" d="M265.07,47.89c.13-5.3.1-9.45.44-12.58.75-6.84,2.07-9.02,2.07-9.02-1.64-1.08-3.16-1.74-3.16-1.74h-5.42v24.67c5.25,0,6.07-1.33,6.07-1.33Z"/>
        <polygon class="cls-14" points="262.11 28 263.99 31.35 259.9 35.56 262.11 28"/>
        <polygon class="cls-14" points="263.75 24.55 265.13 29.51 261.66 30.45 263.75 24.55"/>
        <polygon class="cls-13" points="263.3 25.78 258.95 38.19 254.68 25.78 258.95 24.04 263.3 25.78"/>
        <path class="cls-4" d="M260.52,24.67l-1.55,1.63-1.56-1.64-2.74,1.12.47,1.35,1.37,1.8,1.43-1.5c.04.55.49.98,1.05.98s.99-.41,1.05-.94l1.38,1.45,1.42-1.87.45-1.28-2.78-1.11Z"/>
        <polygon class="cls-16" points="257.98 35.38 258.95 38.19 260.02 35.13 259.36 27.02 258.62 27.02 257.98 35.38"/>
        <g>
          <path class="cls-14" d="M263.76,45.99l-2.63.55c-.4.08-.78-.2-.78-.58v-2.88l3.91-.82v3.15c0,.28-.21.52-.5.58Z"/>
          <polygon class="cls-14" points="264.59 42.63 260.02 43.58 260.02 42.63 264.59 41.67 264.59 42.63"/>
        </g>
        <g>
          <path class="cls-14" d="M254.22,45.99l2.63.55c.4.08.78-.2.78-.58v-2.88l-3.91-.82v3.15c0,.28.21.52.5.58Z"/>
          <polygon class="cls-14" points="253.38 42.63 257.96 43.58 257.96 42.63 253.38 41.67 253.38 42.63"/>
        </g>
        <path class="cls-25" d="M265.26,26.82c-.1-3.39-2.9-6.13-6.31-6.13h0c-3.47,0-6.31,2.84-6.31,6.31v2.88"/>
        <polygon class="cls-6" points="262.82 24.87 258.99 26.84 255.07 24.87 256.35 17.5 261.54 17.5 262.82 24.87"/>
        <polygon class="cls-3" points="258.97 25.46 255.63 21.64 255.07 24.87 258.99 26.84 262.82 24.87 262.26 21.64 258.97 25.46"/>
        <path class="cls-16" d="M260.05,26.84c0,.58-.47,1.06-1.06,1.06s-1.06-.47-1.06-1.06.47-1.06,1.06-1.06,1.06.47,1.06,1.06Z"/>
        <path class="cls-3" d="M261.54,17.5h-5.18l-.62,3.56c.5.58.98,1.1,1.25,1.33.52.43,1.74.4,1.74.4,0,0,1.23.03,1.74-.4.34-.28.98-1.01,1.61-1.74l-.55-3.15Z"/>
        <g>
          <path class="cls-3" d="M254.18,13.26c.22,1.14-.19,2.18-.93,2.32-.73.14-1.6-1.09-1.82-2.22-.22-1.14.27-1.75,1.01-1.9.73-.14,1.51.66,1.74,1.8Z"/>
          <path class="cls-3" d="M263.9,13.26c-.22,1.14.19,2.18.93,2.32.73.14,1.6-1.09,1.82-2.22.22-1.14-.27-1.75-1.01-1.9-.73-.14-1.51.66-1.74,1.8Z"/>
          <path class="cls-6" d="M258.99,4.85c3.5,0,6.28,3.36,6.28,7.5,0,0-.5,3.57-1.32,5.45,0,0-2.43,3.02-3.21,3.67-.52.43-1.74.4-1.74.4h0s-1.23.03-1.74-.4c-.78-.65-3.21-3.67-3.21-3.67-.83-1.88-1.32-5.45-1.32-5.45,0-4.14,2.78-7.5,6.28-7.5Z"/>
          <path class="cls-2" d="M254.12,6.49c-2.75,4.01-1.06,7.95-1.06,7.95,0,0,.28-3.71,3.07-5.53l-2.01-2.42Z"/>
          <path class="cls-19" d="M264.91,14.43s-.28-3.71-3.07-5.53c0,0-6.5,4.08-11.34.45,0,0,1.62-.56,2.95-2.8,1.92-3.22,7.64-4.08,10.4-.08s1.06,7.95,1.06,7.95Z"/>
        </g>
        <polygon class="cls-13" points="255.54 22.17 258.99 25.81 256.51 28.41 253.57 24.55 255.54 22.17"/>
        <polygon class="cls-13" points="262.4 22.17 258.95 25.81 261.43 28.41 264.37 24.55 262.4 22.17"/>
        <g>
          <path class="cls-25" d="M265.36,31.37l.74-1.58c.55-1.17.04-2.58-1.13-3.13-1.17-.55-2.58-.04-3.13,1.13l-.55,1.18"/>
          <g>
            <path class="cls-22" d="M260.75,29.74h0c-.11-.07-.14-.22-.07-.33l.41-.62c.07-.11.22-.14.33-.07h0c.11.07.14.22.07.33l-.41.62c-.07.11-.22.14-.33.07Z"/>
            <path class="cls-17" d="M261.28,28.93l.37.24c.17.11.21.33.1.5h0c-.11.17-.33.21-.5.1l-.37-.24.4-.61Z"/>
          </g>
          <g>
            <path class="cls-22" d="M265.5,31.14h0c.11.07.14.22.07.33l-.41.62c-.07.11-.22.14-.33.07h0c-.11-.07-.14-.22-.07-.33l.41-.62c.07-.11.22-.14.33-.07Z"/>
            <path class="cls-17" d="M264.96,31.95l-.37-.24c-.17-.11-.21-.33-.1-.5h0c.11-.17.33-.21.5-.1l.37.24-.4.61Z"/>
          </g>
        </g>
        <path class="cls-12" d="M258.99,40.53c-2.18,0-4.28-.34-6.25-.96.08,2.37.1,5.13.18,8.32,0,0,.83,1.33,6.07,1.33s6.07-1.33,6.07-1.33c.08-3.1.1-5.9.18-8.32-1.97.63-4.07.96-6.26.96Z"/>
      </g>
      <g>
        <path class="cls-13" d="M317.4,18.51h2.07c1.03,0,1.88-.84,1.88-1.88v-2.07c0-1.03-.84-1.88-1.88-1.88h-2.07c-1.03,0-1.88.84-1.88,1.88v2.07c0,1.03.84,1.88,1.88,1.88ZM316.64,15.14h1.34v-1.34h.91v1.34h1.34v.91h-1.34v1.34h-.91v-1.34h-1.34v-.91Z"/>
        <path class="cls-13" d="M334.99,22.14h-7.68v18.52h-.94v-20.87c0-1.29-1.06-2.35-2.35-2.35h-2.34c-.33.9-1.19,1.54-2.2,1.54h-2.07c-1.01,0-1.87-.64-2.2-1.54h-2.34c-1.29,0-2.35,1.06-2.35,2.35v20.87h-.94v-18.52h-7.68c-1.29,0-2.35,1.06-2.35,2.35v16.9h37.81v-16.9c0-1.29-1.06-2.35-2.35-2.35ZM301.98,24.74h5.15v3.36h-5.15v-3.36ZM301.98,30.09h5.15v3.36h-5.15v-3.36ZM301.98,35.43h5.15v3.36h-5.15v-3.36ZM321.76,23.11h3.04v3.04h-3.04v-3.04ZM321.76,27.97h3.04v3.04h-3.04v-3.04ZM316.92,23.11h3.04v3.04h-3.04v-3.04ZM316.92,27.97h3.04v3.04h-3.04v-3.04ZM312.08,23.11h3.04v3.04h-3.04v-3.04ZM312.08,27.97h3.04v3.04h-3.04v-3.04ZM314.72,40.66v-6.77c0-.31.25-.56.56-.56h6.32c.31,0,.56.25.56.56v6.77h-7.45ZM329.75,24.74h5.15v3.36h-5.15v-3.36ZM329.75,30.09h5.15v3.36h-5.15v-3.36ZM329.75,35.43h5.15v3.36h-5.15v-3.36Z"/>
      </g>
    </g>
  </g>
</svg>