<?xml version="1.0" encoding="UTF-8"?>
<svg id="Layer_1" data-name="Layer 1" xmlns="http://www.w3.org/2000/svg" viewBox="0 0 38.16 37.53">
  <defs>
    <style>
      .cls-1 {
        fill: #213469;
        opacity: .08;
      }

      .cls-1, .cls-2, .cls-3, .cls-4 {
        stroke-width: 0px;
      }

      .cls-2 {
        fill: #f0f6f8;
      }

      .cls-3 {
        fill: #38b5a9;
      }

      .cls-4 {
        fill: #fff;
      }
    </style>
  </defs>
  <polygon class="cls-2" points="29.08 26.42 26.83 28.67 23.28 25.12 21.66 23.49 23.91 21.24 25.6 22.93 29.08 26.42"/>
  <path class="cls-1" d="M25.6,22.93c-.71,1.19-1.64,1.84-2.32,2.18l-1.62-1.62,2.25-2.25,1.69,1.69Z"/>
  <path class="cls-3" d="M13.77,27.54c7.61,0,13.77-6.17,13.77-13.77S21.38,0,13.77,0,0,6.17,0,13.77s6.17,13.77,13.77,13.77Z"/>
  <path class="cls-4" d="M13.77,25.48c6.47,0,11.71-5.24,11.71-11.71S20.24,2.06,13.77,2.06,2.06,7.3,2.06,13.77s5.24,11.71,11.71,11.71Z"/>
  <path class="cls-1" d="M25.37,15.37c-.24,1.75-.87,3.42-1.85,4.88-.98,1.47-2.27,2.7-3.79,3.59-1.52.9-3.22,1.44-4.97,1.59-1.76.15-3.52-.1-5.17-.73-1.65-.63-3.13-1.62-4.34-2.91-1.21-1.28-2.11-2.82-2.64-4.5-.53-1.68-.68-3.46-.42-5.2.25-1.74.9-3.41,1.88-4.87-.07.53-.11,1.07-.11,1.6,0,2.51.8,4.95,2.3,6.97,1.49,2.02,3.59,3.5,5.99,4.23,2.4.73,4.97.68,7.33-.16,2.36-.84,4.4-2.41,5.8-4.49Z"/>
  <path class="cls-3" d="M25.42,27.4l2.61-2.61c.25-.25.58-.38.92-.38s.68.14.92.38l7.38,7.38c.58.58.91,1.37.91,2.19s-.33,1.61-.91,2.19l-.08.08c-.58.58-1.37.91-2.19.91s-1.61-.33-2.19-.91l-7.38-7.38c-.12-.12-.22-.27-.28-.42-.07-.16-.1-.33-.1-.5,0-.17.03-.34.1-.5.07-.16.16-.3.28-.42Z"/>
  <path class="cls-3" d="M37.26,36.54l-.08.08c-.58.58-1.37.91-2.19.91s-1.61-.33-2.19-.91l-7.37-7.37c-.12-.12-.22-.27-.28-.42-.07-.16-.1-.33-.1-.5s.03-.34.1-.5c.07-.16.16-.3.28-.42l.72-.72c1.82,2.75,6.5,8.33,11.06,5.43l.05.06c.58.58.91,1.37.91,2.19,0,.82-.33,1.61-.91,2.19Z"/>
</svg>