<?xml version="1.0" encoding="UTF-8"?>
<svg id="Layer_1" data-name="Layer 1" xmlns="http://www.w3.org/2000/svg" viewBox="0 0 38.44 35.63">
  <defs>
    <style>
      .cls-1 {
        fill: #38b5a9;
        stroke-width: 0px;
      }
    </style>
  </defs>
  <g id="_1023_Cardiogram_Heart_Care_Heart_Health" data-name="1023, Cardiogram, Heart Care, Heart Health">
    <g>
      <path class="cls-1" d="M2.5,10.99c.46,0,.83.37.83.83s-.37.83-.83.83-.83-.37-.83-.83.37-.83.83-.83Z"/>
      <path class="cls-1" d="M36.12,18.36c-.71,0-1.35.25-1.8.83l-1.6,1.84c-1.09,1.21-2.63,1.91-4.3,1.91h-.51c-3.21,0-6.99,3.05-6.99,6.92v4.19h-3.21v-4.19c0-3.81-3.14-6.92-6.99-6.92h-.51c-1.67,0-3.21-.7-4.3-1.91l-1.67-1.84c-.45-.51-1.09-.83-1.8-.83-1.35,0-2.44,1.02-2.44,2.35,0,.57.19,1.14.58,1.59l4.04,4.51c1.41,1.52,3.4,2.41,5.52,2.41.58,0,1.09.44,1.09,1.08v3.68h-2.44c-.45,0-.83.38-.83.83s.38.83.83.83h20.85c.45,0,.83-.38.83-.83s-.38-.83-.83-.83h-2.44v-3.68c0-.57.45-1.08,1.09-1.08,2.12,0,4.11-.89,5.52-2.41l4.04-4.51c.38-.44.58-1.02.58-1.59.13-1.27-.96-2.35-2.31-2.35ZM12.89,34.05v-3.68c0-1.46-1.22-2.67-2.69-2.67-1.67,0-3.21-.7-4.3-1.91l-4.04-4.51c-.13-.13-.19-.32-.19-.51,0-.7.9-1.08,1.41-.51l1.67,1.84c1.41,1.52,3.4,2.41,5.52,2.41h.51c2.95,0,5.39,2.41,5.39,5.34v4.19h-3.27ZM36.76,21.28l-4.04,4.51c-1.09,1.21-2.63,1.91-4.3,1.91-1.48,0-2.69,1.21-2.69,2.67v3.68h-3.21v-4.19c0-1.33.64-2.67,1.8-3.75,1.09-1.02,2.44-1.59,3.59-1.59h.51c2.12,0,4.11-.89,5.52-2.41l1.67-1.84c.51-.57,1.41-.19,1.41.51-.06.19-.13.38-.26.51Z"/>
      <path class="cls-1" d="M4.88,11.05c-.45,0-.83.38-.83.83s.38.83.83.83h3.59c2.37,2.86,6.41,5.21,10.33,9.15.32.32.83.32,1.15,0,4.3-4.26,8.66-6.67,10.97-9.91h2.12c.45,0,.83-.38.83-.83s-.38-.83-.83-.83h-1.22c.45-1.02.71-2.16.71-3.43,0-3.81-3.14-6.86-6.93-6.86-3.08,0-4.75,1.46-6.16,3.68-1.35-2.29-3.08-3.68-6.16-3.68-3.85,0-6.93,3.11-6.93,6.86,0,1.65.38,2.99,1.09,4.26h-2.57v-.06ZM19.37,20.07c-3.34-3.18-6.54-5.27-8.72-7.43h4.68c.32,0,.64-.19.77-.57l.71-2.16,1.73,6.86c.06.32.38.57.77.57s.71-.25.77-.57l1.41-4.95h7.31c-2.12,2.48-5.77,4.7-9.43,8.26ZM7.83,6.8c0-2.92,2.37-5.27,5.32-5.27,2.5,0,3.85,1.02,5.45,4.13.32.57,1.15.57,1.41,0,1.54-3.11,2.95-4.13,5.45-4.13,2.95,0,5.32,2.35,5.32,5.27,0,1.33-.32,2.41-.9,3.43h-8.98c-.38,0-.64.25-.77.57l-.77,2.73-1.67-6.67c-.06-.32-.38-.57-.77-.57s-.71.19-.77.57l-1.41,4.19h-5.45c-.96-1.27-1.48-2.6-1.48-4.26Z"/>
    </g>
  </g>
</svg>