<?xml version="1.0" standalone="no"?>
<!DOCTYPE svg PUBLIC "-//W3C//DTD SVG 20010904//EN"
 "http://www.w3.org/TR/2001/REC-SVG-20010904/DTD/svg10.dtd">
<svg version="1.0" xmlns="http://www.w3.org/2000/svg"
 width="570.000000pt" height="450.000000pt" viewBox="0 0 570.000000 450.000000"
 preserveAspectRatio="xMidYMid meet">

<g transform="translate(0.000000,450.000000) scale(0.100000,-0.100000)"
fill="#000000" stroke="none">
<path d="M4129 4461 c-43 -5 -64 -13 -93 -38 -23 -21 -47 -33 -66 -33 -22 0
-33 -8 -50 -35 -12 -19 -28 -35 -35 -35 -8 0 -17 -9 -20 -20 -3 -11 -13 -20
-21 -20 -10 0 -14 -11 -13 -37 0 -31 2 -34 9 -18 5 11 9 14 9 7 1 -7 -4 -23
-11 -35 -13 -24 -20 -144 -12 -190 5 -21 9 -25 19 -17 10 8 14 2 20 -27 6 -34
31 -90 46 -103 3 -3 3 -16 -1 -30 -5 -22 -7 -23 -13 -6 -10 26 -37 3 -29 -26
9 -35 -22 -15 -35 23 -11 31 -12 32 -12 8 -1 -14 10 -43 24 -63 14 -20 25 -41
25 -45 0 -5 11 -6 24 -4 33 7 38 -8 14 -45 -25 -41 -36 -40 -40 1 l-3 32 -17
-35 c-30 -60 -64 -94 -85 -86 -10 4 -20 7 -23 7 -9 -1 -7 -25 3 -39 7 -9 5
-11 -9 -6 -38 14 -75 46 -120 105 -25 33 -61 75 -80 93 -18 18 -45 59 -60 92
-14 32 -27 61 -29 62 -2 2 -28 -13 -58 -35 -63 -44 -95 -82 -79 -92 11 -7 -6
-93 -23 -122 -5 -6 -9 -32 -10 -57 -2 -24 -11 -82 -21 -128 -9 -46 -15 -86
-13 -88 2 -2 241 -6 532 -9 l527 -5 15 29 c9 16 12 29 8 29 -4 0 -2 5 5 12 7
7 12 21 12 31 0 15 -5 18 -23 13 -30 -7 -336 -10 -343 -3 -3 3 11 40 32 81 29
60 43 78 63 82 14 3 42 9 61 14 19 5 54 11 77 15 23 3 57 14 75 24 18 11 49
22 68 26 70 14 200 125 200 171 0 7 12 35 26 64 21 42 25 61 21 108 -4 57 -7
69 -32 127 -7 17 -15 39 -17 49 -1 11 -9 21 -17 24 -8 3 -11 0 -7 -7 4 -6 4
-11 1 -11 -3 0 -15 20 -25 44 -23 51 -97 129 -117 122 -7 -3 -13 -1 -13 4 0 5
-12 13 -27 16 -16 4 -32 10 -38 14 -9 7 -28 11 -96 23 -13 3 -49 2 -80 -2z"/>
<path d="M2024 4421 c-17 -4 -37 -12 -45 -16 -7 -5 -32 -11 -54 -13 -65 -5
-147 -70 -183 -143 -26 -55 -27 -72 -6 -90 16 -13 16 -56 -2 -166 -8 -54 23
-159 78 -264 44 -87 55 -98 118 -123 25 -10 64 -27 87 -38 47 -21 124 -26 164
-10 26 10 99 90 99 108 0 4 12 18 26 29 54 43 76 222 40 323 -13 36 -13 42 -1
42 11 0 15 14 15 57 0 43 5 62 21 79 l20 21 -27 -5 c-25 -5 -26 -3 -20 24 4
16 10 47 13 69 l5 40 -25 -23 c-21 -20 -25 -21 -31 -7 -4 11 -2 14 6 9 24 -15
-28 44 -57 65 -25 18 -31 19 -33 6 -4 -19 -22 -20 -22 0 0 8 -6 15 -14 15 -8
0 -16 5 -18 11 -2 7 -12 7 -28 1 -14 -5 -34 -6 -45 -1 -24 9 -40 9 -81 0z"/>
<path d="M2795 3808 c-2 -7 -5 -24 -8 -38 -3 -14 -12 -52 -21 -85 -9 -32 -16
-85 -16 -115 0 -67 -19 -170 -31 -170 -5 0 -9 -4 -9 -10 0 -6 26 -10 59 -10
52 0 59 2 65 23 11 41 5 212 -10 287 -9 41 -15 87 -15 103 0 28 -7 36 -14 15z"/>
<path d="M2322 3656 c-6 -13 -31 -41 -56 -62 -25 -20 -43 -41 -40 -45 7 -12
114 97 114 116 0 21 -5 19 -18 -9z"/>
<path d="M2362 3605 c-1 -16 -5 -41 -8 -55 -5 -22 -4 -23 6 -7 6 9 9 34 7 55
-3 32 -4 33 -5 7z"/>
<path d="M2472 3600 c-7 -11 -8 -20 -2 -20 5 0 14 9 20 20 6 11 7 20 3 20 -5
0 -14 -9 -21 -20z"/>
<path d="M2011 3504 c11 -27 26 -56 34 -64 7 -8 15 -24 17 -35 3 -19 12 -20
128 -22 l125 -3 -24 20 c-18 16 -27 18 -37 9 -17 -14 -19 2 -2 19 8 8 6 16
-11 29 -13 10 -26 34 -30 53 -6 30 -10 34 -32 30 -38 -8 -131 -5 -162 4 l-27
8 21 -48z"/>
<path d="M2250 3488 c0 -19 2 -20 10 -8 13 19 13 30 0 30 -5 0 -10 -10 -10
-22z"/>
<path d="M2300 3480 c0 -5 4 -10 9 -10 6 0 13 5 16 10 3 6 -1 10 -9 10 -9 0
-16 -4 -16 -10z"/>
<path d="M3022 3375 c-37 -16 -40 -22 -45 -91 -3 -37 -14 -68 -41 -112 -59
-98 -82 -182 -55 -209 8 -8 8 -25 0 -63 -15 -67 -14 -80 4 -80 8 0 15 7 15 15
0 8 5 15 10 15 14 0 13 -5 -14 -44 -15 -23 -22 -44 -19 -60 6 -28 19 -34 26
-13 3 9 8 9 22 -3 16 -13 21 -11 52 25 19 22 51 70 72 108 l38 68 16 -41 c8
-22 19 -40 24 -40 4 0 21 53 36 118 27 115 36 222 18 222 -5 0 -7 10 -4 23 4
17 1 15 -12 -8 -10 -18 -17 -52 -18 -85 0 -67 -20 -104 -48 -89 -14 7 -19 6
-19 -3 0 -7 -14 1 -30 19 -18 20 -31 27 -34 20 -3 -9 -8 -8 -15 3 -6 8 -8 22
-5 30 15 36 21 90 10 90 -6 0 -3 7 7 14 9 7 17 21 17 31 0 10 8 24 18 31 11 8
12 13 4 14 -9 0 -8 7 4 25 16 24 16 25 -2 18 -17 -6 -17 -5 -5 10 10 13 10 17
1 17 -10 0 -10 3 0 15 14 17 95 22 85 5 -3 -5 -1 -10 4 -10 6 0 11 -10 11 -21
0 -17 -3 -19 -13 -10 -11 8 -19 6 -35 -8 -27 -23 -27 -27 -3 -27 11 0 18 3 15
7 -2 4 8 7 21 7 19 0 25 -6 25 -22 0 -11 5 -28 11 -36 7 -11 9 2 4 45 -4 33
-14 68 -22 78 -20 21 -84 22 -131 2z m-37 -250 c-9 -20 -19 -35 -22 -31 -3 3
2 22 12 41 22 47 30 39 10 -10z m-31 -199 c-3 -9 -10 -16 -15 -16 -6 0 -5 9 1
21 13 24 24 20 14 -5z"/>
<path d="M3031 3115 c0 -11 4 -29 9 -40 8 -18 9 -18 9 5 0 14 -4 32 -9 40 -8
12 -10 12 -9 -5z"/>
<path d="M3070 3081 c0 -5 5 -13 10 -16 6 -3 10 -2 10 4 0 5 -4 13 -10 16 -5
3 -10 2 -10 -4z"/>
<path d="M330 3021 c-25 -9 -52 -20 -60 -26 -8 -5 -22 -10 -30 -12 -16 -2 -54
-41 -81 -82 l-15 -24 -33 19 c-32 19 -32 19 -69 -2 l-37 -22 -3 -105 c-2 -98
-1 -108 22 -141 17 -26 26 -56 31 -104 9 -95 53 -230 88 -267 l28 -30 -20 42
c-26 53 -27 104 -2 127 15 13 20 14 24 4 4 -8 6 -7 6 5 1 19 16 23 26 7 11
-18 35 -10 35 12 0 12 9 32 21 44 18 19 23 20 47 9 104 -50 98 -49 180 -35 80
14 189 50 230 76 30 20 41 10 17 -16 -22 -24 -18 -25 26 -6 44 18 65 43 74 84
4 18 14 36 23 39 54 17 72 27 72 42 0 12 -10 16 -40 17 -37 2 -40 0 -49 -33
-8 -29 -57 -113 -66 -113 -1 0 0 20 2 45 5 41 3 45 -16 45 -21 0 -21 1 -6 30
33 64 3 150 -80 230 -26 25 -58 62 -71 82 -13 21 -39 45 -56 55 -44 23 -159
25 -218 4z m-210 -151 c12 -8 11 -10 -7 -10 -13 0 -23 5 -23 10 0 13 11 13 30
0z"/>
<path d="M3920 2888 c0 -21 -37 -33 -55 -18 -11 9 -24 7 -60 -11 -48 -24 -65
-39 -45 -39 7 0 10 -7 6 -15 -3 -8 -1 -15 4 -15 5 0 7 -6 4 -13 -3 -8 -6 -27
-7 -43 -2 -22 -12 -34 -42 -51 -39 -22 -40 -22 -60 -3 -12 11 -27 20 -34 20
-17 0 -5 39 21 67 20 21 20 21 -4 34 -32 19 -228 19 -228 1 0 -7 4 -11 9 -8 5
3 11 -3 14 -13 4 -15 17 -21 63 -26 80 -9 84 -11 84 -39 0 -23 -87 -162 -131
-212 -11 -11 -19 -25 -19 -32 0 -6 -7 -15 -17 -20 -20 -12 -10 -44 12 -36 8 3
15 1 15 -5 0 -16 31 -13 54 4 11 8 26 15 34 15 17 0 147 90 216 150 97 83 105
89 108 78 3 -8 15 -7 41 1 29 10 37 18 37 37 0 28 -21 31 -64 9 -35 -19 -36
-19 -36 1 0 8 4 13 9 9 10 -6 62 14 72 29 4 5 12 -1 18 -13 8 -14 20 -20 37
-19 28 3 28 10 -6 102 -24 62 -49 101 -50 74z m-195 -258 c-20 -22 -31 -20
-22 5 4 8 14 15 23 15 16 0 16 -2 -1 -20z"/>
<path d="M816 2850 c9 -19 20 -46 25 -60 7 -24 7 -23 8 7 1 21 -8 41 -25 60
l-25 28 17 -35z"/>
<path d="M2344 2768 l-29 -33 33 29 c30 28 37 36 29 36 -2 0 -16 -15 -33 -32z"/>
<path d="M2551 2762 c-21 -3 -23 -7 -18 -46 5 -35 3 -44 -14 -54 -11 -7 -28
-10 -38 -7 -12 3 -21 0 -25 -10 -7 -20 -26 -19 -42 3 -13 16 -13 16 -14 0 0
-21 -20 -24 -38 -6 -8 8 -12 8 -12 1 0 -6 6 -15 13 -20 24 -19 128 -73 141
-73 8 0 19 -6 25 -14 9 -10 8 -16 -4 -26 -8 -7 -15 -9 -15 -5 0 4 -7 2 -15 -5
-17 -14 -20 -40 -4 -40 6 0 17 -7 25 -15 9 -8 12 -15 7 -15 -5 0 -14 5 -21 12
-9 9 -12 9 -12 0 0 -7 15 -22 34 -33 37 -22 51 -61 32 -92 -8 -15 -8 -21 2
-24 14 -5 17 -33 3 -33 -5 0 -16 7 -25 15 -8 8 -27 15 -43 15 -16 0 -34 5 -40
11 -7 7 -22 9 -40 3 -38 -11 -65 -11 -80 -1 -7 5 -19 4 -28 -1 -17 -9 20 -16
180 -37 62 -8 119 -31 110 -45 -9 -15 -45 -12 -51 4 -4 9 -16 12 -40 9 -24 -3
-41 0 -53 12 -17 15 -19 15 -25 -1 -5 -12 -14 -15 -39 -10 -70 15 -110 18
-104 9 4 -6 -12 -7 -41 -2 -26 4 -54 3 -62 -2 -17 -9 -17 -9 50 -15 19 -1 36
-6 37 -11 2 -5 34 -7 71 -6 52 3 63 1 49 -8 -18 -10 -81 -9 -157 5 -24 4 -29
3 -15 -3 11 -5 29 -18 39 -30 17 -19 17 -21 3 -15 -13 5 -16 2 -11 -10 4 -10
18 -16 38 -16 23 0 27 3 16 10 -27 17 2 29 50 20 24 -4 59 -6 77 -3 28 5 34 2
42 -18 5 -13 7 -27 5 -30 -2 -4 7 -18 21 -33 15 -16 19 -26 11 -26 -8 0 -24
-9 -37 -19 l-24 -19 29 5 c32 6 31 3 -10 -53 -27 -34 -58 -104 -50 -111 2 -3
12 10 21 29 22 42 116 168 127 168 13 0 9 -28 -7 -43 -7 -8 -17 -27 -21 -42
-4 -15 -17 -30 -31 -36 -16 -6 -23 -16 -22 -31 4 -41 -1 -66 -14 -80 -16 -16
-42 -74 -51 -110 -7 -32 5 -35 44 -13 48 27 44 15 -10 -35 -54 -50 -54 -50
-20 -39 19 7 50 25 69 40 19 16 38 26 43 23 4 -3 11 2 14 10 10 25 23 19 32
-16 4 -17 14 -34 21 -36 10 -3 11 2 5 19 -4 13 -10 51 -13 84 -8 76 -24 81
-85 25 -24 -22 -47 -37 -50 -32 -5 9 13 77 35 127 24 55 41 76 53 67 6 -5 30
-12 54 -16 36 -5 42 -4 42 11 0 23 17 49 26 41 3 -4 7 -20 9 -36 1 -16 6 -35
10 -41 4 -7 -1 -21 -10 -31 -16 -17 -15 -19 4 -30 17 -9 22 -8 27 5 3 8 10 12
16 9 5 -4 8 22 7 65 -1 39 1 74 4 77 11 12 28 -8 22 -27 -4 -11 0 -26 9 -35
20 -20 20 -51 1 -71 -16 -15 -11 -38 6 -28 5 4 9 -16 9 -44 0 -61 18 -78 22
-21 4 48 24 54 22 7 -3 -70 -4 -73 -26 -74 -12 -1 -28 3 -34 8 -9 7 -16 5 -23
-9 -13 -24 6 -47 25 -31 15 12 37 3 29 -12 -4 -5 1 -9 9 -9 9 0 17 8 17 18 1
9 5 -1 8 -23 6 -37 7 -38 18 -19 7 11 15 54 18 95 7 67 5 77 -15 102 -16 20
-25 25 -30 17 -5 -9 -10 -5 -15 10 -4 13 -3 25 4 30 7 3 9 14 6 23 -5 12 3 19
33 27 33 10 40 18 48 49 8 32 12 36 42 36 35 0 45 -13 87 -107 23 -51 98 -129
114 -118 9 5 10 9 2 14 -17 11 -51 82 -51 107 0 12 10 30 21 40 24 21 51 13
69 -21 9 -16 21 -20 65 -20 30 0 55 4 55 9 0 5 -17 7 -39 4 -33 -5 -39 -2 -44
16 -3 14 0 21 10 21 10 0 14 9 11 33 -3 29 -1 32 22 30 14 -1 17 1 8 3 -9 3
-20 14 -23 25 -4 10 -11 19 -16 19 -5 0 1 11 13 25 12 14 32 25 46 25 13 0 30
7 39 15 19 19 49 15 46 -6 -2 -10 11 -19 40 -26 60 -16 105 -2 191 60 38 27
90 58 115 69 25 10 47 21 49 23 2 2 -6 33 -18 69 l-21 65 -52 -20 c-29 -11
-53 -25 -55 -30 -2 -5 -13 -9 -25 -10 -24 -1 -18 -4 27 -14 23 -5 27 -8 15
-16 -12 -8 -12 -10 1 -19 13 -8 13 -11 1 -22 -10 -10 -12 -10 -7 0 4 6 4 12 1
12 -9 0 -35 -27 -35 -37 0 -14 -49 -32 -56 -21 -4 7 -9 6 -13 -1 -12 -18 -113
-35 -146 -25 -27 8 -25 9 24 12 41 2 61 9 78 27 23 23 24 23 4 30 -11 3 -34
-1 -53 -11 -38 -20 -87 -21 -100 -2 -7 10 -11 9 -19 -4 -11 -20 -63 -25 -57
-6 6 16 41 26 95 27 46 1 123 28 123 42 0 12 -13 12 -25 0 -6 -5 -31 -12 -58
-16 -40 -6 -46 -5 -41 8 5 14 40 22 137 30 15 1 27 5 27 9 0 4 15 12 33 17 29
9 27 10 -23 9 -57 -2 -122 -17 -116 -27 2 -3 -18 -7 -46 -8 -57 -1 -66 -7 -48
-28 11 -13 8 -15 -18 -15 -17 0 -32 5 -34 12 -3 7 -13 2 -26 -12 -12 -13 -22
-20 -22 -14 0 5 -4 3 -9 -5 -7 -10 -5 -19 6 -26 13 -10 9 -15 -26 -33 -34 -18
-45 -20 -68 -10 -16 6 -31 11 -34 10 -4 -1 -5 13 -3 29 4 30 3 30 -31 26 -19
-3 -35 -1 -35 4 0 5 -9 9 -20 9 -18 0 -20 -7 -21 -57 -1 -32 -1 -61 0 -65 0
-4 -12 -6 -28 -6 -38 1 -48 -7 -56 -42 -5 -25 -12 -30 -35 -30 -41 0 -43 23
-4 61 l34 33 -2 117 -2 116 -32 12 c-18 6 -35 18 -38 27 -7 20 37 64 64 64 18
0 20 6 20 65 l0 65 -58 0 c-51 0 -58 -2 -59 -21 -4 -45 -49 -64 -88 -35 -12 8
-16 20 -12 34 3 12 1 25 -4 28 -5 3 -15 20 -23 37 -20 48 -86 104 -115 99z
m34 -12 c3 -5 1 -10 -4 -10 -6 0 -11 5 -11 10 0 6 2 10 4 10 3 0 8 -4 11 -10z
m11 -95 c18 -15 18 -15 -10 -13 -16 2 -31 9 -34 16 -5 17 20 15 44 -3z m-89
-67 c-3 -8 -6 -5 -6 6 -1 11 2 17 5 13 3 -3 4 -12 1 -19z m16 -105 c-6 -14
-33 -18 -33 -5 0 12 8 19 24 19 8 0 12 -6 9 -14z m86 -66 c8 -10 7 -14 -2 -14
-8 0 -14 6 -14 14 0 7 1 13 2 13 2 0 8 -6 14 -13z m-32 -44 c-3 -10 -5 -4 -5
12 0 17 2 24 5 18 2 -7 2 -21 0 -30z m1163 -28 c0 -9 -9 -15 -21 -15 -18 0
-19 2 -9 15 7 8 16 15 21 15 5 0 9 -7 9 -15z m-1110 -5 c0 -5 -7 -10 -16 -10
-8 0 -12 5 -9 10 3 6 10 10 16 10 5 0 9 -4 9 -10z m53 -75 c4 -8 1 -17 -6 -21
-7 -4 -9 -4 -5 1 4 4 3 14 -3 22 -7 8 -8 13 -1 13 5 0 12 -7 15 -15z m-213
-75 c0 -5 -6 -10 -14 -10 -8 0 -18 5 -21 10 -3 6 3 10 14 10 12 0 21 -4 21
-10z m88 -7 c2 -8 -5 -13 -17 -13 -21 0 -35 13 -24 24 10 10 36 3 41 -11z
m712 -13 c0 -5 -7 -10 -15 -10 -8 0 -15 5 -15 10 0 6 7 10 15 10 8 0 15 -4 15
-10z m70 0 c-19 -13 -30 -13 -30 0 0 6 10 10 23 10 18 0 19 -2 7 -10z m-284
-58 c-12 -11 -18 7 -10 30 l8 23 4 -23 c2 -13 1 -26 -2 -30z m-506 -2 c0 -13
-11 -13 -30 0 -12 8 -11 10 8 10 12 0 22 -4 22 -10z m415 1 c-6 -11 -45 -10
-45 1 0 4 12 8 26 8 14 0 23 -4 19 -9z m-175 -11 c0 -5 -7 -10 -16 -10 -8 0
-12 5 -9 10 3 6 10 10 16 10 5 0 9 -4 9 -10z m-263 -16 c-3 -3 -12 -4 -19 -1
-8 3 -5 6 6 6 11 1 17 -2 13 -5z m298 -24 c3 -6 -1 -7 -9 -4 -18 7 -21 14 -7
14 6 0 13 -4 16 -10z m379 -39 c4 -5 -1 -8 -9 -7 -21 3 -31 16 -12 16 9 0 18
-4 21 -9z m-343 -314 c-13 -13 -15 1 -4 30 7 17 8 17 11 -1 2 -10 -1 -23 -7
-29z"/>
<path d="M3730 2720 c0 -5 4 -10 9 -10 6 0 13 5 16 10 3 6 -1 10 -9 10 -9 0
-16 -4 -16 -10z"/>
<path d="M5255 2510 l-40 -7 42 -2 c23 0 45 4 48 9 3 6 3 9 -2 9 -4 -1 -26 -5
-48 -9z"/>
<path d="M5338 2503 c7 -3 16 -2 19 1 4 3 -2 6 -13 5 -11 0 -14 -3 -6 -6z"/>
<path d="M5056 2475 c-15 -14 -38 -50 -52 -80 -21 -44 -24 -63 -19 -100 6 -35
4 -45 -7 -45 -7 0 -21 -17 -30 -37 l-16 -38 -13 47 c-9 32 -19 48 -33 52 -35
9 -36 -4 -6 -47 17 -23 46 -64 64 -92 34 -52 34 -52 171 -91 33 -10 80 -28
104 -41 45 -23 81 -30 81 -14 0 4 24 11 54 14 29 3 72 15 94 26 23 11 47 18
55 15 8 -3 30 8 48 24 19 16 49 33 67 37 21 4 37 16 44 31 6 13 17 24 25 24
10 0 13 25 13 111 0 64 -4 108 -9 105 -5 -4 -8 5 -6 19 3 30 -1 33 -49 40 -28
5 -36 3 -36 -9 0 -8 5 -18 10 -21 22 -14 9 -27 -22 -22 -35 5 -138 46 -160 64
-14 11 -96 27 -228 43 -114 14 -113 14 -144 -15z m498 -116 c-4 -7 0 -9 14 -5
12 4 22 1 25 -7 4 -11 -3 -12 -36 -6 -23 5 -46 9 -52 10 -5 1 4 5 20 9 17 4
31 8 33 9 2 0 0 -4 -4 -10z m75 -80 c-5 -10 -13 -20 -18 -24 -5 -3 -12 -18
-16 -33 -6 -30 -40 -58 -50 -42 -3 6 -18 10 -32 10 -21 0 -23 3 -14 14 9 11 9
15 -1 18 -7 3 11 18 40 35 30 17 48 33 41 35 -6 2 4 4 24 4 31 0 34 -2 26 -17z
m-19 -103 c0 -2 -8 -10 -17 -17 -16 -13 -17 -12 -4 4 13 16 21 21 21 13z"/>
<path d="M1475 2473 c-38 -20 -105 -72 -105 -82 0 -14 51 -11 56 4 4 8 16 15
28 15 27 1 82 45 67 54 -6 4 -9 12 -6 17 9 13 -6 10 -40 -8z"/>
<path d="M2320 2370 c-20 -12 -12 -17 40 -23 25 -3 36 -3 25 0 -11 3 -24 11
-28 19 -9 16 -17 17 -37 4z"/>
<path d="M1800 2306 c47 -24 87 -42 89 -40 9 8 -16 26 -72 54 -97 47 -112 35
-17 -14z"/>
<path d="M4206 2314 l7 -26 -32 16 c-45 24 -52 -2 -12 -42 39 -38 41 -55 5
-42 -14 6 -30 10 -35 10 -17 0 15 -41 49 -61 17 -12 32 -25 32 -30 0 -6 -4 -7
-10 -4 -17 11 -31 -5 -17 -19 30 -31 87 -49 198 -64 73 -10 119 -21 119 -28 0
-6 10 -19 22 -30 l21 -19 -17 27 c-10 15 -15 31 -12 36 7 12 46 23 46 13 0 -3
8 -11 19 -18 16 -10 21 -6 40 28 17 30 19 38 7 33 -9 -3 -16 -14 -16 -23 0
-10 -3 -12 -8 -5 -4 7 -16 14 -27 17 -16 4 -14 5 7 6 28 1 45 16 29 25 -5 4
-12 0 -14 -6 -4 -8 -6 -7 -6 3 -1 9 6 20 15 23 8 3 12 11 8 17 -4 8 -3 9 5 5
9 -6 9 -11 1 -21 -8 -9 -6 -14 6 -19 21 -8 24 -8 24 5 0 5 -6 7 -12 4 -7 -4
-5 0 5 8 18 15 18 16 -4 27 -19 10 -24 10 -34 -4 -17 -22 -30 -20 -78 13 -23
15 -62 35 -87 44 -44 15 -44 15 -12 16 44 1 40 16 -15 51 -49 30 -109 40 -129
20 -7 -7 -18 -2 -34 15 -13 14 -32 25 -42 25 -15 0 -17 -5 -12 -26z m189 -74
c8 -13 -5 -13 -25 0 -13 8 -13 10 2 10 9 0 20 -4 23 -10z"/>
<path d="M1675 2310 c9 -14 81 -50 100 -50 10 0 13 -5 9 -12 -4 -6 -3 -8 3 -5
9 6 77 -14 89 -26 11 -10 42 -8 49 3 3 5 0 7 -8 5 -7 -3 -49 11 -93 31 -100
46 -157 66 -149 54z"/>
<path d="M1520 2285 c0 -2 23 -16 50 -30 64 -33 65 -50 3 -48 -7 1 -13 -4 -13
-9 0 -6 9 -8 20 -5 11 3 20 1 20 -4 0 -5 9 -9 20 -9 11 0 19 6 18 12 -2 7 7
14 20 16 15 2 22 -2 22 -13 0 -14 4 -14 26 4 15 12 33 21 40 21 8 0 14 7 14
15 0 17 -5 17 -35 6 -13 -5 -44 0 -85 14 -79 27 -120 37 -120 30z"/>
<path d="M2073 2208 c-14 -19 -24 -48 -15 -48 16 1 53 40 47 50 -8 14 -20 13
-32 -2z"/>
<path d="M1775 2194 c20 -15 37 -14 42 2 2 5 -11 10 -29 10 -29 1 -30 0 -13
-12z"/>
<path d="M1902 2143 c2 -9 8 -18 15 -20 7 -3 9 3 6 16 -6 25 -26 28 -21 4z"/>
<path d="M2345 2130 c-4 -6 3 -10 14 -10 25 0 27 6 6 13 -8 4 -17 2 -20 -3z"/>
<path d="M2413 2133 c-25 -9 -12 -23 20 -22 17 0 25 3 17 6 -8 3 -17 9 -20 13
-3 4 -11 5 -17 3z"/>
<path d="M299 2002 c6 -11 39 -45 73 -75 64 -57 105 -75 236 -99 111 -20 107
-22 110 53 l3 66 -43 6 c-24 3 -73 20 -110 37 l-66 31 -51 -17 c-51 -16 -84
-14 -145 11 -16 7 -17 5 -7 -13z"/>
<path d="M5470 2005 c-8 -9 -8 -15 -2 -15 12 0 26 19 19 26 -2 2 -10 -2 -17
-11z"/>
<path d="M2938 1956 c-2 -23 0 -32 8 -29 7 3 15 -11 19 -35 7 -44 39 -102 56
-102 7 0 8 7 4 18 -8 19 -65 175 -65 180 0 1 -4 2 -9 2 -5 0 -11 -15 -13 -34z"/>
<path d="M3311 1954 c0 -11 3 -14 6 -6 3 7 2 16 -1 19 -3 4 -6 -2 -5 -13z"/>
<path d="M2330 1920 c-6 -11 -8 -20 -6 -20 3 0 10 9 16 20 6 11 8 20 6 20 -3
0 -10 -9 -16 -20z"/>
<path d="M2945 1829 c12 -37 34 -77 47 -85 7 -4 2 9 -10 30 -12 20 -22 43 -22
51 0 8 -5 17 -11 21 -8 4 -9 -1 -4 -17z"/>
<path d="M5641 1767 c-60 -47 -52 -61 15 -26 32 18 44 30 44 46 0 13 -1 23 -2
22 -2 0 -27 -19 -57 -42z"/>
<path d="M2710 1760 c0 -5 5 -10 10 -10 6 0 10 5 10 10 0 6 -4 10 -10 10 -5 0
-10 -4 -10 -10z"/>
<path d="M2687 1695 c-4 -8 -2 -17 2 -20 5 -2 11 4 14 15 6 23 -8 27 -16 5z"/>
<path d="M3020 1693 c0 -4 14 -24 31 -43 18 -19 43 -52 57 -72 17 -27 32 -38
49 -38 21 0 23 3 18 23 -4 12 -14 27 -24 34 -9 7 -19 16 -23 20 -4 4 -20 22
-35 40 -27 30 -73 53 -73 36z"/>
<path d="M3297 1668 c-4 -14 -11 -19 -23 -14 -13 5 -15 2 -10 -16 3 -13 6 -31
6 -41 0 -11 16 -24 44 -37 56 -24 63 -36 26 -44 -30 -5 -42 -26 -16 -26 7 0
19 -7 27 -16 7 -8 25 -22 41 -30 24 -13 27 -12 22 1 -4 10 8 7 40 -11 25 -14
46 -21 46 -16 0 12 -82 96 -115 118 -14 9 -25 23 -25 30 0 8 -10 19 -22 24
-23 9 -23 9 3 9 14 1 48 -10 74 -24 26 -14 50 -24 52 -21 3 3 -24 19 -58 37
-86 42 -98 52 -70 59 19 5 19 6 -8 22 -28 15 -29 15 -34 -4z"/>
<path d="M3431 1656 c10 -9 89 -46 89 -41 0 5 -75 45 -86 45 -4 0 -5 -2 -3 -4z"/>
<path d="M3840 1417 c-62 -33 -158 -130 -182 -186 -24 -55 -20 -108 12 -197
12 -32 32 -86 44 -119 27 -74 33 -85 49 -80 15 5 90 -92 77 -100 -7 -4 -6 -14
1 -27 10 -19 8 -25 -17 -45 -22 -17 -24 -21 -8 -17 18 5 20 1 20 -34 -1 -21
-6 -45 -12 -53 -7 -8 -10 -35 -8 -63 l4 -49 -90 6 c-97 6 -147 26 -206 80 -23
21 -38 27 -53 22 -14 -4 -31 1 -51 15 -44 31 -37 16 25 -55 40 -46 71 -69 115
-89 74 -34 204 -50 324 -40 64 4 87 3 82 -5 -10 -16 14 -14 33 3 14 12 71 31
71 24 0 -2 -4 -17 -9 -35 -14 -49 3 -55 77 -25 38 16 62 31 62 41 0 9 17 30
37 46 62 52 78 72 105 134 25 59 26 61 9 93 -10 18 -40 50 -66 70 -62 47 -72
64 -45 78 11 6 20 20 20 31 0 11 9 38 21 60 17 34 20 56 18 133 -3 91 -4 94
-55 187 -84 151 -176 219 -297 219 -45 0 -74 -6 -107 -23z m30 -922 c0 -8 -7
-15 -15 -15 -8 0 -15 7 -15 15 0 8 7 15 15 15 8 0 15 -7 15 -15z"/>
<path d="M3500 1400 c-13 -8 -13 -10 2 -10 9 0 20 5 23 10 8 13 -5 13 -25 0z"/>
<path d="M1717 1126 c-19 -13 -38 -22 -41 -19 -3 4 -11 -7 -17 -24 -8 -24 -15
-30 -31 -25 -18 4 -20 2 -16 -16 3 -12 3 -21 -1 -20 -24 3 -41 -4 -41 -17 0
-8 -3 -15 -7 -15 -5 0 -9 -24 -9 -53 -3 -105 -24 -200 -48 -227 -42 -44 -50
-72 -54 -185 l-4 -111 38 -52 c26 -35 51 -56 74 -64 19 -6 52 -22 72 -35 21
-12 42 -23 46 -23 5 0 20 -8 33 -19 32 -24 141 -35 210 -20 75 16 143 52 175
94 14 19 32 35 39 35 21 0 105 81 125 121 21 40 25 75 13 106 -6 14 -9 11 -13
-16 l-5 -34 -28 40 c-36 51 -43 99 -23 138 21 40 20 54 -7 84 -13 15 -31 53
-41 86 -10 33 -22 71 -27 84 -14 35 -5 36 34 2 21 -19 43 -54 57 -88 l22 -58
116 -55 c63 -30 147 -73 186 -96 l70 -41 38 77 c20 42 44 82 52 89 12 10 11
17 -4 49 -10 20 -24 78 -30 127 -6 50 -14 93 -18 97 -4 3 -141 8 -304 10 -244
2 -298 1 -300 -10 -2 -10 -11 -7 -33 9 -16 13 -50 34 -75 46 -25 12 -39 22
-32 22 7 1 22 -4 33 -9 10 -6 19 -8 19 -6 0 16 -73 39 -136 42 -63 3 -76 1
-107 -20z m518 -648 c-15 -27 -32 -21 -39 13 -8 43 1 52 27 26 18 -17 20 -26
12 -39z"/>
<path d="M3400 1038 c1 -31 16 -36 37 -12 l21 24 -29 0 c-17 0 -29 -5 -29 -12z"/>
<path d="M1521 964 c0 -11 3 -14 6 -6 3 7 2 16 -1 19 -3 4 -6 -2 -5 -13z"/>
<path d="M3350 641 c0 -6 4 -13 10 -16 6 -3 7 1 4 9 -7 18 -14 21 -14 7z"/>
<path d="M2758 124 c-5 -4 -8 -35 -8 -68 1 -46 3 -57 11 -43 11 19 8 123 -3
111z"/>
</g>
</svg>
