<?xml version="1.0" encoding="UTF-8"?>
<svg id="Layer_1" data-name="Layer 1" xmlns="http://www.w3.org/2000/svg" viewBox="0 0 33.67 36.95">
  <defs>
    <style>
      .cls-1, .cls-2, .cls-3, .cls-4, .cls-5, .cls-6 {
        stroke-width: 0px;
      }

      .cls-2 {
        fill: #38b5a9;
      }

      .cls-3 {
        fill: #fcc8a1;
      }

      .cls-4 {
        fill: #fff;
      }

      .cls-5 {
        fill: #f29220;
      }

      .cls-6 {
        fill: #edb485;
      }
    </style>
  </defs>
  <path class="cls-3" d="M30.42,27.77c.07.82.82,1.43,1.69,1.36.87-.07,1.52-.8,1.45-1.62-.07-.82-1.69-1.36-1.69-1.36,0,0-1.52.8-1.45,1.62Z"/>
  <polygon class="cls-4" points="20.39 24.6 20.16 22.7 29.17 21.58 29.41 23.47 20.39 24.6"/>
  <polygon class="cls-4" points="21.07 23.3 19.94 23.7 15.86 12.12 16.86 11.61 21.07 23.3"/>
  <path class="cls-2" d="M31.16,18.28c-.11,0-3.83.24-4.51.33h0s-5.34.23-5.34.23c-.54.07-.93.57-.86,1.12l.21,1.69c.07.55.56.94,1.1.87l4.08-.5s2.39-.36,3.84-.57c-.02,1.18.73,6.31.73,6.31l3.16-.26-1.03-7.75c.02-.31-.07-.63-.26-.9-.23-.32-.61-.56-1.13-.57Z"/>
  <polygon class="cls-6" points="19.99 14.14 21.74 13.58 20.83 10.67 19.08 11.23 19.99 14.14"/>
  <path class="cls-3" d="M21.45,7.58c.77,1.32.49,2.93-.62,3.59-1.11.66-2.64.13-3.41-1.19-.77-1.32-.5-2.93.62-3.6.55-.33,1.17-.65,1.78-.45.63.21,1.24.97,1.63,1.64Z"/>
  <path class="cls-1" d="M16.7,9.24c.72,2,2.69,2.26,2.65,2.19,0,0-.58-.55-1.12-1.92-.2-.5-.17-1.14.03-1.5,1.11-1.89,3.03-.69,3.03-.69,0,0-.34-1.91-1.92-1.77-3.02.26-3.04,2.68-2.68,3.69Z"/>
  <path class="cls-3" d="M18.93,9.35c.18.3.12.67-.14.82-.25.15-.6.03-.78-.28-.18-.3-.11-.67.14-.82.25-.15.6-.03.78.28Z"/>
  <path class="cls-3" d="M21.47,8.25c-.15.09-.2.29-.12.44.09.15.28.2.44.11.15-.09.2-.29.12-.44-.09-.15-.29-.2-.44-.11Z"/>
  <path class="cls-2" d="M26.59,18.62c-1.17-3.33-3.72-7.27-5.81-6.78-3.67.86-1.68,5.75-.09,9.69l5.9-2.91Z"/>
  <polygon class="cls-2" points="16.09 16.85 13.55 16.67 13.5 17.35 16.09 17.53 16.09 16.85"/>
  <polygon class="cls-2" points="23.01 26.54 22.28 26.99 15.36 17.31 16.08 16.85 23.01 26.54"/>
  <polygon class="cls-2" points="27.23 19.47 18.11 20.57 17.07 19.21 27.07 18.11 27.23 19.47"/>
  <g>
    <path class="cls-6" d="M29.25,20.23c.45.35.56.99.25,1.43-.31.44-.92.51-1.37.16l-3.89-2.07-2.32-2.87,1.12-1.59,2.39,2.92s3.81,1.99,3.83,2.01Z"/>
    <path class="cls-4" d="M20.37,15.05c.66,1.07,2.04,3.01,2.05,3.03l.02.02,2.15-1.52-.33-.43c-.16-.21-.31-.43-.47-.65-.4-.57-.79-1.16-1.17-1.77-.01-.02-.13-.22-.13-.22-.3-.51-1.02-.66-1.65-.33-.61.33-.88,1.05-.6,1.63,0,.02.13.23.14.24Z"/>
  </g>
  <polygon class="cls-4" points="17.41 11.49 15.86 12.12 14.71 9.28 16.26 8.64 17.41 11.49"/>
  <polygon class="cls-4" points="30.52 29.92 29.3 30.14 28 23.45 29.38 23.29 30.52 29.92"/>
  <polygon class="cls-4" points="33.57 29.66 29.3 30.14 29.87 29.44 33.5 29.06 33.57 29.66"/>
  <path class="cls-2" d="M21.89,20.35c-3.37.42-5.78,3.54-5.37,6.95.42,3.41,3.5,5.84,6.87,5.42,3.38-.42,5.78-3.54,5.37-6.95-.42-3.41-3.5-5.85-6.88-5.42ZM22.59,25.48l-.53-4.36c.92-.1,1.82.04,2.62.37l-1.7,4.04c-.12-.04-.26-.06-.4-.05ZM22.45,25.5c-.14.03-.26.08-.37.15l-2.62-3.51c.7-.52,1.54-.88,2.45-1l.53,4.36ZM21.6,26.6l-4.31.54c-.1-.93.04-1.84.37-2.66l4,1.71c-.04.13-.06.27-.05.41ZM21.62,26.73c.03.14.08.27.15.38l-3.47,2.64c-.52-.71-.87-1.56-1-2.49l4.31-.54ZM22.7,27.59l.53,4.36c-.92.1-1.82-.04-2.62-.37l1.7-4.04c.12.04.26.06.4.06ZM22.84,27.57c.14-.03.26-.08.37-.15l2.62,3.51c-.7.52-1.54.88-2.46,1l-.53-4.36ZM23.69,26.47l4.31-.54c.1.94-.04,1.84-.37,2.66l-4-1.71c.04-.13.06-.27.05-.41ZM23.67,26.34c-.03-.14-.08-.27-.15-.38l3.47-2.64c.52.71.87,1.56,1,2.49l-4.31.54ZM26.9,23.2l-3.47,2.64c-.09-.1-.2-.19-.32-.25l1.69-4.04c.82.37,1.54.93,2.09,1.65ZM19.34,22.23l2.61,3.5c-.1.09-.19.2-.25.32l-4-1.71c.36-.83.92-1.55,1.63-2.11ZM18.39,29.87l3.47-2.64c.09.1.2.19.32.25l-1.69,4.04c-.82-.37-1.54-.93-2.09-1.65ZM25.95,30.84l-2.61-3.5c.1-.09.19-.2.25-.32l4,1.71c-.36.83-.92,1.55-1.63,2.11Z"/>
  <polygon class="cls-6" points="3.86 9.91 5.86 10.07 6.13 6.75 4.13 6.59 3.86 9.91"/>
  <path class="cls-5" d="M7.77,2.62c.15,1.75-.45,4.02-2.06,4.26-2.83.42-3.53-1.45-3.63-3.21-.13-2.1,1.29-2.77,2.95-3.08.77-.14,2.57-.05,2.75,2.02Z"/>
  <path class="cls-3" d="M8.01,3.9c.24,1.65-.69,3.17-2.09,3.37-1.4.21-2.72-.97-2.96-2.62-.24-1.66.69-3.17,2.09-3.37.68-.1,1.45-.17,1.98.29.55.48.85,1.49.98,2.34Z"/>
  <path class="cls-3" d="M7.76,4.58c-.19.03-.32.21-.3.4.03.19.21.32.4.29.19-.03.32-.21.3-.4-.03-.19-.21-.32-.4-.29Z"/>
  <path class="cls-1" d="M6.74.98c-.12.01-.2.21-.33.26-.27-.17-.64-.21-.8-.24l.09-.28c-.17,0-1.05.37-1.12.42-.08.06-.51.23-.75.51-.14-.01-.28-.01-.4.01-.47.1-1.36.54-1.51,1.53-.03.19-.39,1.91.21,4.39.25,1.04,3.81-.53,3.8-.59,0,0-1.96-.89-1.95-2.49,0-.59.29-1.22.64-1.5.51-.41,1.29-.44,1.51-.45,1.41-.09,1.83,1.02,1.83,1.02,0,0-.26-2.69-1.21-2.59Z"/>
  <path class="cls-2" d="M1.98,1.32C2,.63,3.33.04,4.98,0c1.65-.04,3.01.48,3.06,1.17h0s.03,1.19.03,1.19l-6.06.15-.03-1.19h0Z"/>
  <path class="cls-3" d="M2.85,20.19l2.98-.79,3.57,7.07s-.59,6.36-.64,6.76c-.26,2.08-2.64,1.79-2.87.45-.09-.52.38-6.39.38-6.39l-3.41-7.09Z"/>
  <path class="cls-3" d="M1.46,20.2l3.07-.21.33,7.45s-.5,6.26-.63,6.64c-.64,1.99-2.93,1.25-2.9-.1.01-.53.35-6.2.35-6.2l-.22-7.58Z"/>
  <path class="cls-2" d="M9.02,24.72c-3.42-8.07.69-16.71-4.33-16.71-4.99,0-4.25,11.82-3.86,16.97,2.43.81,8.07-.25,8.19-.26Z"/>
  <g>
    <path class="cls-3" d="M13.08,17.57c.27.54.88.72,1.37.39.49-.32.66-1.03.4-1.57-.27-.54-.88-.72-1.37-.39-.49.32-.66,1.02-.4,1.57Z"/>
    <path class="cls-4" d="M14.48,15.71l-.9,2.56-4.97-1.64s-5.28-4.18-5.56-4.47c-1.48-1.5.23-3.25,1.43-2.59.46.25,5.31,4.52,5.31,4.52l4.69,1.64Z"/>
  </g>
  <path class="cls-3" d="M4.08,4.08c-.28.04-.47.3-.43.58.04.28.3.47.58.42.28-.04.47-.3.43-.57-.04-.28-.3-.47-.58-.43Z"/>
  <polygon class="cls-2" points="33.67 32.49 .14 36.95 0 35.9 33.53 31.44 33.67 32.49"/>
</svg>