<?xml version="1.0" encoding="UTF-8"?>
<svg id="Layer_1" data-name="Layer 1" xmlns="http://www.w3.org/2000/svg" viewBox="0 0 38.38 32.7">
  <defs>
    <style>
      .cls-1 {
        fill: #38b5a9;
        stroke-width: 0px;
      }
    </style>
  </defs>
  <path class="cls-1" d="M38.15,30.23c-.24-1.11-.7-2.17-1.55-2.97-.92-.86-2.1-1.13-3.31-1.13s-2.54.29-3.61.52c-.68.15-1.4.33-2.14.5-.49.11-.98.22-1.48.3,1.28-.93,2.23-2.43,2.99-3.61.75-1.16,1.51-2.56,2.46-3.76.66-.83,1.42-1.58,2.33-2.1.81-.46,1.62-.61,2.44-.61.24,0,.48.01.72.04.01,0,.03,0,.04,0,.35,0,.54-.44.27-.7-.49-.46-1.03-.91-1.62-1.29-.91-.59-1.93-1-3.03-1-.06,0-.11,0-.17,0-2.57.1-4.16,2.67-5.32,4.46-.38.59-.76,1.23-1.16,1.87-.23.37-.47.74-.73,1.11.26-1.57-.14-3.32-.43-4.69-.29-1.35-.74-2.87-.92-4.4-.12-1.06-.12-2.12.17-3.13.32-1.16,1-1.95,1.82-2.64.29-.24.11-.71-.26-.71,0,0,0,0-.01,0-.67.02-1.37.08-2.05.23-1.11.24-2.17.7-2.97,1.55-1.75,1.89-1.05,4.83-.6,6.92.15.68.33,1.4.5,2.14.17.74.33,1.5.41,2.26.12,1.05.11,2.1-.16,3.12-.28,1.04-.87,1.79-1.58,2.43-.72-.64-1.3-1.38-1.58-2.43-.28-1.02-.28-2.07-.16-3.12.09-.76.24-1.52.41-2.26.17-.74.36-1.46.5-2.14.45-2.09,1.14-5.03-.6-6.92-.79-.86-1.86-1.32-2.97-1.55-.68-.15-1.39-.21-2.05-.23,0,0,0,0-.01,0-.37,0-.55.47-.26.71.82.68,1.5,1.48,1.82,2.64.28,1.01.29,2.07.17,3.13-.18,1.53-.63,3.05-.92,4.4-.3,1.37-.69,3.12-.43,4.69-.25-.37-.5-.74-.73-1.11-.4-.64-.78-1.28-1.16-1.87-1.16-1.8-2.75-4.36-5.32-4.46-.06,0-.11,0-.17,0-1.1,0-2.12.41-3.03,1-.59.38-1.13.83-1.62,1.29-.27.25-.08.7.27.7.01,0,.03,0,.04,0,.24-.02.48-.04.72-.04.82,0,1.62.15,2.44.61.92.52,1.67,1.26,2.33,2.1.95,1.21,1.71,2.6,2.46,3.76.76,1.17,1.71,2.68,3,3.61-1.27-.21-2.51-.57-3.64-.81-1.06-.23-2.35-.52-3.61-.52s-2.39.27-3.31,1.12C.4,28.55.05,30.53,0,32.29c0,.25.2.42.41.42.11,0,.22-.04.3-.15.68-.82,1.48-1.51,2.64-1.82.62-.17,1.26-.24,1.9-.24.41,0,.81.03,1.22.07.76.09,1.52.24,2.26.41.74.17,1.46.36,2.14.5,1.07.23,2.35.52,3.61.52s2.38-.27,3.31-1.13c.7-.65,1.13-1.47,1.39-2.36.27.89.7,1.71,1.4,2.36.92.85,2.1,1.12,3.31,1.12s2.54-.29,3.61-.52c1.35-.29,2.87-.74,4.4-.92.41-.05.82-.08,1.23-.08.64,0,1.28.07,1.9.24,1.16.32,1.95,1,2.64,1.82.08.1.19.14.3.14.21,0,.41-.16.41-.42-.02-.67-.08-1.37-.23-2.05ZM26.68,21.19c.16-.26.32-.51.47-.76.24-.39.46-.75.68-1.1l.09-.14c1.11-1.73,2.5-3.88,4.59-3.96.05,0,.09,0,.14,0,.84,0,1.69.29,2.6.88.23.15.46.31.69.5-.92.04-1.74.28-2.5.71-.91.51-1.75,1.26-2.56,2.29-.69.88-1.27,1.82-1.82,2.73-.24.39-.46.75-.68,1.1l-.08.13c-1.06,1.64-2.51,3.89-4.6,3.97-.05,0-.09,0-.14,0-1.04,0-2.12-.45-3.29-1.38.93-.04,1.75-.28,2.51-.71.91-.52,1.74-1.27,2.55-2.29.54-.68,1.01-1.41,1.36-1.97ZM21.54,22.75c.27-1.01.33-2.13.19-3.42-.1-.86-.28-1.71-.43-2.35-.07-.29-.14-.59-.21-.87-.11-.44-.21-.85-.29-1.26l-.04-.17c-.43-2.01-.97-4.51.45-6.05.6-.65,1.44-1.08,2.55-1.32.27-.06.55-.1.84-.14-.63.69-1.03,1.42-1.27,2.27-.28,1.01-.34,2.13-.19,3.43.13,1.11.39,2.18.64,3.21.11.44.21.86.29,1.26l.03.15c.41,1.91.98,4.52-.44,6.06-.73.79-1.85,1.27-3.39,1.45.52-.56,1-1.29,1.26-2.27ZM14.28,17.51l.03-.15c.09-.4.19-.82.29-1.26.25-1.03.51-2.11.64-3.22.15-1.31.09-2.43-.19-3.43-.24-.85-.64-1.58-1.27-2.27.3.03.58.08.84.14,1.12.24,1.95.67,2.55,1.32,1.42,1.54.88,4.04.45,6.05l-.04.17c-.09.4-.19.82-.29,1.26-.07.29-.14.58-.21.87-.15.64-.33,1.49-.43,2.35-.15,1.29-.09,2.41.19,3.42.26.98.75,1.71,1.26,2.28-1.54-.18-2.66-.66-3.39-1.45-1.42-1.54-.86-4.15-.44-6.06ZM10.09,23.56l-.08-.13c-.22-.35-.45-.71-.68-1.1-.55-.91-1.13-1.85-1.82-2.73-.82-1.03-1.65-1.78-2.56-2.29-.76-.43-1.58-.66-2.51-.71.23-.19.47-.35.7-.5.91-.59,1.76-.88,2.6-.88.05,0,.09,0,.14,0,2.09.08,3.48,2.23,4.59,3.96l.09.14c.22.35.45.71.68,1.1.15.25.31.51.47.77.35.56.82,1.29,1.36,1.97.81,1.02,1.64,1.77,2.55,2.29.76.44,1.58.67,2.51.71-1.17.92-2.25,1.38-3.29,1.38-.05,0-.09,0-.14,0-2.09-.08-3.54-2.33-4.6-3.97ZM18.57,27.75c-.24,1.12-.67,1.95-1.32,2.55-.67.62-1.57.92-2.77.92-1.11,0-2.26-.25-3.27-.47l-.17-.04c-.4-.09-.82-.19-1.26-.29-.29-.07-.58-.14-.87-.21-.64-.15-1.49-.33-2.35-.43-.46-.05-.89-.08-1.31-.08-.76,0-1.45.09-2.11.26-.98.26-1.71.75-2.28,1.26.18-1.54.66-2.66,1.45-3.39.66-.61,1.57-.91,2.77-.91,1.11,0,2.27.25,3.29.47l.15.03c.4.09.82.19,1.26.29,1.03.25,2.11.51,3.22.64.47.05.9.08,1.32.08.77,0,1.46-.09,2.11-.27.85-.24,1.58-.64,2.27-1.27-.03.3-.08.58-.14.84ZM35.25,29.97c-.66-.18-1.35-.27-2.11-.27-.42,0-.85.03-1.32.08-1.11.13-2.18.39-3.21.64-.44.11-.86.21-1.26.29l-.15.03c-1.02.22-2.17.47-3.29.47-1.2,0-2.11-.3-2.77-.91-.79-.73-1.27-1.85-1.45-3.39.56.52,1.29,1,2.27,1.26.66.18,1.35.26,2.11.26.42,0,.84-.03,1.31-.08.86-.1,1.71-.28,2.35-.43.3-.07.59-.14.87-.21.44-.11.85-.21,1.26-.29l.17-.04c1.02-.22,2.17-.47,3.27-.47,1.2,0,2.11.3,2.77.91.65.6,1.08,1.44,1.32,2.55.06.27.1.55.14.84-.69-.63-1.42-1.03-2.27-1.27Z"/>
  <path class="cls-1" d="M19.19,6.14c1.69,0,3.07-1.38,3.07-3.07s-1.38-3.07-3.07-3.07-3.07,1.38-3.07,3.07,1.38,3.07,3.07,3.07ZM19.19,1.02c1.13,0,2.05.92,2.05,2.05s-.92,2.05-2.05,2.05-2.05-.92-2.05-2.05.92-2.05,2.05-2.05Z"/>
</svg>