<?xml version="1.0" encoding="UTF-8"?>
<svg id="Layer_1" data-name="Layer 1" xmlns="http://www.w3.org/2000/svg" viewBox="0 0 33.2 37.22">
  <defs>
    <style>
      .cls-1 {
        fill: #010101;
      }

      .cls-1, .cls-2, .cls-3 {
        stroke-width: 0px;
      }

      .cls-2 {
        fill: #38b5a9;
      }

      .cls-3 {
        fill: #fff;
      }
    </style>
  </defs>
  <path class="cls-3" d="M19.79,9.39c.13,1.05-.03,1.8-.48,2.23-.3.29-.7.41-1.05.46.14-.4.23-.81.24-1.24.24-.28.39-.68.39-1.11,0-.49-.19-.93-.49-1.21-.17-.6-.67-1.07-1.28-1.17-1.23-.22-2.05-.85-2.06-.86-.19-.15-.46-.16-.67-.02-.68.44-1.43.71-2.23.8-.7.07-1.26.59-1.42,1.27-.3.27-.48.71-.48,1.19,0,.44.15.84.4,1.12.02.43.12.84.27,1.22-.35-.04-.74-.16-1.04-.45-.46-.43-.62-1.18-.48-2.23.27-2.12,1.66-3.08,2.41-3.45l.09.2c.09.22.3.35.53.35.07,0,.15-.02.22-.05.29-.12.42-.46.3-.74l-.28-.65h0s0-.02-.02-.03l-.36-.86h4.53l-.66,1.54c-.13.29,0,.63.29.75.29.13.63,0,.75-.29l.1-.24c.74.35,2.19,1.3,2.47,3.47Z"/>
  <path class="cls-3" d="M15.69,14.86c.18.38.42.72.69,1.03-1.13.56-2.48.56-3.6,0,.28-.31.51-.65.69-1.03l.15-.31c.29.07.58.12.88.13h.07c.33,0,.64-.06.95-.13l.15.31Z"/>
  <path class="cls-3" d="M17.75,9.74c0,.21-.08.33-.11.36-.17.1-.28.29-.28.49v.17c0,.75-.3,1.46-.83,1.98-.54.53-1.25.81-2.01.8-1.5-.03-2.72-1.33-2.72-2.95,0-.19-.12-.38-.28-.49-.03-.02-.11-.15-.11-.36s.08-.33.11-.35c.19-.09.31-.32.33-.51.02-.24.2-.44.44-.46.86-.09,1.66-.35,2.41-.78.42.26,1.21.67,2.23.85.2.04.37.23.39.46.02.19.14.36.32.45.03.02.11.14.11.35Z"/>
  <path class="cls-3" d="M26.27,9.38c1.94,0,3.52,1.58,3.52,3.52s-1.58,3.52-3.52,3.52-3.52-1.58-3.52-3.52,1.58-3.52,3.52-3.52ZM28.77,12.9c0-.32-.26-.57-.57-.57h-1.36v-1.36c0-.31-.25-.57-.57-.57s-.57.26-.57.57v1.36h-1.35c-.32,0-.57.25-.57.57s.25.57.57.57h1.35v1.36c0,.31.26.57.57.57s.57-.26.57-.57v-1.36h1.36c.31,0,.57-.25.57-.57Z"/>
  <path class="cls-2" d="M17.24,1.14v1.88h-5.32c-.29,0-.57.15-.73.4s-.19.55-.07.83l.28.64c-.96.46-2.76,1.66-3.11,4.36-.19,1.43.1,2.5.83,3.2.7.67,1.64.79,2.24.79.1,0,.19,0,.26,0,.28.33.6.62.96.85l-.13.27c-.5,1.02-1.46,1.72-2.58,1.88l-1.3.19c-1.35.2-2.36,1.37-2.36,2.73v2.4h-1.52V3.77c0-.31-.25-.57-.57-.57V1.14h13.13Z"/>
  <path class="cls-2" d="M32.05,3.13v9.77h-1.12c0-1.23-.48-2.35-1.26-3.18V3.77c0-.31-.26-.57-.57-.57s-.57.26-.57.57v5.06c-.67-.38-1.44-.59-2.26-.59-2.07,0-3.84,1.37-4.44,3.25l-.98-.36c.14-.53.16-1.16.07-1.87-.35-2.73-2.19-3.94-3.15-4.38l.27-.63c.12-.27.09-.58-.07-.83-.16-.24-.43-.4-.73-.4v-1.88h12.83c1.1,0,1.99.9,1.99,1.99Z"/>
  <path class="cls-2" d="M28.53,16.98v7.26h-6.3l-.79-1.53c-.1-.19-.29-.31-.51-.31h-8.66c-.21,0-.41.12-.51.31l-.8,1.53h-6.29v-2.68h1.52c0,.31.25.57.57.57s.57-.26.57-.57v-2.4c0-.8.6-1.48,1.39-1.6l1.31-.2c.67-.09,1.3-.34,1.84-.7.82.51,1.76.78,2.71.78s1.88-.27,2.71-.78c.55.36,1.17.61,1.84.7l1.31.2c.79.11,1.39.8,1.39,1.6v1.66c0,.32.25.57.57.57s.57-.25.57-.57v-1.66c0-1.36-1.02-2.54-2.36-2.73l-1.31-.19c-1.12-.16-2.09-.86-2.58-1.88l-.12-.25c.26-.15.51-.33.73-.55.1-.1.17-.2.26-.31.07,0,.16,0,.25,0,.6,0,1.54-.12,2.25-.79.37-.35.62-.8.76-1.34l.98.36c-.15.45-.22.92-.22,1.42,0,2.57,2.1,4.66,4.66,4.66.82,0,1.59-.21,2.26-.59ZM17.64,19.1c.25-.19.3-.55.11-.8-.19-.25-.55-.3-.8-.11-1.4,1.04-3.36,1.04-4.76,0l-.68.91c.91.68,1.98,1.01,3.07,1.01s2.16-.33,3.07-1.01Z"/>
  <path class="cls-2" d="M32.05,12.9v13.15c0,1.1-.89,2-1.99,2H3.14c-1.1,0-2-.9-2-2V3.13c0-1.09.9-1.99,2-1.99h.96v2.05c-.32,0-.57.26-.57.57v21.04c0,.32.25.57.57.57h7.22c.21,0,.41-.11.51-.31l.79-1.53h7.97l.79,1.53c.1.2.29.31.51.31h7.22c.31,0,.57-.25.57-.57v-8.73c.78-.83,1.26-1.95,1.26-3.18h1.12Z"/>
  <path class="cls-2" d="M26.13,33.61c.68,0,1.24.55,1.24,1.24s-.55,1.23-1.24,1.23H7.06c-.68,0-1.23-.55-1.23-1.23s.55-1.24,1.23-1.24h4.12c.32,0,.57-.25.57-.57v-3.85h9.69v3.85c0,.32.26.57.57.57h4.12Z"/>
  <path class="cls-1" d="M33.2,3.13v22.92c0,1.73-1.41,3.14-3.14,3.14h-7.48v3.28h3.55c1.31,0,2.38,1.07,2.38,2.38s-1.07,2.37-2.38,2.37H7.06c-1.3,0-2.37-1.06-2.37-2.37s1.07-2.38,2.37-2.38h3.55v-3.28H3.14c-1.73,0-3.14-1.41-3.14-3.14V3.13C0,1.4,1.41,0,3.14,0h26.92c1.73,0,3.14,1.4,3.14,3.13ZM32.05,26.05V3.13c0-1.09-.89-1.99-1.99-1.99H3.14c-1.1,0-2,.9-2,1.99v22.92c0,1.1.9,2,2,2h26.92c1.1,0,1.99-.9,1.99-2ZM27.37,34.85c0-.68-.55-1.24-1.24-1.24h-4.12c-.31,0-.57-.25-.57-.57v-3.85h-9.69v3.85c0,.32-.25.57-.57.57h-4.12c-.68,0-1.23.55-1.23,1.24s.55,1.23,1.23,1.23h19.07c.68,0,1.24-.55,1.24-1.23Z"/>
  <path class="cls-1" d="M29.67,9.72c.78.83,1.26,1.95,1.26,3.18s-.48,2.35-1.26,3.18v8.73c0,.32-.26.57-.57.57h-7.22c-.22,0-.42-.11-.51-.31l-.79-1.53h-7.97l-.79,1.53c-.1.2-.29.31-.51.31h-7.22c-.32,0-.57-.25-.57-.57V3.77c0-.31.25-.57.57-.57s.57.26.57.57v20.47h6.29l.8-1.53c.1-.19.29-.31.51-.31h8.66c.21,0,.41.12.51.31l.79,1.53h6.3v-7.26c-.67.38-1.44.59-2.26.59-2.57,0-4.66-2.1-4.66-4.66,0-.5.07-.97.22-1.42.6-1.88,2.37-3.25,4.44-3.25.82,0,1.59.21,2.26.59V3.77c0-.31.25-.57.57-.57s.57.26.57.57v5.95ZM29.79,12.9c0-1.94-1.58-3.52-3.52-3.52s-3.52,1.58-3.52,3.52,1.58,3.52,3.52,3.52,3.52-1.58,3.52-3.52Z"/>
  <path class="cls-1" d="M28.2,12.33c.31,0,.57.25.57.57s-.26.57-.57.57h-1.36v1.36c0,.31-.25.57-.57.57s-.57-.26-.57-.57v-1.36h-1.35c-.32,0-.57-.25-.57-.57s.25-.57.57-.57h1.35v-1.36c0-.31.26-.57.57-.57s.57.26.57.57v1.36h1.36Z"/>
  <path class="cls-1" d="M22.97,19.16v1.66c0,.32-.25.57-.57.57s-.57-.25-.57-.57v-1.66c0-.8-.6-1.48-1.39-1.6l-1.31-.2c-.67-.09-1.3-.34-1.84-.7-.82.51-1.76.78-2.71.78s-1.88-.27-2.71-.78c-.55.36-1.17.61-1.84.7l-1.31.2c-.79.11-1.39.8-1.39,1.6v2.4c0,.31-.26.57-.57.57s-.57-.26-.57-.57v-2.4c0-1.36,1.01-2.54,2.36-2.73l1.3-.19c1.13-.16,2.09-.86,2.58-1.88l.13-.27c-.36-.23-.68-.51-.96-.85-.07,0-.16,0-.26,0-.6,0-1.54-.12-2.24-.79-.73-.7-1.02-1.78-.83-3.2.34-2.7,2.14-3.9,3.11-4.36l-.28-.64c-.11-.28-.09-.59.07-.83s.44-.4.73-.4h5.32c.3,0,.57.15.73.4.16.25.2.56.07.83l-.27.63c.95.44,2.8,1.65,3.15,4.38.09.71.07,1.34-.07,1.87-.14.54-.39.99-.76,1.34-.71.67-1.65.79-2.25.79-.09,0-.18,0-.25,0-.09.11-.16.21-.26.31-.23.22-.47.4-.73.55l.12.25c.49,1.02,1.46,1.72,2.58,1.88l1.31.19c1.35.2,2.36,1.37,2.36,2.73ZM19.31,11.63c.45-.43.61-1.18.48-2.23-.28-2.17-1.73-3.12-2.47-3.47l-.1.24c-.12.29-.46.42-.75.29-.29-.12-.42-.46-.29-.75l.66-1.54h-4.53l.36.86s.02.02.02.02h0s.28.66.28.66c.12.29-.02.62-.3.74-.07.03-.15.05-.22.05-.23,0-.44-.13-.53-.35l-.09-.2c-.75.37-2.14,1.33-2.41,3.45-.14,1.05.02,1.8.48,2.23.3.29.69.41,1.04.45-.15-.38-.25-.79-.27-1.22-.25-.28-.4-.68-.4-1.12,0-.48.18-.92.48-1.19.16-.68.72-1.2,1.42-1.27.8-.09,1.55-.36,2.23-.8.2-.14.48-.12.67.02,0,0,.83.64,2.06.86.61.11,1.11.57,1.28,1.17.3.28.49.72.49,1.21,0,.43-.15.83-.39,1.11-.02.43-.11.84-.24,1.24.35-.05.75-.17,1.05-.46ZM17.64,10.09s.11-.15.11-.36-.08-.33-.11-.35c-.18-.09-.29-.26-.32-.45-.02-.24-.19-.42-.39-.46-1.03-.18-1.81-.59-2.23-.85-.74.43-1.55.69-2.41.78-.24.02-.42.22-.44.46-.02.2-.15.42-.33.51-.02.02-.11.14-.11.35s.08.33.11.36c.15.11.28.3.28.49,0,1.62,1.22,2.92,2.72,2.95.76,0,1.47-.27,2.01-.8.53-.52.83-1.23.83-1.98v-.17c0-.2.11-.39.28-.49ZM16.38,15.88c-.28-.31-.51-.65-.69-1.03l-.15-.31c-.31.07-.63.13-.95.13h-.07c-.3,0-.6-.06-.88-.13l-.15.31c-.18.38-.42.72-.69,1.03,1.13.56,2.48.56,3.6,0Z"/>
  <path class="cls-1" d="M17.76,18.3c.19.25.14.61-.11.8-.91.68-1.98,1.01-3.07,1.01s-2.16-.33-3.07-1.01l.68-.91c1.4,1.04,3.36,1.04,4.76,0,.25-.19.61-.14.8.11Z"/>
</svg>