<?xml version="1.0" encoding="UTF-8"?>
<svg xmlns="http://www.w3.org/2000/svg" viewBox="0 0 33.43 39.07">
  <defs>
    <style>
      .cls-1 {
        fill: #ebdfda;
      }

      .cls-1, .cls-2, .cls-3, .cls-4, .cls-5, .cls-6, .cls-7, .cls-8, .cls-9 {
        stroke-width: 0px;
      }

      .cls-1, .cls-3, .cls-4, .cls-10 {
        mix-blend-mode: multiply;
      }

      .cls-11 {
        isolation: isolate;
      }

      .cls-3 {
        fill: #dfcdcc;
      }

      .cls-4 {
        fill: #b5cad5;
      }

      .cls-12 {
        mix-blend-mode: soft-light;
        opacity: .5;
      }

      .cls-5 {
        fill: #38b5a9;
      }

      .cls-6 {
        fill: #fff;
      }

      .cls-7 {
        fill: #fbb688;
      }

      .cls-8 {
        fill: #a59f9d;
      }

      .cls-9 {
        fill: #d5906b;
      }
    </style>
  </defs>
  <g class="cls-11">
    <g id="Layer_1" data-name="Layer 1">
      <g>
        <path class="cls-7" d="M9.9,13.83c-.16-.83-.95-1.59-2.03-1.36-1.08.24-1.08,1.24-.92,2.07,0,.04.54,2.27.85,2.74.31.47.76,1.36,1.52,1.11.5-.17.8-1.06.91-1.7.12-.64-.34-2.86-.34-2.86Z"/>
        <path class="cls-7" d="M23.62,13.8c.16-.83.95-1.59,2.03-1.36,1.08.24,1.18,1.27,1.02,2.09,0,.04-.58,2.11-.85,2.75-.22.52-.82,1.45-1.61,1.12-.49-.2-.81-1.11-.93-1.75-.12-.64.34-2.86.34-2.86Z"/>
        <path class="cls-5" d="M0,39.07h33.43s-.66-8.21-1.76-9.43c-1.1-1.23-9.45-3.98-9.45-3.98l-10.92-.03s-8.79,2.57-9.39,4.01c-.6,1.44-1.9,9.43-1.9,9.43Z"/>
        <path class="cls-4" d="M15.66,25.64h-4.37s-8.79,2.56-9.39,4c-.6,1.44-1.9,9.43-1.9,9.43h4.41s1.3-8,1.9-9.43c.58-1.38,8.72-3.81,9.35-4Z"/>
        <path class="cls-9" d="M12.48,25.09s2.75,2.26,4.3,2.26,4.3-2.26,4.3-2.26c0,0-1.17-1.36-.36-3.14.8-1.78-8.96-1.64-7.82,0,1.13,1.64-.41,3.14-.41,3.14Z"/>
        <path class="cls-3" d="M15.34,26.94c.21-.56.62-1.13,1.28-1.61.66-.48,1.05-.05,3.85-1.65-.08-.49-.05-1.08.25-1.72.8-1.78-8.96-1.64-7.82,0,1.13,1.64-.41,3.14-.41,3.14,0,0,1.47,1.2,2.86,1.85Z"/>
        <path class="cls-4" d="M11.94,24.93l-.64.7s1.9,4.7,3.55,5.29c.5.18,1.56-2.15,1.92-2.15.18,0,1.6,2.47,1.81,2.42,1.69-.39,3.63-5.54,3.63-5.54l-.72-.54-4.73,2.98-4.84-3.16Z"/>
        <path class="cls-7" d="M24.67,7.62c0-3.58-2.22-7.17-8.09-7.17s-8.01,3.93-8.01,7.51c0,.19-.02,9.93,1.12,12.16,1.14,2.24,4.28,4.52,7.08,4.53,3.07.01,5.82-1.96,7.11-4.53,1.29-2.57.78-12.5.78-12.5Z"/>
        <path class="cls-1" d="M10.83,8.43c.05.04.1.07.15.11.16.15-.65,1.95-.41,1.96,1.16.24,2.56-2.28,3.7-1.92,2,.62,5.77,5.67,9.46,5.57.97-.94.94-6.52.94-6.52,0-3.58-2.22-7.17-8.09-7.17-4.87,0-7.16,2.7-7.8,5.66.91.39,1.67,1.14,2.06,2.32Z"/>
        <path class="cls-1" d="M19.08,22.09c-2.8-.01-5.94-2.29-7.08-4.53-1.14-2.24-1.12-11.97-1.12-12.16,0-1.25.27-2.53.85-3.68-2.24,1.45-3.15,3.91-3.15,6.24,0,.19-.02,9.93,1.12,12.16,1.14,2.24,4.28,4.52,7.08,4.53,2.9.01,5.52-1.75,6.88-4.11-1.31.96-2.9,1.56-4.58,1.55Z"/>
        <g>
          <path class="cls-1" d="M23.62,20.6s.03-.04.04-.06c-.07.05-.13.09-.2.14.05-.02.11-.05.16-.08Z"/>
          <path class="cls-1" d="M18.11,23.9c-2.8-.01-5.94-2.29-7.08-4.53-1.14-2.24-1.12-11.97-1.12-12.16,0-1.6.45-3.27,1.45-4.63.11-.29.23-.58.37-.86-2.24,1.45-3.15,3.91-3.15,6.24,0,.19-.02,9.93,1.12,12.16,1.14,2.24,4.28,4.52,7.08,4.53,1.59,0,3.09-.53,4.35-1.4-.94.41-1.96.65-3.02.65Z"/>
        </g>
        <path class="cls-2" d="M25.98,6.77C25.26,2.83,22.04-.03,16.78,0c-5.25.03-8.7,3.25-9.39,6.9-.3,1.56-.52,4.53-.4,6.3.89-.73,1.25-.83,1.69-.65.29,3.22.99,3.17.99,3.17,0,0,.06-2.19.21-3.63.14-1.44,2.51-1.71,3.69-4.21,3.75-.16,6.11,4.63,10.22,4.9-.41,2.37.49,3.32.49,3.32,0,0,.1-1.96.43-2.89.29-.81,1.15-.81,1.58-.46.2-1.47.1-3.8-.29-5.98Z"/>
        <g class="cls-12">
          <path class="cls-6" d="M25.98,6.77C25.26,2.83,22.04-.03,16.78,0c-4.61.03-7.83,2.51-9.01,5.59,1.48-2.53,4.44-4.43,8.46-4.45,5.26-.03,8.48,2.83,9.21,6.77.29,1.6.42,3.28.39,4.65.17.03.33.1.45.2.2-1.47.1-3.8-.29-5.98Z"/>
        </g>
        <g class="cls-10">
          <path class="cls-8" d="M13.56,6.01c-1.18,2.5-4.99,4.85-6.58,5.32,0-.08,0-.18-.01-.26-.03.78-.03,1.53.01,2.13.89-.73,1.25-.83,1.69-.65.29,3.22.99,3.17.99,3.17,0,0,.06-2.19.21-3.63.14-1.44,2.51-1.71,3.69-4.21,3.73-.16,6.09,4.59,10.17,4.89-3-1.04-6.42-6.93-10.17-6.76Z"/>
        </g>
        <path class="cls-6" d="M11.94,23.81l-.64,1.81s1.9,3.58,3.55,4.18c.5.18,1.56-2.15,1.92-2.15.18,0,1.6,2.47,1.81,2.42,1.69-.39,3.63-4.42,3.63-4.42l-.72-1.66-4.73,2.98-4.84-3.16Z"/>
      </g>
    </g>
  </g>
</svg>