<?xml version="1.0" encoding="UTF-8"?>
<svg id="Layer_1" data-name="Layer 1" xmlns="http://www.w3.org/2000/svg" viewBox="0 0 38.82 31.41">
  <defs>
    <style>
      .cls-1 {
        fill: #38b5a9;
        stroke-width: 0px;
      }
    </style>
  </defs>
  <path class="cls-1" d="M38.24,17.78l-7.63,3.75c-.38.19-.92.09-1.22-.21l-4.07-4.2c-.29-.3-.56-.21-.6.21l-.49,5.14c-.04.42.26.69.68.61l6.08-1.25c.41-.08,1.06-.02,1.45.15l.16.07c.39.17.91.57,1.17.9l.13.17c.26.33.45.94.42,1.36l-.02.29c-.03.42-.22,1.06-.43,1.42l-.11.19c-.21.36-.71.74-1.12.83l-3.69.84-12.7-2.78c-.41-.09-.43-.03-.04.13l7.98,3.29c.31.13.79.32,1.17.47.48.21.93.77.69,1.52-.23.76-1.14.79-1.55.7l-4.33-.99c-.41-.09-1.08-.09-1.49,0l-4.33.99c-.73.17-1.44-.34-1.54-.75-.1-.41-.08-1.16.53-1.41.34-.13.28-.32-.13-.41l-7-1.6c-.41-.09-.91-.47-1.12-.83l-.11-.19c-.21-.36-.4-1.01-.43-1.42l-.02-.29c-.03-.42.16-1.03.42-1.36l.13-.17c.26-.33.79-.74,1.17-.9l.16-.07c.38-.17,1.04-.23,1.45-.15l6.09,1.25c.41.09.71-.19.67-.61l-.49-5.14c-.04-.42-.31-.51-.6-.21l-4.07,4.2c-.29.3-.84.4-1.22.21l-7.63-3.75c-.38-.19-.72-.69-.57-1.06.19-.48.75-.51,1.14-.37l6.27,2.03c.39.14.63-.04.81-.25l3.02-4.47s1.26-1.81,3.05-2.6c.72-.3,1.5-.49,2.21-.63.9-.17,2.32-.23,3.12-.25.24,0,2.59.09,3.73.44,1.82.58,2.63,1.37,3.03,1.81.62.67,1.29,1.45,1.29,1.45l2.87,4.24c.24.35.75.52,1.15.37l6.25-2.25c.39-.14.77.07.83.47.06.4-.19.88-.57,1.06ZM19.53,0c-2.58,0-4.68,2.09-4.68,4.68s2.09,4.68,4.68,4.68,4.67-2.09,4.67-4.68S22.11,0,19.53,0Z"/>
</svg>