<?xml version="1.0" encoding="UTF-8"?>
<svg id="Layer_1" data-name="Layer 1" xmlns="http://www.w3.org/2000/svg" viewBox="0 0 36.6 35.99">
  <defs>
    <style>
      .cls-1 {
        fill: #213469;
        opacity: .08;
      }

      .cls-1, .cls-2, .cls-3, .cls-4 {
        stroke-width: 0px;
      }

      .cls-2 {
        fill: #f0f6f8;
      }

      .cls-3 {
        fill: #38b5a9;
      }

      .cls-4 {
        fill: #fff;
      }
    </style>
  </defs>
  <polygon class="cls-2" points="27.89 25.34 25.73 27.5 22.33 24.09 20.77 22.53 22.93 20.37 24.55 21.99 27.89 25.34"/>
  <path class="cls-1" d="M24.55,21.99c-.68,1.14-1.57,1.76-2.22,2.09l-1.56-1.56,2.16-2.16,1.62,1.62Z"/>
  <path class="cls-3" d="M13.21,26.41c7.29,0,13.21-5.91,13.21-13.21S20.5,0,13.21,0,0,5.91,0,13.21s5.91,13.21,13.21,13.21Z"/>
  <path class="cls-4" d="M13.21,24.44c6.2,0,11.23-5.03,11.23-11.23S19.41,1.98,13.21,1.98,1.98,7,1.98,13.21s5.03,11.23,11.23,11.23Z"/>
  <path class="cls-1" d="M24.33,14.75c-.23,1.67-.84,3.28-1.77,4.68-.94,1.41-2.18,2.59-3.63,3.45-1.46.86-3.09,1.38-4.77,1.52-1.68.14-3.38-.1-4.96-.7-1.58-.6-3-1.56-4.16-2.79-1.16-1.23-2.03-2.71-2.53-4.32-.51-1.61-.65-3.32-.41-4.99.24-1.67.86-3.27,1.81-4.67-.07.51-.11,1.02-.11,1.54,0,2.41.77,4.75,2.2,6.68,1.43,1.93,3.44,3.36,5.74,4.06,2.3.7,4.77.65,7.03-.15,2.27-.8,4.22-2.31,5.56-4.31Z"/>
  <path class="cls-3" d="M24.38,26.28l2.51-2.51c.24-.24.55-.37.89-.37s.65.13.89.37l7.07,7.07c.56.56.87,1.31.87,2.1s-.31,1.55-.87,2.1l-.07.07c-.56.56-1.31.87-2.1.87s-1.55-.31-2.1-.87l-7.07-7.07c-.12-.12-.21-.25-.27-.41-.06-.15-.1-.32-.1-.48,0-.16.03-.33.1-.48.06-.15.16-.29.27-.41Z"/>
  <path class="cls-3" d="M35.73,35.05l-.07.07c-.56.56-1.32.87-2.1.87s-1.55-.31-2.1-.87l-7.07-7.07c-.12-.12-.21-.25-.27-.41-.06-.15-.1-.32-.1-.48s.03-.33.1-.48c.06-.15.16-.29.27-.41l.69-.69c1.74,2.64,6.23,7.99,10.61,5.2l.05.05c.56.56.87,1.31.87,2.1,0,.79-.31,1.55-.87,2.1Z"/>
</svg>