<?xml version="1.0" encoding="UTF-8"?>
<svg xmlns="http://www.w3.org/2000/svg" viewBox="0 0 217.76 39.46">
  <defs>
    <style>
      .cls-1 {
        fill: #213469;
        opacity: .08;
      }

      .cls-1, .cls-2, .cls-3, .cls-4, .cls-5, .cls-6, .cls-7, .cls-8, .cls-9, .cls-10, .cls-11 {
        stroke-width: 0px;
      }

      .cls-2 {
        fill: #ebdfda;
      }

      .cls-2, .cls-4, .cls-5, .cls-12 {
        mix-blend-mode: multiply;
      }

      .cls-13 {
        isolation: isolate;
      }

      .cls-4 {
        fill: #dfcdcc;
      }

      .cls-5 {
        fill: #b5cad5;
      }

      .cls-6 {
        fill: #f0f6f8;
      }

      .cls-14 {
        mix-blend-mode: soft-light;
        opacity: .5;
      }

      .cls-7 {
        fill: #38b5a9;
      }

      .cls-8 {
        fill: #fff;
      }

      .cls-9 {
        fill: #fbb688;
      }

      .cls-10 {
        fill: #a59f9d;
      }

      .cls-11 {
        fill: #d5906b;
      }
    </style>
  </defs>
  <g class="cls-13">
    <g id="Layer_1" data-name="Layer 1">
      <polygon class="cls-6" points="27.89 26.85 25.73 29.01 22.33 25.6 20.77 24.04 22.93 21.88 24.55 23.5 27.89 26.85"/>
      <path class="cls-1" d="M24.55,23.5c-.68,1.14-1.57,1.76-2.22,2.09l-1.56-1.56,2.16-2.16,1.62,1.62Z"/>
      <path class="cls-7" d="M13.21,27.92c7.29,0,13.21-5.91,13.21-13.21S20.5,1.51,13.21,1.51,0,7.42,0,14.72s5.91,13.21,13.21,13.21Z"/>
      <path class="cls-8" d="M13.21,25.95c6.2,0,11.23-5.03,11.23-11.23S19.41,3.49,13.21,3.49,1.98,8.51,1.98,14.72s5.03,11.23,11.23,11.23Z"/>
      <path class="cls-1" d="M24.33,16.25c-.23,1.67-.84,3.28-1.77,4.68-.94,1.41-2.18,2.59-3.63,3.45-1.46.86-3.09,1.38-4.77,1.52-1.68.14-3.38-.1-4.96-.7-1.58-.6-3-1.56-4.16-2.79-1.16-1.23-2.03-2.71-2.53-4.32-.51-1.61-.65-3.32-.41-4.99.24-1.67.86-3.27,1.81-4.67-.07.51-.11,1.02-.11,1.54,0,2.41.77,4.75,2.2,6.68,1.43,1.93,3.44,3.36,5.74,4.06,2.3.7,4.77.65,7.03-.15,2.27-.8,4.22-2.31,5.56-4.31Z"/>
      <path class="cls-7" d="M24.38,27.78l2.51-2.51c.24-.24.55-.37.89-.37s.65.13.89.37l7.07,7.07c.56.56.87,1.31.87,2.1s-.31,1.55-.87,2.1l-.07.07c-.56.56-1.31.87-2.1.87s-1.55-.31-2.1-.87l-7.07-7.07c-.12-.12-.21-.25-.27-.41-.06-.15-.1-.32-.1-.48,0-.16.03-.33.1-.48.06-.15.16-.29.27-.41Z"/>
      <path class="cls-7" d="M35.73,36.56l-.07.07c-.56.56-1.32.87-2.1.87s-1.55-.31-2.1-.87l-7.07-7.07c-.12-.12-.21-.25-.27-.41-.06-.15-.1-.32-.1-.48s.03-.33.1-.48c.06-.15.16-.29.27-.41l.69-.69c1.74,2.64,6.23,7.99,10.61,5.2l.05.05c.56.56.87,1.31.87,2.1,0,.79-.31,1.55-.87,2.1Z"/>
      <g>
        <path class="cls-9" d="M71.45,14.07c-.16-.83-.96-1.6-2.04-1.37-1.08.24-1.09,1.25-.92,2.08,0,.04.54,2.29.86,2.76.31.47.77,1.37,1.53,1.12.5-.17.8-1.07.92-1.72.12-.65-.34-2.87-.34-2.87Z"/>
        <path class="cls-9" d="M85.24,14.04c.16-.83.96-1.6,2.04-1.37,1.08.24,1.19,1.28,1.03,2.11,0,.04-.59,2.12-.86,2.76-.22.53-.83,1.45-1.62,1.13-.49-.2-.82-1.11-.94-1.76-.12-.65.34-2.87.34-2.87Z"/>
        <path class="cls-7" d="M61.49,39.46h33.63s-.66-8.25-1.77-9.49c-1.1-1.24-9.51-4-9.51-4l-10.99-.03s-8.85,2.59-9.45,4.03c-.6,1.45-1.92,9.49-1.92,9.49Z"/>
        <path class="cls-5" d="M77.24,25.95h-4.39s-8.85,2.58-9.45,4.02c-.6,1.45-1.92,9.49-1.92,9.49h4.44s1.31-8.05,1.91-9.49c.58-1.39,8.77-3.83,9.41-4.02Z"/>
        <path class="cls-11" d="M74.04,25.4s2.77,2.27,4.32,2.27,4.32-2.27,4.32-2.27c0,0-1.17-1.36-.36-3.16.81-1.79-9.01-1.65-7.87,0,1.14,1.65-.41,3.16-.41,3.16Z"/>
        <path class="cls-4" d="M76.92,27.26c.21-.57.62-1.14,1.29-1.62.66-.48,1.06-.05,3.87-1.66-.08-.49-.05-1.08.25-1.73.81-1.79-9.01-1.65-7.87,0,1.14,1.65-.41,3.16-.41,3.16,0,0,1.48,1.21,2.88,1.86Z"/>
        <path class="cls-5" d="M73.49,25.24l-.64.7s1.91,4.73,3.58,5.33c.51.18,1.57-2.16,1.93-2.16.18,0,1.61,2.49,1.82,2.44,1.7-.39,3.66-5.57,3.66-5.57l-.72-.55-4.76,2.99-4.87-3.18Z"/>
        <path class="cls-9" d="M86.3,7.82c0-3.6-2.23-7.22-8.14-7.22s-8.05,3.96-8.05,7.56c0,.19-.02,9.99,1.13,12.24,1.15,2.25,4.31,4.54,7.13,4.56,3.08.01,5.86-1.97,7.15-4.56,1.3-2.59.79-12.58.79-12.58Z"/>
        <path class="cls-2" d="M72.38,8.64c.05.04.1.07.16.11.16.15-.65,1.96-.41,1.97,1.17.25,2.57-2.29,3.72-1.93,2.01.63,5.8,5.7,9.52,5.6.98-.94.94-6.56.94-6.56,0-3.6-2.23-7.22-8.14-7.22-4.9,0-7.2,2.72-7.85,5.7.91.39,1.68,1.15,2.07,2.33Z"/>
        <path class="cls-2" d="M80.68,22.38c-2.82-.01-5.98-2.31-7.13-4.56-1.15-2.25-1.13-12.05-1.13-12.24,0-1.25.27-2.54.85-3.7-2.25,1.46-3.17,3.94-3.17,6.28,0,.19-.02,9.99,1.13,12.24,1.15,2.25,4.31,4.54,7.13,4.56,2.92.01,5.55-1.76,6.92-4.14-1.31.97-2.91,1.57-4.61,1.56Z"/>
        <g>
          <path class="cls-2" d="M85.25,20.88s.03-.04.04-.06c-.07.05-.14.09-.2.14.06-.02.11-.05.16-.08Z"/>
          <path class="cls-2" d="M79.7,24.2c-2.82-.01-5.98-2.31-7.13-4.56-1.15-2.25-1.13-12.05-1.13-12.23,0-1.61.45-3.29,1.46-4.65.11-.29.23-.58.37-.86-2.25,1.46-3.17,3.94-3.17,6.28,0,.19-.02,9.99,1.13,12.24,1.15,2.25,4.31,4.54,7.13,4.56,1.6,0,3.11-.54,4.37-1.41-.94.41-1.97.65-3.04.65Z"/>
        </g>
        <path class="cls-3" d="M87.62,6.96c-.73-3.97-3.97-6.84-9.26-6.81-5.28.03-8.75,3.27-9.45,6.94-.3,1.57-.53,4.56-.4,6.34.89-.74,1.26-.83,1.7-.66.3,3.24,1,3.19,1,3.19,0,0,.06-2.2.21-3.65.14-1.45,2.52-1.72,3.71-4.23,3.77-.16,6.15,4.66,10.28,4.93-.41,2.39.5,3.34.5,3.34,0,0,.1-1.97.43-2.91.29-.82,1.16-.82,1.59-.46.21-1.48.11-3.83-.3-6.02Z"/>
        <g class="cls-14">
          <path class="cls-8" d="M87.62,6.96c-.73-3.97-3.97-6.84-9.26-6.81-4.64.03-7.87,2.53-9.07,5.62,1.49-2.54,4.46-4.45,8.51-4.48,5.3-.03,8.53,2.84,9.26,6.81.3,1.61.43,3.3.39,4.67.17.03.33.1.46.2.21-1.48.11-3.83-.3-6.02Z"/>
        </g>
        <g class="cls-12">
          <path class="cls-10" d="M75.13,6.2c-1.19,2.51-5.02,4.88-6.62,5.35,0-.08,0-.18-.01-.26-.03.79-.03,1.54.01,2.15.89-.74,1.26-.83,1.7-.66.3,3.24,1,3.19,1,3.19,0,0,.06-2.2.21-3.65.14-1.45,2.52-1.72,3.71-4.23,3.75-.16,6.13,4.62,10.23,4.92-3.02-1.05-6.46-6.97-10.23-6.8Z"/>
        </g>
        <path class="cls-8" d="M73.49,24.11l-.64,1.82s1.91,3.6,3.58,4.2c.51.18,1.57-2.16,1.93-2.16.18,0,1.61,2.49,1.82,2.44,1.7-.39,3.66-4.45,3.66-4.45l-.72-1.67-4.76,2.99-4.87-3.18Z"/>
      </g>
      <g>
        <path class="cls-7" d="M138.95,18.74v.88h2.73v-.88c-.45.07-.91.1-1.37.1s-.91-.03-1.36-.1Z"/>
        <path class="cls-7" d="M138.95,37.21c0,.77.61,1.37,1.36,1.37s1.37-.6,1.37-1.37v-.87h-2.73v.87Z"/>
        <path class="cls-7" d="M148.82,26.11c0,1.24-.82,2.3-1.96,2.61.16.36.24.75.24,1.14,0,.18-.02.36-.05.52h.73c.86,0,1.57-.7,1.57-1.57v-4.21c-.24.16-.5.28-.78.36.16.36.24.73.24,1.14Z"/>
        <path class="cls-7" d="M140.3,18.35c5.03,0,9.08-4.1,9.08-9.18s-4.06-9.18-9.08-9.18-9.08,4.11-9.08,9.18,4.07,9.18,9.08,9.18ZM140.3,2.73c3.54,0,6.38,2.89,6.38,6.45s-2.84,6.45-6.38,6.45-6.38-2.87-6.38-6.45,2.86-6.45,6.38-6.45Z"/>
        <path class="cls-7" d="M147.85,20.11h-11.96c-2.05,0-3.75,1.7-3.75,3.77v8.2c0,2.07,1.7,3.77,3.75,3.77h6.81c1.21,0,2.21-1,2.21-2.24,0-.59-.24-1.13-.61-1.52h.11c1.21,0,2.21-1.01,2.21-2.24,0-.59-.23-1.13-.6-1.53h.11c1.21,0,2.2-1,2.2-2.22,0-.59-.23-1.13-.6-1.53h.11c1.21,0,2.21-1,2.21-2.24s-1-2.22-2.21-2.22Z"/>
        <path class="cls-7" d="M128.86,20.11h-1.15c-1.54,0-2.8,1.27-2.8,2.82v10.09c0,1.55,1.26,2.82,2.8,2.82h1.15c1.54,0,2.8-1.27,2.8-2.82v-10.09c0-1.55-1.26-2.82-2.8-2.82Z"/>
        <path class="cls-7" d="M140.16,11.72c-.4,0-.74.15-1.02.42-.29.29-.42.64-.42,1.04s.13.75.42,1.03c.27.29.61.42,1.02.42s.74-.13,1.03-.42c.27-.28.42-.62.42-1.03s-.15-.75-.42-1.04c-.29-.28-.63-.42-1.03-.42Z"/>
        <path class="cls-7" d="M139.19,6.12c.24-.26.58-.39,1-.39.27,0,.52.1.73.29.19.2.29.44.29.75,0,.21-.05.39-.15.54-.08.15-.19.26-.29.33-.11.07-.29.16-.52.28-.23.11-.4.21-.53.29-.18.13-.32.26-.42.42-.08.15-.15.29-.16.42-.02.13-.02.33-.02.56v1.39h2.09v-.72c0-.26.03-.47.08-.62.05-.15.16-.26.36-.34,1.44-.62,2.15-1.47,2.15-2.55,0-.88-.36-1.62-1.07-2.19-.71-.59-1.55-.87-2.54-.87-.53,0-1,.08-1.42.24-.42.16-.76.36-.99.57-.23.23-.42.47-.58.72-.15.24-.24.46-.29.6-.06.15-.08.23-.08.28l1.86.9c.08-.34.26-.64.5-.91Z"/>
      </g>
      <path class="cls-7" d="M217.18,22.11l-7.64,3.76c-.38.19-.93.09-1.22-.21l-4.08-4.21c-.29-.3-.56-.21-.6.21l-.49,5.16c-.04.42.26.69.68.61l6.1-1.26c.41-.09,1.06-.02,1.45.15l.16.07c.39.17.92.57,1.18.9l.13.17c.26.33.45.94.42,1.36l-.02.29c-.03.42-.22,1.06-.43,1.43l-.11.19c-.21.37-.72.74-1.13.83l-3.7.84-12.74-2.79c-.41-.09-.43-.03-.04.13l8,3.3c.32.13.79.32,1.17.47.48.21.93.77.7,1.53-.23.76-1.15.79-1.56.7l-4.34-.99c-.41-.09-1.08-.09-1.49,0l-4.34.99c-.74.17-1.44-.34-1.55-.75-.11-.41-.08-1.17.53-1.41.34-.13.28-.32-.13-.41l-7.02-1.6c-.41-.09-.92-.47-1.13-.83l-.11-.19c-.21-.37-.4-1.01-.43-1.43l-.02-.29c-.03-.42.16-1.03.42-1.36l.13-.17c.26-.33.79-.74,1.18-.9l.16-.07c.39-.17,1.04-.24,1.45-.15l6.1,1.26c.41.09.72-.19.68-.61l-.49-5.16c-.04-.42-.31-.51-.61-.21l-4.08,4.21c-.29.3-.84.4-1.22.21l-7.64-3.76c-.38-.19-.72-.69-.57-1.07.19-.48.75-.51,1.15-.37l6.29,2.03c.4.14.64-.04.81-.25l3.03-4.48s1.27-1.82,3.06-2.6c.72-.3,1.51-.5,2.21-.63.91-.17,2.33-.23,3.13-.25.24,0,2.6.09,3.74.44,1.83.58,2.64,1.38,3.04,1.81.62.67,1.29,1.45,1.29,1.45l2.87,4.25c.24.35.75.52,1.15.37l6.27-2.26c.4-.14.77.07.83.47.06.4-.19.88-.57,1.07ZM198.42,4.29c-2.59,0-4.69,2.1-4.69,4.69s2.1,4.69,4.69,4.69,4.69-2.1,4.69-4.69-2.1-4.69-4.69-4.69Z"/>
    </g>
  </g>
</svg>