<?xml version="1.0" encoding="UTF-8"?>
<svg xmlns="http://www.w3.org/2000/svg" viewBox="0 0 95.12 39.31">
  <defs>
    <style>
      .cls-1 {
        fill: #213469;
        opacity: .08;
      }

      .cls-1, .cls-2, .cls-3, .cls-4, .cls-5, .cls-6, .cls-7, .cls-8, .cls-9, .cls-10, .cls-11 {
        stroke-width: 0px;
      }

      .cls-2 {
        fill: #ebdfda;
      }

      .cls-2, .cls-4, .cls-5, .cls-12 {
        mix-blend-mode: multiply;
      }

      .cls-13 {
        isolation: isolate;
      }

      .cls-4 {
        fill: #dfcdcc;
      }

      .cls-5 {
        fill: #b5cad5;
      }

      .cls-6 {
        fill: #f0f6f8;
      }

      .cls-14 {
        mix-blend-mode: soft-light;
        opacity: .5;
      }

      .cls-7 {
        fill: #38b5a9;
      }

      .cls-8 {
        fill: #fff;
      }

      .cls-9 {
        fill: #fbb688;
      }

      .cls-10 {
        fill: #a59f9d;
      }

      .cls-11 {
        fill: #d5906b;
      }
    </style>
  </defs>
  <g class="cls-13">
    <g id="Layer_1" data-name="Layer 1">
      <polygon class="cls-6" points="27.89 26.69 25.73 28.85 22.33 25.44 20.77 23.89 22.93 21.73 24.55 23.35 27.89 26.69"/>
      <path class="cls-1" d="M24.55,23.35c-.68,1.14-1.57,1.76-2.22,2.09l-1.56-1.56,2.16-2.16,1.62,1.62Z"/>
      <path class="cls-7" d="M13.21,27.77c7.29,0,13.21-5.91,13.21-13.21S20.5,1.35,13.21,1.35,0,7.27,0,14.56s5.91,13.21,13.21,13.21Z"/>
      <path class="cls-8" d="M13.21,25.79c6.2,0,11.23-5.03,11.23-11.23S19.41,3.33,13.21,3.33,1.98,8.36,1.98,14.56s5.03,11.23,11.23,11.23Z"/>
      <path class="cls-1" d="M24.33,16.1c-.23,1.67-.84,3.28-1.77,4.68-.94,1.41-2.18,2.59-3.63,3.45-1.46.86-3.09,1.38-4.77,1.52-1.68.14-3.38-.1-4.96-.7-1.58-.6-3-1.56-4.16-2.79-1.16-1.23-2.03-2.71-2.53-4.32-.51-1.61-.65-3.32-.41-4.99.24-1.67.86-3.27,1.81-4.67-.07.51-.11,1.02-.11,1.54,0,2.41.77,4.75,2.2,6.68,1.43,1.93,3.44,3.36,5.74,4.06,2.3.7,4.77.65,7.03-.15,2.27-.8,4.22-2.31,5.56-4.31Z"/>
      <path class="cls-7" d="M24.38,27.63l2.51-2.51c.24-.24.55-.37.89-.37s.65.13.89.37l7.07,7.07c.56.56.87,1.31.87,2.1s-.31,1.55-.87,2.1l-.07.07c-.56.56-1.31.87-2.1.87s-1.55-.31-2.1-.87l-7.07-7.07c-.12-.12-.21-.25-.27-.41-.06-.15-.1-.32-.1-.48,0-.16.03-.33.1-.48.06-.15.16-.29.27-.41Z"/>
      <path class="cls-7" d="M35.73,36.4l-.07.07c-.56.56-1.32.87-2.1.87s-1.55-.31-2.1-.87l-7.07-7.07c-.12-.12-.21-.25-.27-.41-.06-.15-.1-.32-.1-.48s.03-.33.1-.48c.06-.15.16-.29.27-.41l.69-.69c1.74,2.64,6.23,7.99,10.61,5.2l.05.05c.56.56.87,1.31.87,2.1,0,.79-.31,1.55-.87,2.1Z"/>
      <g>
        <path class="cls-9" d="M71.45,13.91c-.16-.83-.96-1.6-2.04-1.37-1.08.24-1.09,1.25-.92,2.08,0,.04.54,2.29.86,2.76.31.47.77,1.37,1.53,1.12.5-.17.8-1.07.92-1.72.12-.65-.34-2.87-.34-2.87Z"/>
        <path class="cls-9" d="M85.24,13.88c.16-.83.96-1.6,2.04-1.37,1.08.24,1.19,1.28,1.03,2.11,0,.04-.59,2.12-.86,2.76-.22.53-.83,1.45-1.62,1.13-.49-.2-.82-1.11-.94-1.76-.12-.65.34-2.87.34-2.87Z"/>
        <path class="cls-7" d="M61.49,39.31h33.63s-.66-8.25-1.77-9.49c-1.1-1.24-9.51-4-9.51-4l-10.99-.03s-8.85,2.59-9.45,4.03c-.6,1.45-1.92,9.49-1.92,9.49Z"/>
        <path class="cls-5" d="M77.24,25.8h-4.39s-8.85,2.58-9.45,4.02c-.6,1.45-1.92,9.49-1.92,9.49h4.44s1.31-8.05,1.91-9.49c.58-1.39,8.77-3.83,9.41-4.02Z"/>
        <path class="cls-11" d="M74.04,25.24s2.77,2.27,4.32,2.27,4.32-2.27,4.32-2.27c0,0-1.17-1.36-.36-3.16.81-1.79-9.01-1.65-7.87,0,1.14,1.65-.41,3.16-.41,3.16Z"/>
        <path class="cls-4" d="M76.92,27.1c.21-.57.62-1.14,1.29-1.62.66-.48,1.06-.05,3.87-1.66-.08-.49-.05-1.08.25-1.73.81-1.79-9.01-1.65-7.87,0,1.14,1.65-.41,3.16-.41,3.16,0,0,1.48,1.21,2.88,1.86Z"/>
        <path class="cls-5" d="M73.49,25.08l-.64.7s1.91,4.73,3.58,5.33c.51.18,1.57-2.16,1.93-2.16.18,0,1.61,2.49,1.82,2.44,1.7-.39,3.66-5.57,3.66-5.57l-.72-.55-4.76,2.99-4.87-3.18Z"/>
        <path class="cls-9" d="M86.3,7.67c0-3.6-2.23-7.22-8.14-7.22s-8.05,3.96-8.05,7.56c0,.19-.02,9.99,1.13,12.24,1.15,2.25,4.31,4.54,7.13,4.56,3.08.01,5.86-1.97,7.15-4.56,1.3-2.59.79-12.58.79-12.58Z"/>
        <path class="cls-2" d="M72.38,8.48c.05.04.1.07.16.11.16.15-.65,1.96-.41,1.97,1.17.25,2.57-2.29,3.72-1.93,2.01.63,5.8,5.7,9.52,5.6.98-.94.94-6.56.94-6.56,0-3.6-2.23-7.22-8.14-7.22-4.9,0-7.2,2.72-7.85,5.7.91.39,1.68,1.15,2.07,2.33Z"/>
        <path class="cls-2" d="M80.68,22.22c-2.82-.01-5.98-2.31-7.13-4.56-1.15-2.25-1.13-12.05-1.13-12.24,0-1.25.27-2.54.85-3.7-2.25,1.46-3.17,3.94-3.17,6.28,0,.19-.02,9.99,1.13,12.24,1.15,2.25,4.31,4.54,7.13,4.56,2.92.01,5.55-1.76,6.92-4.14-1.31.97-2.91,1.57-4.61,1.56Z"/>
        <g>
          <path class="cls-2" d="M85.25,20.72s.03-.04.04-.06c-.07.05-.14.09-.2.14.06-.02.11-.05.16-.08Z"/>
          <path class="cls-2" d="M79.7,24.04c-2.82-.01-5.98-2.31-7.13-4.56-1.15-2.25-1.13-12.05-1.13-12.23,0-1.61.45-3.29,1.46-4.65.11-.29.23-.58.37-.86-2.25,1.46-3.17,3.94-3.17,6.28,0,.19-.02,9.99,1.13,12.24,1.15,2.25,4.31,4.54,7.13,4.56,1.6,0,3.11-.54,4.37-1.41-.94.41-1.97.65-3.04.65Z"/>
        </g>
        <path class="cls-3" d="M87.62,6.81C86.9,2.84,83.66-.03,78.36,0c-5.28.03-8.75,3.27-9.45,6.94-.3,1.57-.53,4.56-.4,6.34.89-.74,1.26-.83,1.7-.66.3,3.24,1,3.19,1,3.19,0,0,.06-2.2.21-3.65.14-1.45,2.52-1.72,3.71-4.23,3.77-.16,6.15,4.66,10.28,4.93-.41,2.39.5,3.34.5,3.34,0,0,.1-1.97.43-2.91.29-.82,1.16-.82,1.59-.46.21-1.48.11-3.83-.3-6.02Z"/>
        <g class="cls-14">
          <path class="cls-8" d="M87.62,6.81C86.9,2.84,83.66-.03,78.36,0c-4.64.03-7.87,2.53-9.07,5.62,1.49-2.54,4.46-4.45,8.51-4.48,5.3-.03,8.53,2.84,9.26,6.81.3,1.61.43,3.3.39,4.67.17.03.33.1.46.2.21-1.48.11-3.83-.3-6.02Z"/>
        </g>
        <g class="cls-12">
          <path class="cls-10" d="M75.13,6.05c-1.19,2.51-5.02,4.88-6.62,5.35,0-.08,0-.18-.01-.26-.03.79-.03,1.54.01,2.15.89-.74,1.26-.83,1.7-.66.3,3.24,1,3.19,1,3.19,0,0,.06-2.2.21-3.65.14-1.45,2.52-1.72,3.71-4.23,3.75-.16,6.13,4.62,10.23,4.92-3.02-1.05-6.46-6.97-10.23-6.8Z"/>
        </g>
        <path class="cls-8" d="M73.49,23.96l-.64,1.82s1.91,3.6,3.58,4.2c.51.18,1.57-2.16,1.93-2.16.18,0,1.61,2.49,1.82,2.44,1.7-.39,3.66-4.45,3.66-4.45l-.72-1.67-4.76,2.99-4.87-3.18Z"/>
      </g>
    </g>
  </g>
</svg>